<svg xmlns="http://www.w3.org/2000/svg" xmlns:xlink="http://www.w3.org/1999/xlink" width="100" zoomAndPan="magnify" viewBox="0 0 75 37.5" height="50" preserveAspectRatio="xMidYMid meet" version="1.0"><defs><g/></defs><g fill="#100a09" fill-opacity="1"><g transform="translate(16.659292, 27.201057)"><g><path d="M 11.140625 -8.4375 C 11.148438 -8.238281 11.175781 -8.050781 11.21875 -7.875 C 11.257812 -7.695312 11.296875 -7.503906 11.328125 -7.296875 C 11.367188 -7.140625 11.347656 -6.988281 11.265625 -6.84375 C 11.191406 -6.695312 11.070312 -6.601562 10.90625 -6.5625 C 10.53125 -6.46875 10.226562 -6.539062 10 -6.78125 C 9.769531 -7.03125 9.59375 -7.359375 9.46875 -7.765625 C 9.351562 -8.171875 9.273438 -8.550781 9.234375 -8.90625 C 9.210938 -8.90625 9.203125 -8.90625 9.203125 -8.90625 C 9.203125 -8.914062 9.195312 -8.921875 9.1875 -8.921875 C 8.84375 -9.421875 8.425781 -9.851562 7.9375 -10.21875 C 7.445312 -10.59375 6.925781 -10.90625 6.375 -11.15625 C 5.78125 -11.425781 5.175781 -11.628906 4.5625 -11.765625 L 5.515625 -10.859375 C 5.878906 -10.503906 6.25 -10.140625 6.625 -9.765625 C 7 -9.390625 7.359375 -9.007812 7.703125 -8.625 C 8.035156 -8.269531 8.375 -7.910156 8.71875 -7.546875 C 9.0625 -7.179688 9.378906 -6.804688 9.671875 -6.421875 C 9.890625 -6.148438 10.078125 -5.867188 10.234375 -5.578125 C 10.390625 -5.285156 10.5 -4.984375 10.5625 -4.671875 C 10.675781 -4.378906 10.765625 -4.082031 10.828125 -3.78125 C 10.890625 -3.476562 10.898438 -3.171875 10.859375 -2.859375 C 10.835938 -2.359375 10.671875 -1.910156 10.359375 -1.515625 C 10.054688 -1.128906 9.671875 -0.816406 9.203125 -0.578125 C 8.742188 -0.347656 8.265625 -0.21875 7.765625 -0.1875 L 7.703125 -0.1875 C 7.304688 -0.125 6.894531 -0.109375 6.46875 -0.140625 C 6.039062 -0.179688 5.644531 -0.257812 5.28125 -0.375 C 4.769531 -0.476562 4.289062 -0.675781 3.84375 -0.96875 C 3.789062 -0.769531 3.722656 -0.582031 3.640625 -0.40625 C 3.554688 -0.226562 3.4375 -0.078125 3.28125 0.046875 C 3.164062 0.148438 3.023438 0.203125 2.859375 0.203125 C 2.703125 0.203125 2.5625 0.148438 2.4375 0.046875 C 2.3125 -0.078125 2.195312 -0.234375 2.09375 -0.421875 C 1.988281 -0.617188 1.921875 -0.816406 1.890625 -1.015625 C 1.828125 -1.097656 1.773438 -1.191406 1.734375 -1.296875 C 1.691406 -1.410156 1.65625 -1.519531 1.625 -1.625 C 1.5625 -2.28125 1.460938 -2.929688 1.328125 -3.578125 C 1.203125 -4.234375 1.054688 -4.878906 0.890625 -5.515625 C 0.796875 -5.867188 0.71875 -6.226562 0.65625 -6.59375 C 0.601562 -6.96875 0.554688 -7.34375 0.515625 -7.71875 C 0.460938 -8.039062 0.414062 -8.375 0.375 -8.71875 C 0.34375 -9.070312 0.359375 -9.421875 0.421875 -9.765625 C 0.460938 -9.984375 0.5625 -10.1875 0.71875 -10.375 C 0.882812 -10.5625 1.085938 -10.664062 1.328125 -10.6875 C 1.609375 -10.71875 1.851562 -10.679688 2.0625 -10.578125 C 2.28125 -10.472656 2.4375 -10.28125 2.53125 -10 C 2.78125 -9.238281 2.957031 -8.453125 3.0625 -7.640625 C 3.175781 -6.835938 3.363281 -6.050781 3.625 -5.28125 C 3.738281 -5 3.867188 -4.71875 4.015625 -4.4375 C 4.160156 -4.15625 4.332031 -3.910156 4.53125 -3.703125 C 4.65625 -3.585938 4.78125 -3.46875 4.90625 -3.34375 C 5.03125 -3.21875 5.160156 -3.101562 5.296875 -3 C 5.441406 -2.945312 5.582031 -2.910156 5.71875 -2.890625 C 5.851562 -2.867188 5.992188 -2.851562 6.140625 -2.84375 C 6.617188 -2.789062 7.113281 -2.789062 7.625 -2.84375 C 7.78125 -2.851562 7.953125 -2.875 8.140625 -2.90625 C 8.335938 -2.945312 8.484375 -3.039062 8.578125 -3.1875 C 8.628906 -3.226562 8.65625 -3.296875 8.65625 -3.390625 C 8.707031 -3.515625 8.695312 -3.671875 8.625 -3.859375 C 8.5625 -4.046875 8.507812 -4.1875 8.46875 -4.28125 C 8.445312 -4.34375 8.421875 -4.40625 8.390625 -4.46875 C 8.359375 -4.53125 8.328125 -4.59375 8.296875 -4.65625 C 8.191406 -4.789062 8.082031 -4.925781 7.96875 -5.0625 C 7.863281 -5.207031 7.75 -5.347656 7.625 -5.484375 C 7.269531 -5.921875 6.90625 -6.347656 6.53125 -6.765625 C 6.15625 -7.179688 5.769531 -7.59375 5.375 -8 C 5.21875 -8.164062 5.0625 -8.332031 4.90625 -8.5 C 4.75 -8.675781 4.585938 -8.84375 4.421875 -9 L 4.0625 -9.28125 C 3.519531 -9.726562 3 -10.195312 2.5 -10.6875 C 2.007812 -11.175781 1.546875 -11.695312 1.109375 -12.25 C 0.910156 -12.539062 0.726562 -12.851562 0.5625 -13.1875 C 0.40625 -13.519531 0.375 -13.882812 0.46875 -14.28125 C 0.5625 -14.664062 0.757812 -14.96875 1.0625 -15.1875 C 1.375 -15.40625 1.722656 -15.5 2.109375 -15.46875 C 2.378906 -15.445312 2.632812 -15.398438 2.875 -15.328125 C 3.125 -15.265625 3.375 -15.191406 3.625 -15.109375 C 3.738281 -15.140625 3.851562 -15.132812 3.96875 -15.09375 C 4.601562 -14.90625 5.207031 -14.675781 5.78125 -14.40625 C 6.363281 -14.144531 6.925781 -13.835938 7.46875 -13.484375 C 7.726562 -13.328125 7.984375 -13.160156 8.234375 -12.984375 C 8.484375 -12.804688 8.722656 -12.609375 8.953125 -12.390625 L 9.0625 -12.28125 C 9.0625 -12.476562 9.0625 -12.671875 9.0625 -12.859375 C 9.0625 -13.054688 9.054688 -13.257812 9.046875 -13.46875 C 9.046875 -13.769531 9.160156 -14.03125 9.390625 -14.25 C 9.617188 -14.476562 9.882812 -14.59375 10.1875 -14.59375 C 10.519531 -14.59375 10.785156 -14.476562 10.984375 -14.25 C 11.179688 -14.03125 11.296875 -13.769531 11.328125 -13.46875 C 11.398438 -12.914062 11.394531 -12.359375 11.3125 -11.796875 C 11.238281 -11.234375 11.179688 -10.679688 11.140625 -10.140625 C 11.117188 -9.566406 11.117188 -9 11.140625 -8.4375 Z M 11.140625 -8.4375 "/></g></g></g><g fill="#100a09" fill-opacity="1"><g transform="translate(27.494327, 27.201057)"><g><path d="M 8.515625 -0.703125 C 8.421875 -0.734375 8.3125 -0.894531 8.1875 -1.1875 C 8.070312 -1.476562 7.945312 -1.835938 7.8125 -2.265625 C 7.6875 -2.703125 7.566406 -3.15625 7.453125 -3.625 C 7.335938 -4.09375 7.234375 -4.507812 7.140625 -4.875 C 7.046875 -5.25 6.984375 -5.523438 6.953125 -5.703125 L 5.140625 -5.671875 C 4.960938 -4.972656 4.8125 -4.28125 4.6875 -3.59375 C 4.570312 -2.90625 4.484375 -2.203125 4.421875 -1.484375 C 4.421875 -1.347656 4.351562 -1.28125 4.21875 -1.28125 C 4.082031 -1.28125 4.023438 -1.347656 4.046875 -1.484375 C 4.109375 -2.179688 4.195312 -2.882812 4.3125 -3.59375 C 4.425781 -4.300781 4.59375 -4.992188 4.8125 -5.671875 L 4.609375 -5.671875 C 4.523438 -5.390625 4.441406 -5.050781 4.359375 -4.65625 C 4.285156 -4.257812 4.210938 -3.867188 4.140625 -3.484375 C 4.078125 -3.109375 4.019531 -2.789062 3.96875 -2.53125 C 3.925781 -2.28125 3.90625 -2.15625 3.90625 -2.15625 L 3.765625 -1.109375 C 3.722656 -0.585938 3.546875 -0.210938 3.234375 0.015625 C 2.921875 0.253906 2.578125 0.347656 2.203125 0.296875 C 1.835938 0.253906 1.523438 0.078125 1.265625 -0.234375 C 1.015625 -0.546875 0.925781 -0.972656 1 -1.515625 C 1.09375 -2.191406 1.203125 -2.867188 1.328125 -3.546875 C 1.453125 -4.234375 1.597656 -4.910156 1.765625 -5.578125 C 1.660156 -5.566406 1.550781 -5.554688 1.4375 -5.546875 C 1.332031 -5.535156 1.234375 -5.53125 1.140625 -5.53125 C 1.171875 -5.613281 1.175781 -5.6875 1.15625 -5.75 C 0.789062 -5.832031 0.519531 -6.03125 0.34375 -6.34375 C 0.175781 -6.65625 0.128906 -7 0.203125 -7.375 C 0.285156 -7.757812 0.503906 -8.109375 0.859375 -8.421875 C 1.210938 -8.742188 1.738281 -8.957031 2.4375 -9.0625 C 2.613281 -9.84375 2.800781 -10.609375 3 -11.359375 C 3.195312 -12.109375 3.445312 -12.84375 3.75 -13.5625 C 3.882812 -13.863281 4.035156 -14.195312 4.203125 -14.5625 C 4.378906 -14.925781 4.59375 -15.242188 4.84375 -15.515625 C 5.101562 -15.785156 5.425781 -15.921875 5.8125 -15.921875 C 6.007812 -15.941406 6.207031 -15.890625 6.40625 -15.765625 C 6.613281 -15.640625 6.765625 -15.484375 6.859375 -15.296875 C 7.203125 -15.285156 7.484375 -15.164062 7.703125 -14.9375 C 7.929688 -14.707031 8.0625 -14.410156 8.09375 -14.046875 C 8.125 -13.578125 8.160156 -13.101562 8.203125 -12.625 C 8.253906 -12.15625 8.300781 -11.695312 8.34375 -11.25 C 8.363281 -11.238281 8.378906 -11.234375 8.390625 -11.234375 C 8.410156 -11.628906 8.429688 -12.023438 8.453125 -12.421875 C 8.472656 -12.816406 8.507812 -13.207031 8.5625 -13.59375 C 8.5625 -13.65625 8.570312 -13.515625 8.59375 -13.171875 C 8.613281 -12.835938 8.640625 -12.398438 8.671875 -11.859375 C 8.703125 -11.328125 8.734375 -10.796875 8.765625 -10.265625 C 8.796875 -9.734375 8.832031 -9.285156 8.875 -8.921875 C 9.332031 -8.878906 9.679688 -8.726562 9.921875 -8.46875 C 10.171875 -8.21875 10.328125 -7.925781 10.390625 -7.59375 C 10.453125 -7.257812 10.421875 -6.925781 10.296875 -6.59375 C 10.171875 -6.269531 9.945312 -6.007812 9.625 -5.8125 C 9.78125 -5.132812 9.941406 -4.363281 10.109375 -3.5 C 10.285156 -2.632812 10.421875 -1.851562 10.515625 -1.15625 C 10.578125 -0.632812 10.53125 -0.238281 10.375 0.03125 C 10.226562 0.300781 10.035156 0.453125 9.796875 0.484375 C 9.554688 0.515625 9.316406 0.429688 9.078125 0.234375 C 8.835938 0.0351562 8.648438 -0.273438 8.515625 -0.703125 Z M 5.0625 -8.703125 C 5.238281 -8.722656 5.460938 -8.738281 5.734375 -8.75 C 6.003906 -8.757812 6.21875 -8.769531 6.375 -8.78125 C 6.34375 -8.988281 6.304688 -9.273438 6.265625 -9.640625 C 6.222656 -10.015625 6.175781 -10.414062 6.125 -10.84375 C 6.070312 -11.269531 6.003906 -11.660156 5.921875 -12.015625 C 5.742188 -11.367188 5.582031 -10.789062 5.4375 -10.28125 C 5.300781 -9.769531 5.175781 -9.242188 5.0625 -8.703125 Z M 5.0625 -8.703125 "/></g></g></g><g fill="#100a09" fill-opacity="1"><g transform="translate(37.3993, 27.201057)"><g><path d="M 11.875 -7.296875 L 11.875 -7.234375 C 11.84375 -6.953125 11.710938 -6.738281 11.484375 -6.59375 C 11.265625 -6.445312 11.023438 -6.390625 10.765625 -6.421875 C 10.742188 -5.847656 10.710938 -5.273438 10.671875 -4.703125 C 10.640625 -4.128906 10.609375 -3.550781 10.578125 -2.96875 C 10.566406 -2.675781 10.546875 -2.390625 10.515625 -2.109375 C 10.484375 -1.835938 10.453125 -1.5625 10.421875 -1.28125 C 10.390625 -1.03125 10.332031 -0.738281 10.25 -0.40625 C 10.175781 -0.0703125 10.015625 0.160156 9.765625 0.296875 C 9.765625 0.316406 9.753906 0.328125 9.734375 0.328125 C 9.679688 0.421875 9.582031 0.503906 9.4375 0.578125 C 9.238281 0.703125 9.035156 0.738281 8.828125 0.6875 C 8.628906 0.632812 8.46875 0.53125 8.34375 0.375 C 8.238281 0.25 8.171875 0.101562 8.140625 -0.0625 C 8.109375 -0.238281 8.082031 -0.40625 8.0625 -0.5625 C 7.988281 -1.476562 7.941406 -2.375 7.921875 -3.25 C 7.878906 -4.132812 7.859375 -5.023438 7.859375 -5.921875 L 7.859375 -6.78125 C 7.785156 -6.78125 7.707031 -6.78125 7.625 -6.78125 C 7.550781 -6.78125 7.472656 -6.78125 7.390625 -6.78125 C 6.492188 -6.78125 5.601562 -6.757812 4.71875 -6.71875 C 4.738281 -6.375 4.75 -6.035156 4.75 -5.703125 C 4.757812 -5.367188 4.765625 -5.035156 4.765625 -4.703125 C 4.765625 -4.304688 4.765625 -3.914062 4.765625 -3.53125 C 4.765625 -3.144531 4.726562 -2.765625 4.65625 -2.390625 L 4.65625 -2.328125 C 4.632812 -2.234375 4.625 -2.132812 4.625 -2.03125 C 4.625 -1.9375 4.617188 -1.84375 4.609375 -1.75 C 4.585938 -1.539062 4.550781 -1.320312 4.5 -1.09375 C 4.445312 -0.863281 4.347656 -0.671875 4.203125 -0.515625 C 3.910156 -0.210938 3.578125 -0.0507812 3.203125 -0.03125 C 2.835938 -0.0195312 2.546875 -0.21875 2.328125 -0.625 C 2.296875 -0.6875 2.265625 -0.742188 2.234375 -0.796875 C 2.210938 -0.859375 2.1875 -0.914062 2.15625 -0.96875 C 2.09375 -0.96875 2.023438 -0.988281 1.953125 -1.03125 C 1.890625 -1.082031 1.859375 -1.148438 1.859375 -1.234375 C 1.796875 -2.097656 1.75 -2.960938 1.71875 -3.828125 C 1.6875 -4.703125 1.65625 -5.566406 1.625 -6.421875 L 1.390625 -6.328125 C 1.128906 -6.210938 0.878906 -6.222656 0.640625 -6.359375 C 0.410156 -6.492188 0.253906 -6.691406 0.171875 -6.953125 C 0.0976562 -7.210938 0.15625 -7.46875 0.34375 -7.71875 C 0.4375 -7.84375 0.5625 -7.972656 0.71875 -8.109375 C 0.8125 -8.265625 0.929688 -8.390625 1.078125 -8.484375 C 1.222656 -8.578125 1.382812 -8.65625 1.5625 -8.71875 C 1.539062 -9.1875 1.523438 -9.65625 1.515625 -10.125 C 1.515625 -10.59375 1.5 -11.070312 1.46875 -11.5625 C 1.445312 -12.101562 1.425781 -12.648438 1.40625 -13.203125 C 1.382812 -13.765625 1.378906 -14.316406 1.390625 -14.859375 C 1.390625 -14.890625 1.398438 -14.90625 1.421875 -14.90625 C 1.453125 -14.90625 1.46875 -14.890625 1.46875 -14.859375 C 1.59375 -14.296875 1.675781 -13.726562 1.71875 -13.15625 C 1.769531 -12.582031 1.828125 -12.007812 1.890625 -11.4375 C 1.929688 -11 1.972656 -10.5625 2.015625 -10.125 C 2.066406 -9.6875 2.109375 -9.25 2.140625 -8.8125 C 2.179688 -8.851562 2.203125 -8.875 2.203125 -8.875 L 2.25 -8.875 C 2.238281 -9.78125 2.21875 -10.679688 2.1875 -11.578125 C 2.15625 -12.472656 2.078125 -13.363281 1.953125 -14.25 C 1.921875 -14.507812 1.988281 -14.75 2.15625 -14.96875 C 2.332031 -15.1875 2.546875 -15.3125 2.796875 -15.34375 C 3.035156 -15.375 3.269531 -15.304688 3.5 -15.140625 C 3.738281 -14.984375 3.863281 -14.773438 3.875 -14.515625 L 3.875 -14.46875 C 3.957031 -14.46875 4.046875 -14.441406 4.140625 -14.390625 C 4.265625 -14.347656 4.347656 -14.238281 4.390625 -14.0625 C 4.441406 -13.894531 4.472656 -13.753906 4.484375 -13.640625 L 4.5625 -12.53125 C 4.59375 -12 4.625 -11.46875 4.65625 -10.9375 C 4.695312 -10.40625 4.734375 -9.875 4.765625 -9.34375 L 4.8125 -9.34375 C 5.21875 -9.40625 5.625 -9.457031 6.03125 -9.5 C 6.445312 -9.539062 6.851562 -9.578125 7.25 -9.609375 C 7.375 -9.617188 7.5 -9.628906 7.625 -9.640625 C 7.75 -9.660156 7.875 -9.675781 8 -9.6875 C 7.976562 -10.175781 7.953125 -10.660156 7.921875 -11.140625 C 7.890625 -11.617188 7.859375 -12.097656 7.828125 -12.578125 C 7.773438 -12.984375 7.75 -13.398438 7.75 -13.828125 C 7.757812 -14.253906 7.957031 -14.597656 8.34375 -14.859375 C 8.695312 -15.085938 9.082031 -15.1875 9.5 -15.15625 C 9.925781 -15.125 10.253906 -14.910156 10.484375 -14.515625 C 10.703125 -14.148438 10.816406 -13.734375 10.828125 -13.265625 C 10.847656 -12.796875 10.863281 -12.359375 10.875 -11.953125 C 10.894531 -11.921875 10.898438 -11.882812 10.890625 -11.84375 C 10.878906 -11.800781 10.875 -11.765625 10.875 -11.734375 C 10.90625 -11.191406 10.90625 -10.644531 10.875 -10.09375 L 10.875 -9.578125 C 10.96875 -9.566406 11.0625 -9.546875 11.15625 -9.515625 C 11.25 -9.492188 11.351562 -9.46875 11.46875 -9.4375 C 11.769531 -9.34375 11.984375 -9.164062 12.109375 -8.90625 C 12.234375 -8.644531 12.273438 -8.363281 12.234375 -8.0625 C 12.203125 -7.769531 12.082031 -7.515625 11.875 -7.296875 Z M 5.5625 -7.421875 C 5.4375 -7.421875 5.304688 -7.414062 5.171875 -7.40625 C 5.035156 -7.394531 4.910156 -7.390625 4.796875 -7.390625 C 4.765625 -7.328125 4.734375 -7.289062 4.703125 -7.28125 L 4.703125 -7.1875 C 5.609375 -7.28125 6.503906 -7.328125 7.390625 -7.328125 C 7.472656 -7.304688 7.554688 -7.296875 7.640625 -7.296875 C 7.722656 -7.296875 7.796875 -7.296875 7.859375 -7.296875 L 7.859375 -7.421875 C 7.472656 -7.429688 7.085938 -7.441406 6.703125 -7.453125 C 6.328125 -7.460938 5.945312 -7.453125 5.5625 -7.421875 Z M 5.5625 -7.421875 "/></g></g></g><g fill="#100a09" fill-opacity="1"><g transform="translate(48.722618, 27.201057)"><g><path d="M 0.328125 -13.421875 C 0.273438 -13.566406 0.285156 -13.71875 0.359375 -13.875 C 0.441406 -14.03125 0.523438 -14.164062 0.609375 -14.28125 C 0.765625 -14.507812 0.957031 -14.703125 1.1875 -14.859375 C 1.25 -14.921875 1.296875 -14.957031 1.328125 -14.96875 C 1.640625 -15.1875 1.96875 -15.347656 2.3125 -15.453125 C 2.664062 -15.566406 3.019531 -15.578125 3.375 -15.484375 C 3.6875 -15.410156 3.957031 -15.28125 4.1875 -15.09375 C 4.414062 -14.914062 4.585938 -14.675781 4.703125 -14.375 C 4.742188 -14.25 4.734375 -14.128906 4.671875 -14.015625 C 4.609375 -13.910156 4.53125 -13.816406 4.4375 -13.734375 C 4.050781 -13.460938 3.640625 -13.28125 3.203125 -13.1875 C 3.066406 -13.03125 2.878906 -12.914062 2.640625 -12.84375 C 2.410156 -12.769531 2.1875 -12.734375 1.96875 -12.734375 C 1.789062 -12.734375 1.609375 -12.75 1.421875 -12.78125 C 1.242188 -12.8125 1.070312 -12.859375 0.90625 -12.921875 C 0.800781 -12.953125 0.6875 -13.015625 0.5625 -13.109375 C 0.4375 -13.203125 0.359375 -13.304688 0.328125 -13.421875 Z M 1.890625 -12.859375 C 2.222656 -12.859375 2.441406 -12.890625 2.546875 -12.953125 C 2.660156 -13.023438 2.710938 -13.0625 2.703125 -13.0625 C 2.554688 -13.03125 2.394531 -13.003906 2.21875 -12.984375 C 2.050781 -12.972656 1.835938 -12.992188 1.578125 -13.046875 C 1.234375 -13.117188 1.003906 -13.269531 0.890625 -13.5 C 0.773438 -13.738281 0.773438 -13.988281 0.890625 -14.25 C 0.773438 -14.125 0.671875 -13.976562 0.578125 -13.8125 C 0.535156 -13.695312 0.515625 -13.597656 0.515625 -13.515625 C 0.515625 -13.429688 0.5625 -13.351562 0.65625 -13.28125 C 0.8125 -13.15625 0.957031 -13.066406 1.09375 -13.015625 C 1.320312 -12.941406 1.585938 -12.890625 1.890625 -12.859375 Z M 4.296875 -1.234375 C 4.191406 -1.046875 4.03125 -0.914062 3.8125 -0.84375 C 3.832031 -0.757812 3.828125 -0.675781 3.796875 -0.59375 C 3.765625 -0.507812 3.691406 -0.441406 3.578125 -0.390625 C 3.296875 -0.253906 2.992188 -0.21875 2.671875 -0.28125 C 2.359375 -0.34375 2.097656 -0.484375 1.890625 -0.703125 L 1.84375 -0.765625 C 1.726562 -0.816406 1.609375 -0.882812 1.484375 -0.96875 C 1.234375 -1.207031 1.082031 -1.488281 1.03125 -1.8125 C 0.976562 -2.132812 0.929688 -2.460938 0.890625 -2.796875 C 0.773438 -3.660156 0.691406 -4.519531 0.640625 -5.375 C 0.585938 -6.238281 0.566406 -7.101562 0.578125 -7.96875 C 0.578125 -8.394531 0.578125 -8.816406 0.578125 -9.234375 C 0.578125 -9.660156 0.601562 -10.085938 0.65625 -10.515625 C 0.6875 -10.722656 0.738281 -10.929688 0.8125 -11.140625 C 0.894531 -11.359375 1.003906 -11.535156 1.140625 -11.671875 C 1.171875 -11.710938 1.203125 -11.753906 1.234375 -11.796875 C 1.265625 -11.835938 1.296875 -11.875 1.328125 -11.90625 C 1.492188 -12.007812 1.710938 -12.144531 1.984375 -12.3125 C 2.253906 -12.476562 2.519531 -12.570312 2.78125 -12.59375 C 3.050781 -12.613281 3.25 -12.46875 3.375 -12.15625 C 3.445312 -12.175781 3.519531 -12.160156 3.59375 -12.109375 C 3.675781 -12.066406 3.726562 -11.988281 3.75 -11.875 C 3.75 -11.445312 3.738281 -11.019531 3.71875 -10.59375 C 3.707031 -10.175781 3.703125 -9.753906 3.703125 -9.328125 C 3.703125 -8.910156 3.707031 -8.488281 3.71875 -8.0625 C 3.738281 -7.632812 3.753906 -7.203125 3.765625 -6.765625 C 3.765625 -6.691406 3.769531 -6.601562 3.78125 -6.5 C 3.789062 -6.394531 3.800781 -6.289062 3.8125 -6.1875 C 3.832031 -6.195312 3.851562 -6.132812 3.875 -6 C 3.894531 -5.863281 3.910156 -5.726562 3.921875 -5.59375 C 3.941406 -5.457031 3.957031 -5.390625 3.96875 -5.390625 C 3.957031 -5.953125 3.945312 -6.570312 3.9375 -7.25 C 3.925781 -7.9375 3.925781 -8.617188 3.9375 -9.296875 C 3.945312 -9.984375 3.96875 -10.597656 4 -11.140625 C 4 -11.171875 4.023438 -11.1875 4.078125 -11.1875 C 4.128906 -11.195312 4.15625 -11.195312 4.15625 -11.1875 C 4.113281 -9.53125 4.140625 -7.875 4.234375 -6.21875 C 4.328125 -4.570312 4.484375 -2.914062 4.703125 -1.25 C 4.710938 -1.144531 4.65625 -1.085938 4.53125 -1.078125 C 4.40625 -1.066406 4.328125 -1.117188 4.296875 -1.234375 Z M 1.71875 -10.71875 C 1.550781 -10.1875 1.453125 -9.628906 1.421875 -9.046875 C 1.398438 -8.472656 1.375 -7.914062 1.34375 -7.375 L 1.34375 -7.140625 C 1.34375 -7.117188 1.34375 -7.109375 1.34375 -7.109375 C 1.34375 -7.109375 1.34375 -7.101562 1.34375 -7.09375 C 1.375 -6.8125 1.40625 -6.53125 1.4375 -6.25 C 1.46875 -5.96875 1.5 -5.691406 1.53125 -5.421875 L 1.609375 -5.421875 C 1.609375 -5.941406 1.601562 -6.460938 1.59375 -6.984375 C 1.582031 -7.503906 1.585938 -8.03125 1.609375 -8.5625 C 1.609375 -8.957031 1.625 -9.359375 1.65625 -9.765625 C 1.695312 -10.179688 1.78125 -10.578125 1.90625 -10.953125 L 1.890625 -10.953125 C 1.773438 -10.867188 1.71875 -10.789062 1.71875 -10.71875 Z M 1.71875 -10.71875 "/></g></g></g><g fill="#100a09" fill-opacity="1"><g transform="translate(52.582197, 27.201057)"><g><path d="M 13.09375 -1.15625 C 13 -0.832031 12.8125 -0.597656 12.53125 -0.453125 C 12.25 -0.304688 11.9375 -0.21875 11.59375 -0.1875 C 11.257812 -0.15625 10.945312 -0.128906 10.65625 -0.109375 C 10.164062 -0.0976562 9.679688 -0.117188 9.203125 -0.171875 C 8.722656 -0.222656 8.242188 -0.257812 7.765625 -0.28125 C 7.097656 -0.3125 6.4375 -0.304688 5.78125 -0.265625 C 5.125 -0.222656 4.46875 -0.164062 3.8125 -0.09375 C 3.644531 0.0078125 3.4375 0.0625 3.1875 0.0625 C 3.0625 0.0625 2.972656 0.0546875 2.921875 0.046875 C 2.773438 0.0546875 2.625 0.078125 2.46875 0.109375 C 2.320312 0.140625 2.179688 0.171875 2.046875 0.203125 C 1.828125 0.234375 1.625 0.203125 1.4375 0.109375 C 1.25 0.0234375 1.125 -0.125 1.0625 -0.34375 C 1.050781 -0.375 1.046875 -0.414062 1.046875 -0.46875 C 0.953125 -0.601562 0.90625 -0.757812 0.90625 -0.9375 C 0.90625 -1.195312 0.988281 -1.40625 1.15625 -1.5625 C 1.332031 -1.71875 1.546875 -1.800781 1.796875 -1.8125 C 1.828125 -1.8125 1.847656 -1.820312 1.859375 -1.84375 C 1.847656 -2.539062 1.8125 -3.234375 1.75 -3.921875 C 1.695312 -4.617188 1.640625 -5.316406 1.578125 -6.015625 C 1.328125 -6.097656 1.117188 -6.222656 0.953125 -6.390625 C 0.796875 -6.566406 0.71875 -6.800781 0.71875 -7.09375 C 0.71875 -7.320312 0.78125 -7.519531 0.90625 -7.6875 C 1.03125 -7.863281 1.191406 -8 1.390625 -8.09375 C 1.390625 -8.101562 1.382812 -8.113281 1.375 -8.125 C 1.375 -8.132812 1.375 -8.140625 1.375 -8.140625 C 1.320312 -8.722656 1.269531 -9.304688 1.21875 -9.890625 C 1.175781 -10.472656 1.125 -11.050781 1.0625 -11.625 C 0.957031 -11.6875 0.851562 -11.753906 0.75 -11.828125 C 0.65625 -11.910156 0.5625 -11.984375 0.46875 -12.046875 C 0.3125 -12.203125 0.15625 -12.378906 0 -12.578125 C -0.15625 -12.773438 -0.253906 -12.988281 -0.296875 -13.21875 C -0.347656 -13.457031 -0.296875 -13.6875 -0.140625 -13.90625 C 0.0859375 -14.21875 0.382812 -14.414062 0.75 -14.5 C 1.113281 -14.59375 1.476562 -14.648438 1.84375 -14.671875 C 2.5625 -14.671875 3.25 -14.554688 3.90625 -14.328125 C 4.601562 -14.085938 5.285156 -13.789062 5.953125 -13.4375 C 6.148438 -13.332031 6.472656 -13.140625 6.921875 -12.859375 C 7.378906 -12.578125 7.878906 -12.234375 8.421875 -11.828125 C 8.972656 -11.429688 9.507812 -11.003906 10.03125 -10.546875 C 10.550781 -10.085938 10.984375 -9.628906 11.328125 -9.171875 C 11.679688 -8.710938 11.882812 -8.273438 11.9375 -7.859375 C 11.988281 -7.453125 11.820312 -7.101562 11.4375 -6.8125 C 11.28125 -6.6875 11.113281 -6.582031 10.9375 -6.5 C 10.769531 -6.414062 10.585938 -6.378906 10.390625 -6.390625 C 10.128906 -6.421875 9.875 -6.453125 9.625 -6.484375 C 9.375 -6.515625 9.09375 -6.546875 8.78125 -6.578125 L 7.671875 -6.65625 C 7.742188 -6.625 7.804688 -6.585938 7.859375 -6.546875 C 7.921875 -6.503906 7.984375 -6.46875 8.046875 -6.4375 C 8.328125 -6.269531 8.597656 -6.097656 8.859375 -5.921875 C 9.117188 -5.742188 9.375 -5.550781 9.625 -5.34375 C 10.695312 -4.507812 11.648438 -3.597656 12.484375 -2.609375 C 12.703125 -2.398438 12.875 -2.179688 13 -1.953125 C 13.132812 -1.722656 13.164062 -1.457031 13.09375 -1.15625 Z M 8.140625 -8.96875 C 7.992188 -9.125 7.847656 -9.269531 7.703125 -9.40625 C 7.554688 -9.550781 7.40625 -9.691406 7.25 -9.828125 C 7.09375 -9.953125 6.957031 -10.066406 6.84375 -10.171875 C 6.726562 -10.285156 6.609375 -10.382812 6.484375 -10.46875 C 6.160156 -10.675781 5.820312 -10.878906 5.46875 -11.078125 C 5.125 -11.273438 4.796875 -11.425781 4.484375 -11.53125 C 4.378906 -11.5625 4.273438 -11.59375 4.171875 -11.625 C 4.066406 -11.664062 3.960938 -11.695312 3.859375 -11.71875 L 3.484375 -11.78125 C 3.472656 -11.78125 3.460938 -11.78125 3.453125 -11.78125 C 3.441406 -11.78125 3.429688 -11.78125 3.421875 -11.78125 C 3.523438 -11.289062 3.613281 -10.789062 3.6875 -10.28125 C 3.757812 -9.78125 3.820312 -9.273438 3.875 -8.765625 C 4.632812 -8.867188 5.394531 -8.9375 6.15625 -8.96875 C 6.820312 -8.988281 7.484375 -8.988281 8.140625 -8.96875 Z M 9.390625 -2.859375 C 9.035156 -3.171875 8.664062 -3.460938 8.28125 -3.734375 C 7.894531 -4.015625 7.488281 -4.273438 7.0625 -4.515625 C 6.664062 -4.734375 6.242188 -4.945312 5.796875 -5.15625 C 5.359375 -5.363281 4.914062 -5.53125 4.46875 -5.65625 C 4.40625 -5.6875 4.34375 -5.703125 4.28125 -5.703125 L 4.5625 -3.625 C 4.59375 -3.394531 4.625 -3.160156 4.65625 -2.921875 C 4.6875 -2.691406 4.707031 -2.460938 4.71875 -2.234375 C 5.25 -2.296875 5.773438 -2.34375 6.296875 -2.375 C 6.765625 -2.382812 7.226562 -2.378906 7.6875 -2.359375 C 8.15625 -2.335938 8.625 -2.285156 9.09375 -2.203125 C 9.488281 -2.160156 9.890625 -2.09375 10.296875 -2 C 10.160156 -2.15625 10.019531 -2.304688 9.875 -2.453125 C 9.726562 -2.597656 9.566406 -2.734375 9.390625 -2.859375 Z M 9.390625 -2.859375 "/></g></g></g><path stroke-linecap="butt" transform="matrix(0.209283, 0, 0, 0.209283, 1.529484, 4.170168)" fill="none" stroke-linejoin="miter" d="M 129.953381 65.52191 C 130.009376 66.39916 130.14003 67.257745 130.308014 68.060335 C 130.475998 68.84426 130.643982 69.68418 130.774636 70.580095 C 130.97995 71.270696 130.90529 71.942632 130.550657 72.595903 C 130.214689 73.249174 129.673408 73.678466 128.908147 73.88378 C 127.265637 74.294407 125.921765 73.958439 124.876532 72.857211 C 123.849963 71.737318 123.084703 70.300121 122.562086 68.508292 C 122.039469 66.716463 121.684836 65.017958 121.479522 63.450108 C 121.404863 63.450108 121.367533 63.431443 121.367533 63.394113 C 121.367533 63.356784 121.348868 63.338119 121.274208 63.338119 C 119.762353 61.135662 117.914529 59.213179 115.749402 57.570669 C 113.584275 55.909494 111.251164 54.528292 108.768734 53.445729 C 106.15565 52.269841 103.486571 51.355261 100.724168 50.73932 L 104.961097 54.770936 C 106.603607 56.357451 108.264782 57.981296 109.907292 59.642471 C 111.568467 61.284981 113.154983 62.964821 114.666838 64.681991 C 116.178694 66.268506 117.69055 67.873686 119.202406 69.497531 C 120.714262 71.102712 122.132793 72.782551 123.439335 74.518386 C 124.391245 75.675609 125.231165 76.907491 125.921765 78.214034 C 126.593701 79.520576 127.097653 80.883112 127.377627 82.245649 C 127.918908 83.570856 128.310871 84.896063 128.590844 86.239935 C 128.870817 87.565142 128.908147 88.909014 128.702834 90.290215 C 128.646839 92.492672 127.918908 94.47115 126.537707 96.244314 C 125.156505 97.998814 123.439335 99.380015 121.367533 100.425249 C 119.314395 101.451818 117.167933 102.030429 114.965477 102.161084 L 114.666838 102.161084 C 112.931004 102.459722 111.12051 102.515716 109.216691 102.347732 C 107.350203 102.161084 105.577039 101.825116 103.934528 101.339829 C 101.657412 100.873206 99.529615 99.977292 97.532472 98.67075 C 97.327158 99.547999 97.02852 100.387919 96.636558 101.190509 C 96.26326 101.974435 95.721978 102.646371 95.050042 103.206317 C 94.564755 103.691604 93.967479 103.934248 93.239548 103.934248 C 92.511618 103.934248 91.877011 103.691604 91.317065 103.206317 C 90.775783 102.646371 90.253166 101.937105 89.767879 101.07852 C 89.282592 100.219935 88.983954 99.361351 88.8533 98.465436 C 88.573326 98.110803 88.349348 97.700176 88.181364 97.233553 C 88.01338 96.748266 87.845396 96.244314 87.714742 95.759027 C 87.434768 92.86597 87.005476 89.991577 86.4082 87.09852 C 85.829588 84.205462 85.176317 81.349735 84.411057 78.512672 C 84.000429 76.944821 83.664461 75.320976 83.403153 73.678466 C 83.179174 72.017291 82.955195 70.356116 82.749882 68.713606 C 82.544568 67.27641 82.357919 65.764554 82.17127 64.234033 C 82.003286 62.684848 82.059281 61.154327 82.357919 59.642471 C 82.544568 58.671897 83.01119 57.757317 83.739121 56.936062 C 84.467051 56.114807 85.325636 55.648185 86.352205 55.498866 C 87.602752 55.368212 88.703981 55.554861 89.65589 56.040148 C 90.626464 56.50677 91.317065 57.365355 91.727692 58.597237 C 92.828921 61.975582 93.631511 65.428586 94.098133 69.012244 C 94.58342 72.595903 95.42334 76.104901 96.599228 79.557905 C 97.084515 80.789788 97.644462 82.040335 98.279068 83.290883 C 98.932339 84.504101 99.716264 85.605329 100.630843 86.594568 C 101.172125 87.06119 101.713407 87.565142 102.273354 88.125089 C 102.814635 88.685035 103.411912 89.207652 104.027853 89.692939 C 104.643794 89.898253 105.259735 90.047572 105.875677 90.140896 C 106.491618 90.252886 107.107559 90.327545 107.742165 90.402205 C 109.869963 90.607519 112.072419 90.607519 114.349535 90.402205 C 115.021471 90.327545 115.805397 90.215556 116.663981 90.047572 C 117.541231 89.879588 118.175837 89.487625 118.5678 88.853019 C 118.791779 88.647705 118.903768 88.349067 118.903768 87.919775 C 119.165076 87.378493 119.146411 86.687892 118.829108 85.847972 C 118.53047 85.026717 118.269162 84.410776 118.063848 84.000149 C 118.007853 83.720175 117.895864 83.458867 117.746545 83.178894 C 117.615891 82.89892 117.466572 82.618947 117.335917 82.357639 C 116.869295 81.723032 116.384008 81.107091 115.898721 80.49115 C 115.413434 79.856544 114.890817 79.240602 114.349535 78.624661 C 112.76302 76.702178 111.139175 74.817024 109.496665 72.950535 C 107.854155 71.084047 106.136985 69.254888 104.326491 67.481724 C 103.63589 66.716463 102.963954 65.969868 102.273354 65.204607 C 101.582753 64.458012 100.854822 63.730081 100.089562 63.03948 L 98.559041 61.807598 C 96.132606 59.810455 93.836825 57.719988 91.634368 55.554861 C 89.431911 53.389734 87.360109 51.056623 85.45629 48.574193 C 84.541711 47.286316 83.720456 45.886449 83.01119 44.411923 C 82.28326 42.918732 82.13394 41.313552 82.544568 39.596382 C 82.955195 37.879213 83.85111 36.554006 85.232312 35.583432 C 86.594848 34.612858 88.162699 34.20223 89.879869 34.332884 C 91.055756 34.388879 92.17565 34.594193 93.258213 34.911496 C 94.378106 35.210134 95.479335 35.546102 96.599228 35.88207 C 97.084515 35.732751 97.588467 35.770081 98.129749 35.994059 C 100.948147 36.815314 103.63589 37.823218 106.174315 38.999106 C 108.731404 40.156329 111.213834 41.518866 113.64027 43.105381 C 114.797493 43.795982 115.936051 44.523913 117.037279 45.326503 C 118.157172 46.110428 119.221071 46.987678 120.24764 47.958252 L 120.751592 48.462204 C 120.751592 47.584954 120.751592 46.707704 120.751592 45.84912 C 120.751592 44.990535 120.714262 44.113285 120.639602 43.198706 C 120.639602 41.836169 121.162219 40.660281 122.188788 39.671042 C 123.215357 38.663138 124.391245 38.159186 125.716452 38.159186 C 127.228307 38.159186 128.404195 38.663138 129.26278 39.671042 C 130.14003 40.660281 130.643982 41.836169 130.774636 43.198706 C 131.110604 45.625141 131.110604 48.088906 130.755971 50.608666 C 130.420003 53.109761 130.14003 55.573526 129.953381 57.981296 C 129.878721 60.538386 129.878721 63.03948 129.953381 65.52191 Z M 166.38724 99.902632 C 165.976613 99.771978 165.528656 99.044047 165.006039 97.737505 C 164.483422 96.412298 163.923475 94.807118 163.344864 92.884635 C 162.747587 90.962151 162.187641 88.965009 161.665024 86.893206 C 161.161072 84.821404 160.713115 82.97358 160.283822 81.312405 C 159.89186 79.669895 159.611886 78.456677 159.481232 77.691417 L 151.418001 77.822071 C 150.652741 80.901777 149.99947 83.981484 149.439523 87.042525 C 148.916906 90.103567 148.506279 93.220603 148.20764 96.393634 C 148.20764 97.009575 147.909002 97.326878 147.330391 97.326878 C 146.751779 97.326878 146.509136 97.009575 146.56513 96.393634 C 146.845104 93.295262 147.237066 90.196891 147.759683 87.06119 C 148.2823 83.925489 149.010231 80.845783 149.980805 77.822071 L 149.04756 77.822071 C 148.711592 79.035289 148.35696 80.547144 148.002327 82.301644 C 147.666359 84.056143 147.349056 85.773313 147.031753 87.471818 C 146.733114 89.151657 146.471806 90.570189 146.247827 91.708747 C 146.042514 92.82864 145.949189 93.388587 145.949189 93.388587 L 145.333248 98.036144 C 145.127934 100.387919 144.325344 102.067759 142.944142 103.094328 C 141.562941 104.139562 140.051085 104.550189 138.408575 104.344875 C 136.766065 104.139562 135.366198 103.336971 134.22764 101.974435 C 133.089082 100.593233 132.697119 98.689415 133.033087 96.300309 C 133.46238 93.276597 133.929002 90.252886 134.470284 87.210509 C 135.03023 84.168133 135.683501 81.181751 136.430097 78.214034 C 135.963475 78.288693 135.496852 78.344688 134.9929 78.363353 C 134.507613 78.400682 134.059656 78.419347 133.667693 78.419347 C 133.798348 78.083379 133.835677 77.766076 133.761018 77.486103 C 132.099843 77.075475 130.886625 76.198226 130.14003 74.817024 C 129.374769 73.435823 129.169456 71.905302 129.505424 70.225462 C 129.860056 68.526957 130.830631 66.977772 132.398481 65.55924 C 134.003661 64.159374 136.336772 63.207464 139.435144 62.740842 C 140.200404 59.287838 141.021659 55.890829 141.917574 52.549814 C 142.813488 49.208799 143.914716 45.961109 145.202594 42.806743 C 145.8372 41.425541 146.527801 39.93235 147.274396 38.308505 C 148.039656 36.703325 148.991566 35.284793 150.130124 34.071576 C 151.268682 32.858358 152.705878 32.261082 154.404383 32.261082 C 155.300297 32.186422 156.196212 32.429066 157.092127 32.989012 C 157.988041 33.548959 158.641312 34.23956 159.05194 35.060815 C 160.563796 35.135474 161.814343 35.658091 162.803582 36.665995 C 163.811486 37.655234 164.390097 38.980441 164.520752 40.622951 C 164.670071 42.694754 164.85672 44.785221 165.043368 46.875688 C 165.248682 48.984821 165.453996 51.037958 165.65931 53.035101 C 165.733969 53.109761 165.808629 53.128425 165.883288 53.128425 C 165.957948 51.336596 166.032608 49.563432 166.144597 47.808933 C 166.237921 46.054433 166.38724 44.318599 166.592554 42.601429 C 166.592554 42.302791 166.648549 42.937397 166.741873 44.467918 C 166.853863 45.979774 166.984517 47.920922 167.115171 50.291363 C 167.245825 52.661803 167.395144 55.032244 167.525798 57.421349 C 167.656453 59.79179 167.824437 61.770268 168.048415 63.338119 C 170.026893 63.543432 171.576079 64.215368 172.695972 65.353926 C 173.797201 66.511149 174.487801 67.817692 174.74911 69.292218 C 175.029083 70.766744 174.879764 72.24127 174.319817 73.678466 C 173.797201 75.134327 172.807961 76.29155 171.3521 77.187465 C 172.042701 80.211176 172.770632 83.645516 173.517227 87.471818 C 174.282488 91.279454 174.861099 94.732459 175.253062 97.83083 C 175.5517 100.163941 175.365051 101.937105 174.71178 103.150323 C 174.058509 104.36354 173.181259 105.035476 172.117361 105.16613 C 171.053462 105.296785 169.989564 104.923487 168.907 104.027572 C 167.843102 103.150323 167.003182 101.769121 166.38724 99.902632 Z M 151.119363 64.383352 C 151.865958 64.252698 152.836532 64.159374 154.031085 64.122044 C 155.244303 64.084714 156.196212 64.047384 156.886813 63.972725 C 156.756159 63.058145 156.60684 61.788933 156.438856 60.146423 C 156.270872 58.503913 156.046893 56.730749 155.804249 54.845595 C 155.561606 52.941777 155.262968 51.205942 154.908335 49.600762 C 154.08708 52.493819 153.377814 55.088239 152.743208 57.365355 C 152.145932 59.642471 151.60465 61.975582 151.119363 64.383352 Z M 225.349618 70.580095 L 225.349618 70.878733 C 225.218964 72.12928 224.640353 73.08119 223.632449 73.734461 C 222.64321 74.387732 221.560646 74.64904 220.384758 74.518386 C 220.310099 77.056811 220.19811 79.595235 220.030126 82.152325 C 219.862142 84.690749 219.712823 87.229174 219.582168 89.786264 C 219.507509 91.092806 219.395519 92.380683 219.2462 93.612565 C 219.115546 94.844448 218.984892 96.07633 218.835573 97.326878 C 218.704919 98.428106 218.462275 99.697319 218.107642 101.190509 C 217.771674 102.665036 217.043744 103.710269 215.942515 104.344875 C 215.942515 104.40087 215.905186 104.4382 215.849191 104.4382 C 215.569218 104.848827 215.12126 105.24079 214.505319 105.576758 C 213.609404 106.11804 212.71349 106.286024 211.817575 106.024715 C 210.921661 105.782072 210.19373 105.334114 209.633784 104.662178 C 209.167161 104.102232 208.849858 103.448961 208.700539 102.702365 C 208.569885 101.937105 208.476561 101.209174 208.401901 100.537238 C 208.065933 96.468293 207.860619 92.474007 207.804625 88.554381 C 207.580646 84.61609 207.468657 80.659134 207.468657 76.683513 L 207.468657 72.857211 C 207.132689 72.857211 206.796721 72.857211 206.442088 72.857211 C 206.10612 72.857211 205.770152 72.857211 205.434184 72.857211 C 201.421233 72.857211 197.464277 72.950535 193.525986 73.155849 C 193.61931 74.667705 193.675305 76.160896 193.712635 77.635422 C 193.749965 79.109948 193.749965 80.621804 193.749965 82.152325 C 193.749965 83.869494 193.749965 85.586664 193.749965 87.322498 C 193.749965 89.039668 193.581981 90.719508 193.227348 92.362018 L 193.227348 92.660656 C 193.152688 93.089949 193.134023 93.519241 193.134023 93.967198 C 193.134023 94.415156 193.096694 94.844448 193.022034 95.255075 C 192.966039 96.15099 192.798055 97.121564 192.555412 98.166798 C 192.312768 99.193367 191.883476 100.033286 191.267535 100.723887 C 189.960993 102.049094 188.486467 102.739695 186.825292 102.79569 C 185.182782 102.870349 183.876239 101.9931 182.92433 100.20127 C 182.775011 99.939962 182.644357 99.678654 182.532368 99.454675 C 182.439043 99.193367 182.327054 98.932058 182.177735 98.67075 C 181.916426 98.67075 181.617788 98.55876 181.300485 98.353447 C 181.001847 98.148133 180.852528 97.86816 180.852528 97.532192 C 180.572554 93.687225 180.348576 89.823593 180.217922 85.978627 C 180.087267 82.114995 179.956613 78.288693 179.825959 74.518386 L 178.780725 74.910349 C 177.604837 75.395636 176.503609 75.358306 175.458375 74.761029 C 174.431807 74.182418 173.741206 73.305168 173.386573 72.147945 C 173.050605 70.972057 173.293249 69.814834 174.114504 68.713606 C 174.543796 68.153659 175.103743 67.575048 175.775679 66.940442 C 176.204971 66.268506 176.727588 65.727224 177.380859 65.316597 C 178.03413 64.887304 178.724731 64.551336 179.489991 64.271363 C 179.415331 62.218225 179.378002 60.127758 179.340672 58.018626 C 179.303342 55.928159 179.228683 53.800361 179.079364 51.672564 C 179.023369 49.264794 178.930044 46.838359 178.83672 44.355929 C 178.724731 41.873499 178.724731 39.428398 178.780725 37.020628 C 178.780725 36.871309 178.83672 36.796649 178.930044 36.796649 C 179.042034 36.796649 179.079364 36.871309 179.079364 37.020628 C 179.63931 39.503058 180.012608 42.004153 180.217922 44.561242 C 180.423235 47.099667 180.665879 49.638092 180.945852 52.195181 C 181.151166 54.117664 181.35648 56.058813 181.561793 58.018626 C 181.767107 59.997104 181.953756 61.938252 182.08441 63.8794 C 182.289724 63.655422 182.383049 63.543432 182.383049 63.543432 L 182.588362 63.543432 C 182.513703 59.567811 182.420378 55.573526 182.289724 51.597905 C 182.15907 47.603619 181.804437 43.627998 181.263155 39.689707 C 181.113836 38.532484 181.431139 37.48725 182.177735 36.516676 C 182.942995 35.546102 183.876239 34.986155 184.977468 34.855501 C 186.078696 34.706182 187.142595 34.986155 188.169163 35.714086 C 189.195732 36.442016 189.755679 37.393926 189.830338 38.569814 L 189.830338 38.756462 C 190.184971 38.756462 190.558269 38.868452 190.968897 39.09243 C 191.510178 39.297744 191.883476 39.764366 192.08879 40.529627 C 192.294104 41.294887 192.443423 41.910828 192.518082 42.396115 L 192.81672 47.34231 C 192.966039 49.694086 193.115359 52.045862 193.283343 54.416303 C 193.451327 56.786743 193.600646 59.138519 193.749965 61.47163 L 193.955278 61.47163 C 195.747108 61.210322 197.538937 60.986343 199.349431 60.818359 C 201.17859 60.650375 203.007749 60.501056 204.799578 60.351737 C 205.359524 60.277077 205.900806 60.202418 206.442088 60.146423 C 207.002034 60.071763 207.543316 60.015769 208.103263 59.941109 C 208.028603 57.813312 207.935279 55.66685 207.804625 53.539053 C 207.67397 51.411256 207.524651 49.264794 207.375332 47.136997 C 207.095359 45.345168 206.98337 43.516009 207.020699 41.61219 C 207.058029 39.708372 207.935279 38.177851 209.633784 37.020628 C 211.238964 35.975394 212.956133 35.546102 214.803957 35.695421 C 216.670446 35.826075 218.126307 36.777984 219.152876 38.569814 C 220.12345 40.137664 220.646067 41.985488 220.702062 44.075955 C 220.776721 46.185087 220.851381 48.126236 220.907375 49.93673 C 220.982035 50.067384 221.0007 50.216703 220.96337 50.384687 C 220.92604 50.552671 220.907375 50.720655 220.907375 50.869974 C 221.03803 53.277745 221.03803 55.70418 220.907375 58.167945 L 220.907375 60.445061 C 221.336668 60.538386 221.747295 60.613045 222.139258 60.725034 C 222.56855 60.818359 223.016508 60.949013 223.48313 61.079667 C 224.864331 61.490295 225.816241 62.292885 226.376187 63.468773 C 226.936134 64.625996 227.122783 65.857878 226.936134 67.183085 C 226.76815 68.489627 226.245533 69.628186 225.349618 70.580095 Z M 197.258963 70.057478 C 196.699017 70.057478 196.13907 70.076143 195.541794 70.094808 C 194.981847 70.132138 194.421901 70.150802 193.861954 70.150802 C 193.7313 70.430776 193.581981 70.617425 193.432662 70.673419 L 193.432662 71.084047 C 197.501607 70.673419 201.495893 70.48677 205.434184 70.48677 C 205.770152 70.542765 206.124785 70.580095 206.498083 70.580095 C 206.87138 70.580095 207.207348 70.580095 207.468657 70.580095 L 207.468657 70.057478 C 205.751487 69.982818 204.052982 69.926824 202.354478 69.908159 C 200.674638 69.870829 198.976133 69.908159 197.258963 70.057478 Z M 224.304385 43.422684 C 224.099071 42.732083 224.173731 42.041483 224.509698 41.369547 C 224.864331 40.678946 225.200299 40.081669 225.536267 39.596382 C 226.226868 38.569814 227.085453 37.711229 228.130687 37.020628 C 228.41066 36.740655 228.597309 36.572671 228.746628 36.498011 C 230.109165 35.546102 231.583691 34.818171 233.132876 34.332884 C 234.682062 33.847597 236.249912 33.810267 237.836428 34.220895 C 239.217629 34.575528 240.412182 35.154139 241.438751 35.938065 C 242.483985 36.740655 243.249245 37.823218 243.715867 39.185755 C 243.939846 39.727037 243.902516 40.249653 243.603878 40.73494 C 243.342569 41.220228 243.006602 41.630855 242.577309 41.966823 C 240.86014 43.21737 239.030981 44.038625 237.108497 44.467918 C 236.492556 45.158519 235.671301 45.643806 234.644732 45.942444 C 233.618163 46.259747 232.610259 46.409066 231.639685 46.409066 C 230.81843 46.409066 230.01584 46.334407 229.21325 46.203752 C 228.429325 46.073098 227.6454 45.867784 226.898804 45.587811 C 226.413517 45.438492 225.8909 45.177184 225.330954 44.766556 C 224.789672 44.337264 224.453704 43.907971 224.304385 43.422684 Z M 231.229058 45.905114 C 232.740914 45.905114 233.730153 45.755795 234.21544 45.438492 C 234.700727 45.121189 234.906041 44.97187 234.831381 44.97187 C 234.21544 45.102524 233.524839 45.195848 232.778243 45.270508 C 232.012983 45.345168 231.061074 45.270508 229.903851 45.065194 C 228.37333 44.729226 227.346761 44.05729 226.824144 43.030722 C 226.320193 41.985488 226.301528 40.865595 226.80548 39.689707 C 226.301528 40.249653 225.85357 40.902924 225.442943 41.668185 C 225.237629 42.153472 225.12564 42.582764 225.12564 42.974727 C 225.12564 43.348025 225.349618 43.702658 225.760246 44.038625 C 226.450847 44.579907 227.104118 44.97187 227.720059 45.177184 C 228.746628 45.513152 229.922516 45.755795 231.229058 45.905114 Z M 241.980033 97.532192 C 241.494746 98.353447 240.766815 98.932058 239.796241 99.286691 C 239.8709 99.622659 239.833571 99.995957 239.684252 100.369254 C 239.553597 100.742552 239.236294 101.04119 238.769672 101.227839 C 237.519125 101.862445 236.193918 102.030429 234.794051 101.769121 C 233.37552 101.470483 232.199632 100.854542 231.229058 99.902632 L 231.023744 99.603994 C 230.538457 99.39868 230.01584 99.081377 229.474558 98.67075 C 228.37333 97.644181 227.701394 96.412298 227.458751 94.956437 C 227.216107 93.500576 226.992128 92.044715 226.80548 90.588854 C 226.301528 86.743887 225.946895 82.917585 225.685586 79.109948 C 225.442943 75.264981 225.368283 71.420015 225.442943 67.575048 C 225.442943 65.708559 225.442943 63.842071 225.442943 61.956917 C 225.442943 60.053099 225.536267 58.18661 225.760246 56.338786 C 225.8909 55.368212 226.133544 54.416303 226.469512 53.483058 C 226.824144 52.568479 227.309432 51.784554 227.925373 51.168612 C 228.074692 50.963299 228.205346 50.77665 228.336 50.608666 C 228.466655 50.422017 228.597309 50.272698 228.746628 50.142044 C 229.511888 49.638092 230.501127 49.040815 231.69568 48.312885 C 232.890233 47.603619 234.084786 47.192991 235.242009 47.081002 C 236.417896 46.987678 237.276481 47.622284 237.836428 49.003485 C 238.172396 48.928826 238.508364 49.003485 238.844332 49.208799 C 239.198965 49.395448 239.404278 49.750081 239.478938 50.235368 C 239.478938 52.176516 239.441608 54.06167 239.385613 55.928159 C 239.310954 57.775982 239.273624 59.679801 239.273624 61.602284 C 239.273624 63.450108 239.310954 65.335262 239.385613 67.220415 C 239.441608 69.105569 239.516268 71.009387 239.609592 72.950535 C 239.609592 73.305168 239.628257 73.697131 239.646922 74.163753 C 239.684252 74.593046 239.740246 75.059668 239.796241 75.52629 C 239.8709 75.45163 239.964225 75.731604 240.057549 76.347545 C 240.150874 76.982151 240.244198 77.579427 240.300193 78.176704 C 240.374852 78.755315 240.449512 79.053954 240.505507 79.053954 C 240.449512 76.571524 240.393517 73.80912 240.356188 70.785409 C 240.318858 67.761697 240.318858 64.737985 240.356188 61.714273 C 240.393517 58.671897 240.486842 55.946823 240.636161 53.539053 C 240.636161 53.408399 240.74815 53.315074 240.990794 53.277745 C 241.233437 53.25908 241.345427 53.277745 241.345427 53.333739 C 241.140113 60.70637 241.233437 68.04167 241.644065 75.395636 C 242.073357 82.730936 242.745293 90.066237 243.715867 97.420202 C 243.771862 97.905489 243.529218 98.166798 242.987937 98.204128 C 242.446655 98.241457 242.110687 98.017479 241.980033 97.532192 Z M 230.501127 55.405542 C 229.754532 57.738653 229.325239 60.202418 229.21325 62.796837 C 229.119926 65.353926 228.989271 67.855021 228.858617 70.281457 L 228.858617 71.308025 C 228.858617 71.382685 228.858617 71.420015 228.858617 71.420015 C 228.858617 71.420015 228.858617 71.43868 228.858617 71.513339 C 228.989271 72.745222 229.13859 73.977104 229.269245 75.227652 C 229.399899 76.459534 229.530553 77.710082 229.661207 78.941964 L 229.997175 78.941964 C 229.997175 76.590188 229.97851 74.275742 229.941181 71.961296 C 229.922516 69.665515 229.922516 67.351069 229.997175 64.999294 C 229.997175 63.207464 230.0905 61.39697 230.258484 59.586476 C 230.426468 57.757317 230.781101 56.021483 231.341047 54.378973 L 231.229058 54.378973 C 230.743771 54.714941 230.501127 55.050909 230.501127 55.405542 Z M 298.142678 97.83083 C 297.713385 99.268026 296.89213 100.331925 295.641583 100.985196 C 294.4097 101.638467 293.047164 102.030429 291.535308 102.161084 C 290.023452 102.310403 288.60492 102.403727 287.298378 102.497052 C 285.170581 102.571711 283.024119 102.478387 280.896322 102.235743 C 278.74986 101.9931 276.622063 101.825116 274.494266 101.769121 C 271.526549 101.638467 268.596162 101.638467 265.665774 101.806451 C 262.735387 101.974435 259.84233 102.235743 256.949272 102.590376 C 256.184012 103.075663 255.250767 103.299642 254.149539 103.299642 C 253.589592 103.299642 253.216295 103.262312 253.010981 103.206317 C 252.32038 103.262312 251.648444 103.374301 250.995173 103.504955 C 250.341902 103.654275 249.707296 103.803594 249.07269 103.934248 C 248.120781 104.064902 247.224866 103.915583 246.403611 103.504955 C 245.582356 103.094328 245.022409 102.422392 244.742436 101.470483 C 244.667776 101.302499 244.649112 101.134515 244.649112 100.929201 C 244.238484 100.31326 244.03317 99.622659 244.03317 98.857399 C 244.03317 97.700176 244.406468 96.785596 245.171728 96.094995 C 245.918324 95.404395 246.851568 95.031097 247.952797 94.956437 C 248.102116 94.956437 248.19544 94.919107 248.2701 94.825783 C 248.19544 91.746077 248.046121 88.647705 247.784813 85.549334 C 247.560834 82.450963 247.299526 79.352592 247.038217 76.25422 C 245.918324 75.918252 245.003744 75.376971 244.294479 74.61171 C 243.566548 73.865115 243.211915 72.819881 243.211915 71.513339 C 243.211915 70.468105 243.473224 69.572191 244.03317 68.806931 C 244.593117 68.060335 245.321047 67.481724 246.198297 67.071096 C 246.198297 66.996436 246.179632 66.940442 246.160967 66.903112 C 246.123638 66.865782 246.104973 66.847117 246.104973 66.847117 C 245.880994 64.252698 245.67568 61.658279 245.470367 59.082524 C 245.265053 56.488105 245.022409 53.931016 244.742436 51.373926 C 244.275814 51.093953 243.809192 50.795315 243.361234 50.459347 C 242.894612 50.104714 242.46532 49.787411 242.073357 49.507437 C 241.382756 48.816837 240.692156 48.032911 240.001555 47.136997 C 239.310954 46.241082 238.862997 45.289173 238.657683 44.262604 C 238.452369 43.21737 238.676348 42.209467 239.366949 41.257557 C 240.412182 39.876356 241.737389 38.999106 243.361234 38.588478 C 244.966415 38.159186 246.571595 37.916543 248.176775 37.823218 C 251.405801 37.823218 254.448177 38.345835 257.341235 39.391069 C 260.439606 40.417637 263.481983 41.724179 266.4497 43.32936 C 267.345614 43.795982 268.78281 44.654567 270.761288 45.905114 C 272.758431 47.136997 274.979553 48.667517 277.405988 50.459347 C 279.869753 52.251176 282.240194 54.154994 284.55464 56.189467 C 286.869086 58.205275 288.791569 60.221083 290.340755 62.255555 C 291.889941 64.290028 292.785855 66.231176 293.009834 68.060335 C 293.271142 69.870829 292.524547 71.43868 290.807377 72.745222 C 290.116776 73.305168 289.388846 73.77179 288.623585 74.163753 C 287.87699 74.537051 287.055735 74.68637 286.15982 74.61171 C 284.983932 74.462391 283.845374 74.313072 282.725481 74.182418 C 281.642918 74.051764 280.411035 73.92111 279.029833 73.790455 L 274.083638 73.473152 C 274.419606 73.622471 274.69958 73.77179 274.942223 73.939774 C 275.203532 74.107758 275.46484 74.257078 275.726148 74.387732 C 276.976696 75.134327 278.171249 75.918252 279.328472 76.739508 C 280.504359 77.523433 281.642918 78.363353 282.762811 79.259267 C 287.503692 82.97358 291.740621 87.02386 295.473599 91.428774 C 296.425508 92.324688 297.190768 93.276597 297.788045 94.321831 C 298.366656 95.3484 298.497311 96.524288 298.142678 97.83083 Z M 276.155441 63.15147 C 275.5395 62.460869 274.886229 61.807598 274.232957 61.172992 C 273.579686 60.55705 272.90775 59.941109 272.21715 59.306503 C 271.526549 58.765221 270.929272 58.261269 270.406656 57.775982 C 269.902704 57.290695 269.380087 56.880068 268.82014 56.5441 C 267.364279 55.554861 265.871088 54.640281 264.303238 53.781697 C 262.754052 52.941777 261.298191 52.269841 259.935654 51.765889 C 259.450367 51.635234 258.983745 51.485915 258.535787 51.317931 C 258.08783 51.149947 257.639873 51.037958 257.154586 50.963299 L 255.474746 50.645995 C 255.418751 50.645995 255.362757 50.645995 255.325427 50.645995 C 255.288097 50.645995 255.250767 50.645995 255.176108 50.645995 C 255.661395 52.848452 256.053358 55.069574 256.370661 57.328025 C 256.687964 59.549147 256.967937 61.807598 257.24791 64.084714 C 260.626255 63.580762 263.985934 63.282124 267.364279 63.15147 C 270.331996 63.07681 273.262383 63.07681 276.155441 63.15147 Z M 281.717577 90.290215 C 280.149727 88.909014 278.488552 87.621137 276.752717 86.389254 C 275.035548 85.138707 273.262383 84.000149 271.395895 82.954915 C 269.604065 82.003006 267.737577 81.051096 265.759099 80.136517 C 263.799286 79.184608 261.820808 78.456677 259.823665 77.915395 C 259.543691 77.766076 259.282383 77.691417 259.00241 77.691417 L 260.252957 86.893206 C 260.383611 87.919775 260.514266 88.946344 260.64492 89.991577 C 260.775574 91.018146 260.887563 92.044715 260.943558 93.089949 C 263.313999 92.809975 265.647109 92.604661 267.98022 92.455342 C 270.052023 92.399348 272.123825 92.418013 274.195628 92.511337 C 276.248765 92.604661 278.320568 92.847305 280.39237 93.201938 C 282.165534 93.388587 283.957364 93.70589 285.767858 94.135182 C 285.133251 93.444581 284.498645 92.772645 283.845374 92.10071 C 283.192103 91.447438 282.482838 90.850162 281.717577 90.290215 Z M 281.717577 90.290215 " stroke="#100a09" stroke-width="8.26144" stroke-opacity="1" stroke-miterlimit="4"/><g fill="#b2d12e" fill-opacity="1"><g transform="translate(18.373523, 25.726352)"><g><path d="M 10.34375 -7.84375 C 10.363281 -7.65625 10.390625 -7.476562 10.421875 -7.3125 C 10.460938 -7.144531 10.5 -6.96875 10.53125 -6.78125 C 10.570312 -6.632812 10.554688 -6.492188 10.484375 -6.359375 C 10.410156 -6.222656 10.296875 -6.132812 10.140625 -6.09375 C 9.785156 -6.007812 9.5 -6.082031 9.28125 -6.3125 C 9.070312 -6.539062 8.910156 -6.84375 8.796875 -7.21875 C 8.691406 -7.59375 8.617188 -7.945312 8.578125 -8.28125 C 8.566406 -8.28125 8.5625 -8.28125 8.5625 -8.28125 C 8.5625 -8.289062 8.550781 -8.296875 8.53125 -8.296875 C 8.21875 -8.753906 7.832031 -9.15625 7.375 -9.5 C 6.925781 -9.851562 6.441406 -10.144531 5.921875 -10.375 C 5.367188 -10.613281 4.804688 -10.800781 4.234375 -10.9375 L 5.125 -10.09375 C 5.46875 -9.757812 5.8125 -9.421875 6.15625 -9.078125 C 6.5 -8.734375 6.832031 -8.378906 7.15625 -8.015625 C 7.46875 -7.679688 7.78125 -7.34375 8.09375 -7 C 8.414062 -6.664062 8.710938 -6.320312 8.984375 -5.96875 C 9.191406 -5.71875 9.363281 -5.457031 9.5 -5.1875 C 9.644531 -4.914062 9.75 -4.632812 9.8125 -4.34375 C 9.925781 -4.070312 10.007812 -3.796875 10.0625 -3.515625 C 10.125 -3.234375 10.132812 -2.945312 10.09375 -2.65625 C 10.070312 -2.195312 9.914062 -1.78125 9.625 -1.40625 C 9.34375 -1.039062 8.984375 -0.75 8.546875 -0.53125 C 8.117188 -0.320312 7.675781 -0.203125 7.21875 -0.171875 L 7.15625 -0.171875 C 6.789062 -0.117188 6.410156 -0.109375 6.015625 -0.140625 C 5.617188 -0.171875 5.25 -0.238281 4.90625 -0.34375 C 4.425781 -0.445312 3.976562 -0.632812 3.5625 -0.90625 C 3.519531 -0.71875 3.457031 -0.539062 3.375 -0.375 C 3.300781 -0.207031 3.191406 -0.0664062 3.046875 0.046875 C 2.941406 0.140625 2.8125 0.1875 2.65625 0.1875 C 2.507812 0.1875 2.378906 0.140625 2.265625 0.046875 C 2.148438 -0.0664062 2.039062 -0.210938 1.9375 -0.390625 C 1.84375 -0.578125 1.78125 -0.765625 1.75 -0.953125 C 1.6875 -1.023438 1.640625 -1.109375 1.609375 -1.203125 C 1.578125 -1.304688 1.546875 -1.410156 1.515625 -1.515625 C 1.453125 -2.117188 1.359375 -2.722656 1.234375 -3.328125 C 1.117188 -3.929688 0.984375 -4.53125 0.828125 -5.125 C 0.734375 -5.457031 0.660156 -5.796875 0.609375 -6.140625 C 0.566406 -6.484375 0.519531 -6.828125 0.46875 -7.171875 C 0.425781 -7.472656 0.382812 -7.785156 0.34375 -8.109375 C 0.3125 -8.429688 0.328125 -8.753906 0.390625 -9.078125 C 0.429688 -9.273438 0.523438 -9.457031 0.671875 -9.625 C 0.828125 -9.800781 1.015625 -9.90625 1.234375 -9.9375 C 1.492188 -9.96875 1.722656 -9.929688 1.921875 -9.828125 C 2.117188 -9.734375 2.265625 -9.554688 2.359375 -9.296875 C 2.585938 -8.585938 2.75 -7.859375 2.84375 -7.109375 C 2.945312 -6.359375 3.125 -5.625 3.375 -4.90625 C 3.46875 -4.644531 3.582031 -4.382812 3.71875 -4.125 C 3.863281 -3.863281 4.03125 -3.632812 4.21875 -3.4375 C 4.332031 -3.332031 4.445312 -3.222656 4.5625 -3.109375 C 4.675781 -2.992188 4.796875 -2.882812 4.921875 -2.78125 C 5.054688 -2.738281 5.1875 -2.707031 5.3125 -2.6875 C 5.445312 -2.664062 5.578125 -2.648438 5.703125 -2.640625 C 6.148438 -2.597656 6.613281 -2.597656 7.09375 -2.640625 C 7.226562 -2.648438 7.382812 -2.671875 7.5625 -2.703125 C 7.75 -2.742188 7.882812 -2.828125 7.96875 -2.953125 C 8.007812 -3.003906 8.03125 -3.070312 8.03125 -3.15625 C 8.09375 -3.269531 8.09375 -3.410156 8.03125 -3.578125 C 7.96875 -3.753906 7.910156 -3.882812 7.859375 -3.96875 C 7.847656 -4.03125 7.828125 -4.085938 7.796875 -4.140625 C 7.765625 -4.203125 7.738281 -4.265625 7.71875 -4.328125 C 7.613281 -4.453125 7.507812 -4.578125 7.40625 -4.703125 C 7.3125 -4.835938 7.207031 -4.96875 7.09375 -5.09375 C 6.757812 -5.5 6.414062 -5.894531 6.0625 -6.28125 C 5.71875 -6.675781 5.359375 -7.0625 4.984375 -7.4375 C 4.847656 -7.59375 4.707031 -7.75 4.5625 -7.90625 C 4.414062 -8.0625 4.265625 -8.210938 4.109375 -8.359375 L 3.78125 -8.625 C 3.28125 -9.039062 2.796875 -9.472656 2.328125 -9.921875 C 1.867188 -10.378906 1.4375 -10.867188 1.03125 -11.390625 C 0.84375 -11.660156 0.671875 -11.953125 0.515625 -12.265625 C 0.367188 -12.578125 0.34375 -12.910156 0.4375 -13.265625 C 0.519531 -13.628906 0.703125 -13.910156 0.984375 -14.109375 C 1.273438 -14.304688 1.601562 -14.394531 1.96875 -14.375 C 2.207031 -14.351562 2.441406 -14.3125 2.671875 -14.25 C 2.910156 -14.1875 3.144531 -14.117188 3.375 -14.046875 C 3.46875 -14.078125 3.570312 -14.070312 3.6875 -14.03125 C 4.28125 -13.851562 4.84375 -13.640625 5.375 -13.390625 C 5.914062 -13.148438 6.4375 -12.863281 6.9375 -12.53125 C 7.175781 -12.382812 7.410156 -12.226562 7.640625 -12.0625 C 7.878906 -11.894531 8.101562 -11.710938 8.3125 -11.515625 L 8.421875 -11.40625 C 8.421875 -11.59375 8.421875 -11.773438 8.421875 -11.953125 C 8.421875 -12.140625 8.414062 -12.328125 8.40625 -12.515625 C 8.40625 -12.796875 8.507812 -13.039062 8.71875 -13.25 C 8.9375 -13.46875 9.1875 -13.578125 9.46875 -13.578125 C 9.78125 -13.578125 10.023438 -13.46875 10.203125 -13.25 C 10.390625 -13.039062 10.5 -12.796875 10.53125 -12.515625 C 10.59375 -12.003906 10.585938 -11.484375 10.515625 -10.953125 C 10.453125 -10.429688 10.394531 -9.921875 10.34375 -9.421875 C 10.332031 -8.890625 10.332031 -8.363281 10.34375 -7.84375 Z M 10.34375 -7.84375 "/></g></g></g><g fill="#b2d12e" fill-opacity="1"><g transform="translate(28.442927, 25.726352)"><g><path d="M 7.90625 -0.640625 C 7.820312 -0.671875 7.722656 -0.820312 7.609375 -1.09375 C 7.503906 -1.375 7.390625 -1.710938 7.265625 -2.109375 C 7.148438 -2.515625 7.035156 -2.929688 6.921875 -3.359375 C 6.816406 -3.796875 6.71875 -4.1875 6.625 -4.53125 C 6.539062 -4.882812 6.488281 -5.140625 6.46875 -5.296875 L 4.78125 -5.265625 C 4.613281 -4.617188 4.472656 -3.972656 4.359375 -3.328125 C 4.242188 -2.691406 4.160156 -2.046875 4.109375 -1.390625 C 4.109375 -1.253906 4.046875 -1.1875 3.921875 -1.1875 C 3.796875 -1.1875 3.742188 -1.253906 3.765625 -1.390625 C 3.816406 -2.035156 3.894531 -2.6875 4 -3.34375 C 4.113281 -4 4.269531 -4.640625 4.46875 -5.265625 L 4.28125 -5.265625 C 4.207031 -5.015625 4.132812 -4.703125 4.0625 -4.328125 C 3.988281 -3.960938 3.921875 -3.601562 3.859375 -3.25 C 3.796875 -2.894531 3.738281 -2.597656 3.6875 -2.359375 C 3.644531 -2.128906 3.625 -2.015625 3.625 -2.015625 L 3.5 -1.03125 C 3.457031 -0.539062 3.289062 -0.191406 3 0.015625 C 2.71875 0.234375 2.398438 0.320312 2.046875 0.28125 C 1.703125 0.238281 1.410156 0.078125 1.171875 -0.203125 C 0.941406 -0.492188 0.859375 -0.894531 0.921875 -1.40625 C 1.015625 -2.039062 1.117188 -2.671875 1.234375 -3.296875 C 1.347656 -3.929688 1.484375 -4.5625 1.640625 -5.1875 C 1.535156 -5.175781 1.429688 -5.164062 1.328125 -5.15625 C 1.234375 -5.144531 1.144531 -5.140625 1.0625 -5.140625 C 1.09375 -5.210938 1.097656 -5.28125 1.078125 -5.34375 C 0.734375 -5.425781 0.484375 -5.609375 0.328125 -5.890625 C 0.171875 -6.179688 0.125 -6.503906 0.1875 -6.859375 C 0.257812 -7.210938 0.460938 -7.535156 0.796875 -7.828125 C 1.128906 -8.128906 1.617188 -8.328125 2.265625 -8.421875 C 2.421875 -9.148438 2.59375 -9.863281 2.78125 -10.5625 C 2.96875 -11.257812 3.203125 -11.9375 3.484375 -12.59375 C 3.609375 -12.882812 3.75 -13.195312 3.90625 -13.53125 C 4.070312 -13.875 4.269531 -14.171875 4.5 -14.421875 C 4.738281 -14.671875 5.039062 -14.796875 5.40625 -14.796875 C 5.59375 -14.816406 5.78125 -14.769531 5.96875 -14.65625 C 6.15625 -14.539062 6.289062 -14.394531 6.375 -14.21875 C 6.6875 -14.207031 6.945312 -14.097656 7.15625 -13.890625 C 7.375 -13.679688 7.492188 -13.398438 7.515625 -13.046875 C 7.546875 -12.617188 7.582031 -12.179688 7.625 -11.734375 C 7.664062 -11.296875 7.707031 -10.867188 7.75 -10.453125 C 7.769531 -10.441406 7.785156 -10.4375 7.796875 -10.4375 C 7.816406 -10.8125 7.835938 -11.179688 7.859375 -11.546875 C 7.878906 -11.910156 7.910156 -12.273438 7.953125 -12.640625 C 7.953125 -12.703125 7.960938 -12.570312 7.984375 -12.25 C 8.003906 -11.9375 8.03125 -11.53125 8.0625 -11.03125 C 8.09375 -10.53125 8.117188 -10.03125 8.140625 -9.53125 C 8.171875 -9.039062 8.207031 -8.628906 8.25 -8.296875 C 8.664062 -8.253906 8.988281 -8.113281 9.21875 -7.875 C 9.457031 -7.632812 9.601562 -7.359375 9.65625 -7.046875 C 9.71875 -6.742188 9.691406 -6.441406 9.578125 -6.140625 C 9.460938 -5.835938 9.253906 -5.59375 8.953125 -5.40625 C 9.085938 -4.769531 9.234375 -4.050781 9.390625 -3.25 C 9.554688 -2.445312 9.679688 -1.722656 9.765625 -1.078125 C 9.828125 -0.585938 9.785156 -0.21875 9.640625 0.03125 C 9.503906 0.28125 9.320312 0.421875 9.09375 0.453125 C 8.875 0.484375 8.65625 0.40625 8.4375 0.21875 C 8.21875 0.03125 8.039062 -0.253906 7.90625 -0.640625 Z M 4.703125 -8.078125 C 4.867188 -8.109375 5.078125 -8.125 5.328125 -8.125 C 5.578125 -8.132812 5.773438 -8.148438 5.921875 -8.171875 C 5.890625 -8.359375 5.851562 -8.625 5.8125 -8.96875 C 5.78125 -9.3125 5.738281 -9.679688 5.6875 -10.078125 C 5.644531 -10.472656 5.585938 -10.835938 5.515625 -11.171875 C 5.335938 -10.566406 5.179688 -10.023438 5.046875 -9.546875 C 4.921875 -9.078125 4.804688 -8.585938 4.703125 -8.078125 Z M 4.703125 -8.078125 "/></g></g></g><g fill="#b2d12e" fill-opacity="1"><g transform="translate(37.647989, 25.726352)"><g><path d="M 11.046875 -6.78125 L 11.046875 -6.71875 C 11.015625 -6.457031 10.894531 -6.257812 10.6875 -6.125 C 10.476562 -5.988281 10.25 -5.9375 10 -5.96875 C 9.988281 -5.4375 9.960938 -4.898438 9.921875 -4.359375 C 9.890625 -3.828125 9.859375 -3.296875 9.828125 -2.765625 C 9.816406 -2.492188 9.796875 -2.226562 9.765625 -1.96875 C 9.734375 -1.707031 9.707031 -1.445312 9.6875 -1.1875 C 9.65625 -0.957031 9.601562 -0.6875 9.53125 -0.375 C 9.457031 -0.0625 9.304688 0.15625 9.078125 0.28125 C 9.078125 0.289062 9.066406 0.296875 9.046875 0.296875 C 8.992188 0.390625 8.898438 0.472656 8.765625 0.546875 C 8.585938 0.660156 8.40625 0.691406 8.21875 0.640625 C 8.03125 0.585938 7.875 0.488281 7.75 0.34375 C 7.65625 0.226562 7.59375 0.09375 7.5625 -0.0625 C 7.53125 -0.21875 7.507812 -0.367188 7.5 -0.515625 C 7.425781 -1.367188 7.382812 -2.207031 7.375 -3.03125 C 7.320312 -3.84375 7.296875 -4.671875 7.296875 -5.515625 L 7.296875 -6.3125 C 7.234375 -6.3125 7.164062 -6.3125 7.09375 -6.3125 C 7.019531 -6.3125 6.945312 -6.3125 6.875 -6.3125 C 6.039062 -6.3125 5.210938 -6.289062 4.390625 -6.25 C 4.398438 -5.925781 4.410156 -5.609375 4.421875 -5.296875 C 4.429688 -4.992188 4.4375 -4.679688 4.4375 -4.359375 C 4.4375 -4.003906 4.4375 -3.644531 4.4375 -3.28125 C 4.4375 -2.925781 4.398438 -2.570312 4.328125 -2.21875 L 4.328125 -2.15625 C 4.304688 -2.070312 4.296875 -1.984375 4.296875 -1.890625 C 4.296875 -1.796875 4.289062 -1.707031 4.28125 -1.625 C 4.257812 -1.4375 4.222656 -1.234375 4.171875 -1.015625 C 4.128906 -0.796875 4.039062 -0.613281 3.90625 -0.46875 C 3.632812 -0.195312 3.328125 -0.0507812 2.984375 -0.03125 C 2.640625 -0.0195312 2.363281 -0.203125 2.15625 -0.578125 C 2.132812 -0.640625 2.109375 -0.695312 2.078125 -0.75 C 2.054688 -0.800781 2.035156 -0.851562 2.015625 -0.90625 C 1.953125 -0.90625 1.890625 -0.925781 1.828125 -0.96875 C 1.765625 -1.007812 1.734375 -1.066406 1.734375 -1.140625 C 1.671875 -1.953125 1.625 -2.757812 1.59375 -3.5625 C 1.570312 -4.375 1.546875 -5.175781 1.515625 -5.96875 L 1.296875 -5.875 C 1.046875 -5.769531 0.8125 -5.78125 0.59375 -5.90625 C 0.382812 -6.03125 0.242188 -6.210938 0.171875 -6.453125 C 0.0976562 -6.703125 0.148438 -6.941406 0.328125 -7.171875 C 0.410156 -7.285156 0.523438 -7.410156 0.671875 -7.546875 C 0.753906 -7.679688 0.863281 -7.789062 1 -7.875 C 1.132812 -7.96875 1.285156 -8.046875 1.453125 -8.109375 C 1.429688 -8.535156 1.414062 -8.96875 1.40625 -9.40625 C 1.40625 -9.84375 1.390625 -10.285156 1.359375 -10.734375 C 1.347656 -11.242188 1.332031 -11.753906 1.3125 -12.265625 C 1.289062 -12.785156 1.285156 -13.300781 1.296875 -13.8125 C 1.296875 -13.84375 1.304688 -13.859375 1.328125 -13.859375 C 1.347656 -13.859375 1.359375 -13.84375 1.359375 -13.8125 C 1.472656 -13.289062 1.550781 -12.765625 1.59375 -12.234375 C 1.632812 -11.703125 1.6875 -11.164062 1.75 -10.625 C 1.789062 -10.226562 1.832031 -9.820312 1.875 -9.40625 C 1.914062 -9 1.953125 -8.59375 1.984375 -8.1875 C 2.023438 -8.226562 2.046875 -8.25 2.046875 -8.25 L 2.09375 -8.25 C 2.082031 -9.09375 2.0625 -9.929688 2.03125 -10.765625 C 2 -11.597656 1.925781 -12.425781 1.8125 -13.25 C 1.78125 -13.488281 1.84375 -13.707031 2 -13.90625 C 2.164062 -14.113281 2.363281 -14.234375 2.59375 -14.265625 C 2.820312 -14.296875 3.046875 -14.234375 3.265625 -14.078125 C 3.484375 -13.929688 3.597656 -13.734375 3.609375 -13.484375 L 3.609375 -13.4375 C 3.679688 -13.4375 3.757812 -13.414062 3.84375 -13.375 C 3.957031 -13.332031 4.035156 -13.226562 4.078125 -13.0625 C 4.128906 -12.90625 4.160156 -12.78125 4.171875 -12.6875 L 4.234375 -11.640625 C 4.265625 -11.148438 4.296875 -10.65625 4.328125 -10.15625 C 4.367188 -9.664062 4.40625 -9.175781 4.4375 -8.6875 L 4.46875 -8.6875 C 4.84375 -8.738281 5.222656 -8.78125 5.609375 -8.8125 C 5.992188 -8.851562 6.367188 -8.890625 6.734375 -8.921875 C 6.859375 -8.941406 6.976562 -8.957031 7.09375 -8.96875 C 7.207031 -8.976562 7.320312 -8.992188 7.4375 -9.015625 C 7.414062 -9.460938 7.390625 -9.90625 7.359375 -10.34375 C 7.335938 -10.789062 7.3125 -11.238281 7.28125 -11.6875 C 7.226562 -12.0625 7.203125 -12.445312 7.203125 -12.84375 C 7.210938 -13.238281 7.394531 -13.5625 7.75 -13.8125 C 8.082031 -14.019531 8.441406 -14.109375 8.828125 -14.078125 C 9.222656 -14.054688 9.53125 -13.859375 9.75 -13.484375 C 9.945312 -13.148438 10.050781 -12.765625 10.0625 -12.328125 C 10.082031 -11.890625 10.097656 -11.484375 10.109375 -11.109375 C 10.128906 -11.078125 10.132812 -11.039062 10.125 -11 C 10.113281 -10.96875 10.109375 -10.9375 10.109375 -10.90625 C 10.140625 -10.40625 10.140625 -9.894531 10.109375 -9.375 L 10.109375 -8.90625 C 10.203125 -8.882812 10.289062 -8.863281 10.375 -8.84375 C 10.457031 -8.820312 10.550781 -8.796875 10.65625 -8.765625 C 10.9375 -8.679688 11.132812 -8.515625 11.25 -8.265625 C 11.375 -8.023438 11.414062 -7.769531 11.375 -7.5 C 11.34375 -7.226562 11.234375 -6.988281 11.046875 -6.78125 Z M 5.171875 -6.890625 C 5.046875 -6.890625 4.921875 -6.882812 4.796875 -6.875 C 4.679688 -6.875 4.566406 -6.875 4.453125 -6.875 C 4.421875 -6.8125 4.390625 -6.773438 4.359375 -6.765625 L 4.359375 -6.671875 C 5.210938 -6.765625 6.050781 -6.8125 6.875 -6.8125 C 6.945312 -6.789062 7.019531 -6.78125 7.09375 -6.78125 C 7.175781 -6.78125 7.242188 -6.78125 7.296875 -6.78125 L 7.296875 -6.890625 C 6.941406 -6.910156 6.585938 -6.921875 6.234375 -6.921875 C 5.878906 -6.929688 5.523438 -6.921875 5.171875 -6.890625 Z M 5.171875 -6.890625 "/></g></g></g><g fill="#b2d12e" fill-opacity="1"><g transform="translate(48.171172, 25.726352)"><g><path d="M 0.296875 -12.46875 C 0.253906 -12.613281 0.269531 -12.753906 0.34375 -12.890625 C 0.414062 -13.035156 0.488281 -13.160156 0.5625 -13.265625 C 0.707031 -13.484375 0.890625 -13.664062 1.109375 -13.8125 C 1.160156 -13.863281 1.203125 -13.898438 1.234375 -13.921875 C 1.515625 -14.117188 1.816406 -14.265625 2.140625 -14.359375 C 2.472656 -14.460938 2.804688 -14.472656 3.140625 -14.390625 C 3.421875 -14.316406 3.671875 -14.195312 3.890625 -14.03125 C 4.109375 -13.863281 4.265625 -13.640625 4.359375 -13.359375 C 4.410156 -13.242188 4.40625 -13.132812 4.34375 -13.03125 C 4.28125 -12.925781 4.207031 -12.835938 4.125 -12.765625 C 3.769531 -12.503906 3.390625 -12.332031 2.984375 -12.25 C 2.847656 -12.101562 2.671875 -12 2.453125 -11.9375 C 2.242188 -11.875 2.039062 -11.84375 1.84375 -11.84375 C 1.664062 -11.84375 1.492188 -11.851562 1.328125 -11.875 C 1.160156 -11.90625 1 -11.953125 0.84375 -12.015625 C 0.738281 -12.046875 0.628906 -12.101562 0.515625 -12.1875 C 0.398438 -12.269531 0.328125 -12.363281 0.296875 -12.46875 Z M 1.75 -11.953125 C 2.0625 -11.953125 2.269531 -11.984375 2.375 -12.046875 C 2.476562 -12.109375 2.519531 -12.140625 2.5 -12.140625 C 2.375 -12.109375 2.234375 -12.085938 2.078125 -12.078125 C 1.921875 -12.066406 1.71875 -12.082031 1.46875 -12.125 C 1.15625 -12.195312 0.941406 -12.335938 0.828125 -12.546875 C 0.722656 -12.765625 0.722656 -13 0.828125 -13.25 C 0.722656 -13.132812 0.628906 -12.992188 0.546875 -12.828125 C 0.492188 -12.734375 0.46875 -12.644531 0.46875 -12.5625 C 0.46875 -12.488281 0.515625 -12.414062 0.609375 -12.34375 C 0.753906 -12.226562 0.890625 -12.144531 1.015625 -12.09375 C 1.234375 -12.03125 1.476562 -11.984375 1.75 -11.953125 Z M 4 -1.140625 C 3.894531 -0.972656 3.742188 -0.851562 3.546875 -0.78125 C 3.554688 -0.707031 3.546875 -0.628906 3.515625 -0.546875 C 3.492188 -0.472656 3.429688 -0.414062 3.328125 -0.375 C 3.066406 -0.238281 2.785156 -0.195312 2.484375 -0.25 C 2.191406 -0.3125 1.945312 -0.441406 1.75 -0.640625 L 1.703125 -0.71875 C 1.609375 -0.757812 1.503906 -0.820312 1.390625 -0.90625 C 1.148438 -1.125 1.003906 -1.382812 0.953125 -1.6875 C 0.910156 -1.988281 0.867188 -2.289062 0.828125 -2.59375 C 0.722656 -3.394531 0.644531 -4.195312 0.59375 -5 C 0.539062 -5.800781 0.523438 -6.601562 0.546875 -7.40625 C 0.546875 -7.800781 0.546875 -8.195312 0.546875 -8.59375 C 0.546875 -8.988281 0.566406 -9.378906 0.609375 -9.765625 C 0.628906 -9.960938 0.675781 -10.160156 0.75 -10.359375 C 0.820312 -10.554688 0.925781 -10.71875 1.0625 -10.84375 C 1.09375 -10.882812 1.117188 -10.921875 1.140625 -10.953125 C 1.171875 -10.992188 1.203125 -11.03125 1.234375 -11.0625 C 1.390625 -11.164062 1.59375 -11.289062 1.84375 -11.4375 C 2.09375 -11.59375 2.335938 -11.679688 2.578125 -11.703125 C 2.828125 -11.722656 3.015625 -11.585938 3.140625 -11.296875 C 3.203125 -11.316406 3.269531 -11.300781 3.34375 -11.25 C 3.414062 -11.207031 3.460938 -11.140625 3.484375 -11.046875 C 3.484375 -10.640625 3.472656 -10.238281 3.453125 -9.84375 C 3.441406 -9.457031 3.4375 -9.066406 3.4375 -8.671875 C 3.4375 -8.273438 3.441406 -7.878906 3.453125 -7.484375 C 3.472656 -7.085938 3.488281 -6.6875 3.5 -6.28125 C 3.5 -6.21875 3.5 -6.140625 3.5 -6.046875 C 3.507812 -5.953125 3.523438 -5.851562 3.546875 -5.75 C 3.554688 -5.757812 3.570312 -5.695312 3.59375 -5.5625 C 3.613281 -5.4375 3.628906 -5.3125 3.640625 -5.1875 C 3.660156 -5.070312 3.675781 -5.015625 3.6875 -5.015625 C 3.675781 -5.535156 3.664062 -6.109375 3.65625 -6.734375 C 3.65625 -7.367188 3.65625 -8.003906 3.65625 -8.640625 C 3.664062 -9.273438 3.6875 -9.84375 3.71875 -10.34375 C 3.71875 -10.375 3.742188 -10.394531 3.796875 -10.40625 C 3.847656 -10.414062 3.875 -10.410156 3.875 -10.390625 C 3.820312 -8.847656 3.835938 -7.3125 3.921875 -5.78125 C 4.015625 -4.25 4.160156 -2.710938 4.359375 -1.171875 C 4.378906 -1.066406 4.332031 -1.007812 4.21875 -1 C 4.101562 -1 4.03125 -1.046875 4 -1.140625 Z M 1.59375 -9.96875 C 1.4375 -9.476562 1.347656 -8.960938 1.328125 -8.421875 C 1.304688 -7.878906 1.28125 -7.351562 1.25 -6.84375 L 1.25 -6.640625 C 1.25 -6.617188 1.25 -6.609375 1.25 -6.609375 C 1.25 -6.609375 1.25 -6.601562 1.25 -6.59375 C 1.28125 -6.332031 1.3125 -6.070312 1.34375 -5.8125 C 1.375 -5.550781 1.398438 -5.289062 1.421875 -5.03125 L 1.484375 -5.03125 C 1.484375 -5.519531 1.476562 -6.003906 1.46875 -6.484375 C 1.46875 -6.972656 1.472656 -7.460938 1.484375 -7.953125 C 1.484375 -8.328125 1.5 -8.703125 1.53125 -9.078125 C 1.570312 -9.460938 1.648438 -9.828125 1.765625 -10.171875 L 1.75 -10.171875 C 1.644531 -10.097656 1.59375 -10.03125 1.59375 -9.96875 Z M 1.59375 -9.96875 "/></g></g></g><g fill="#b2d12e" fill-opacity="1"><g transform="translate(51.758024, 25.726352)"><g><path d="M 12.171875 -1.078125 C 12.078125 -0.773438 11.898438 -0.554688 11.640625 -0.421875 C 11.390625 -0.285156 11.101562 -0.203125 10.78125 -0.171875 C 10.46875 -0.140625 10.171875 -0.117188 9.890625 -0.109375 C 9.453125 -0.0976562 9.007812 -0.113281 8.5625 -0.15625 C 8.113281 -0.207031 7.664062 -0.242188 7.21875 -0.265625 C 6.59375 -0.285156 5.972656 -0.273438 5.359375 -0.234375 C 4.753906 -0.203125 4.148438 -0.15625 3.546875 -0.09375 C 3.390625 0.0078125 3.191406 0.0625 2.953125 0.0625 C 2.835938 0.0625 2.757812 0.0546875 2.71875 0.046875 C 2.570312 0.0546875 2.429688 0.078125 2.296875 0.109375 C 2.160156 0.140625 2.03125 0.164062 1.90625 0.1875 C 1.695312 0.21875 1.503906 0.191406 1.328125 0.109375 C 1.160156 0.0234375 1.050781 -0.117188 1 -0.328125 C 0.976562 -0.359375 0.96875 -0.394531 0.96875 -0.4375 C 0.882812 -0.5625 0.84375 -0.703125 0.84375 -0.859375 C 0.84375 -1.109375 0.921875 -1.300781 1.078125 -1.4375 C 1.234375 -1.582031 1.425781 -1.664062 1.65625 -1.6875 C 1.6875 -1.6875 1.710938 -1.691406 1.734375 -1.703125 C 1.710938 -2.347656 1.675781 -2.992188 1.625 -3.640625 C 1.582031 -4.296875 1.53125 -4.945312 1.46875 -5.59375 C 1.238281 -5.664062 1.046875 -5.78125 0.890625 -5.9375 C 0.742188 -6.101562 0.671875 -6.320312 0.671875 -6.59375 C 0.671875 -6.8125 0.726562 -7 0.84375 -7.15625 C 0.957031 -7.3125 1.109375 -7.429688 1.296875 -7.515625 C 1.296875 -7.535156 1.289062 -7.546875 1.28125 -7.546875 C 1.28125 -7.554688 1.28125 -7.5625 1.28125 -7.5625 C 1.226562 -8.113281 1.179688 -8.65625 1.140625 -9.1875 C 1.097656 -9.726562 1.050781 -10.265625 1 -10.796875 C 0.894531 -10.859375 0.796875 -10.925781 0.703125 -11 C 0.609375 -11.070312 0.519531 -11.132812 0.4375 -11.1875 C 0.289062 -11.332031 0.144531 -11.5 0 -11.6875 C -0.144531 -11.875 -0.238281 -12.078125 -0.28125 -12.296875 C -0.320312 -12.515625 -0.269531 -12.722656 -0.125 -12.921875 C 0.0820312 -13.210938 0.351562 -13.398438 0.6875 -13.484375 C 1.03125 -13.566406 1.367188 -13.617188 1.703125 -13.640625 C 2.378906 -13.640625 3.019531 -13.53125 3.625 -13.3125 C 4.28125 -13.09375 4.914062 -12.816406 5.53125 -12.484375 C 5.71875 -12.390625 6.019531 -12.210938 6.4375 -11.953125 C 6.851562 -11.691406 7.316406 -11.375 7.828125 -11 C 8.335938 -10.625 8.832031 -10.222656 9.3125 -9.796875 C 9.800781 -9.367188 10.207031 -8.941406 10.53125 -8.515625 C 10.851562 -8.097656 11.039062 -7.695312 11.09375 -7.3125 C 11.144531 -6.925781 10.988281 -6.597656 10.625 -6.328125 C 10.488281 -6.210938 10.335938 -6.113281 10.171875 -6.03125 C 10.015625 -5.957031 9.84375 -5.925781 9.65625 -5.9375 C 9.414062 -5.96875 9.175781 -6 8.9375 -6.03125 C 8.707031 -6.0625 8.453125 -6.085938 8.171875 -6.109375 L 7.125 -6.1875 C 7.195312 -6.15625 7.257812 -6.117188 7.3125 -6.078125 C 7.363281 -6.046875 7.421875 -6.015625 7.484375 -5.984375 C 7.734375 -5.828125 7.976562 -5.664062 8.21875 -5.5 C 8.46875 -5.332031 8.710938 -5.15625 8.953125 -4.96875 C 9.941406 -4.1875 10.828125 -3.335938 11.609375 -2.421875 C 11.804688 -2.234375 11.96875 -2.03125 12.09375 -1.8125 C 12.21875 -1.59375 12.242188 -1.347656 12.171875 -1.078125 Z M 7.5625 -8.34375 C 7.4375 -8.488281 7.300781 -8.625 7.15625 -8.75 C 7.019531 -8.882812 6.878906 -9.015625 6.734375 -9.140625 C 6.597656 -9.253906 6.472656 -9.359375 6.359375 -9.453125 C 6.253906 -9.554688 6.144531 -9.644531 6.03125 -9.71875 C 5.726562 -9.925781 5.414062 -10.117188 5.09375 -10.296875 C 4.769531 -10.472656 4.460938 -10.613281 4.171875 -10.71875 C 4.066406 -10.75 3.96875 -10.78125 3.875 -10.8125 C 3.78125 -10.851562 3.6875 -10.878906 3.59375 -10.890625 L 3.234375 -10.953125 C 3.222656 -10.953125 3.210938 -10.953125 3.203125 -10.953125 C 3.203125 -10.953125 3.191406 -10.953125 3.171875 -10.953125 C 3.273438 -10.492188 3.359375 -10.03125 3.421875 -9.5625 C 3.484375 -9.09375 3.546875 -8.617188 3.609375 -8.140625 C 4.316406 -8.242188 5.019531 -8.3125 5.71875 -8.34375 C 6.34375 -8.351562 6.957031 -8.351562 7.5625 -8.34375 Z M 8.734375 -2.65625 C 8.398438 -2.945312 8.050781 -3.222656 7.6875 -3.484375 C 7.332031 -3.742188 6.957031 -3.976562 6.5625 -4.1875 C 6.1875 -4.394531 5.796875 -4.59375 5.390625 -4.78125 C 4.984375 -4.976562 4.570312 -5.132812 4.15625 -5.25 C 4.09375 -5.28125 4.03125 -5.296875 3.96875 -5.296875 L 4.234375 -3.375 C 4.265625 -3.15625 4.289062 -2.9375 4.3125 -2.71875 C 4.34375 -2.507812 4.367188 -2.296875 4.390625 -2.078125 C 4.878906 -2.128906 5.367188 -2.171875 5.859375 -2.203125 C 6.285156 -2.210938 6.710938 -2.207031 7.140625 -2.1875 C 7.578125 -2.164062 8.015625 -2.117188 8.453125 -2.046875 C 8.828125 -2.003906 9.203125 -1.941406 9.578125 -1.859375 C 9.441406 -2.003906 9.304688 -2.144531 9.171875 -2.28125 C 9.035156 -2.414062 8.890625 -2.539062 8.734375 -2.65625 Z M 8.734375 -2.65625 "/></g></g></g><g fill="#000000" fill-opacity="1"><g transform="translate(18.964156, 34.763609)"><g><path d="M 3.1875 0.109375 C 2.601562 0.109375 2.039062 0.0195312 1.5 -0.15625 C 0.96875 -0.34375 0.492188 -0.617188 0.078125 -0.984375 L 1.109375 -2.203125 C 1.429688 -1.941406 1.773438 -1.742188 2.140625 -1.609375 C 2.503906 -1.472656 2.875 -1.40625 3.25 -1.40625 C 3.5 -1.40625 3.6875 -1.445312 3.8125 -1.53125 C 3.945312 -1.613281 4.015625 -1.722656 4.015625 -1.859375 L 4.015625 -1.875 C 4.015625 -2.019531 3.941406 -2.132812 3.796875 -2.21875 C 3.648438 -2.3125 3.347656 -2.414062 2.890625 -2.53125 C 2.535156 -2.601562 2.207031 -2.6875 1.90625 -2.78125 C 1.601562 -2.882812 1.335938 -3.015625 1.109375 -3.171875 C 0.890625 -3.328125 0.710938 -3.519531 0.578125 -3.75 C 0.453125 -3.976562 0.390625 -4.257812 0.390625 -4.59375 L 0.390625 -4.609375 C 0.390625 -4.921875 0.445312 -5.203125 0.5625 -5.453125 C 0.6875 -5.710938 0.859375 -5.9375 1.078125 -6.125 C 1.296875 -6.3125 1.5625 -6.457031 1.875 -6.5625 C 2.195312 -6.675781 2.554688 -6.734375 2.953125 -6.734375 C 3.515625 -6.734375 4.019531 -6.65625 4.46875 -6.5 C 4.914062 -6.351562 5.320312 -6.132812 5.6875 -5.84375 L 4.765625 -4.5625 C 4.460938 -4.769531 4.148438 -4.925781 3.828125 -5.03125 C 3.503906 -5.144531 3.195312 -5.203125 2.90625 -5.203125 C 2.6875 -5.203125 2.519531 -5.160156 2.40625 -5.078125 C 2.300781 -5.003906 2.25 -4.90625 2.25 -4.78125 L 2.25 -4.765625 C 2.25 -4.609375 2.328125 -4.484375 2.484375 -4.390625 C 2.640625 -4.304688 2.945312 -4.21875 3.40625 -4.125 C 4.15625 -3.957031 4.75 -3.722656 5.1875 -3.421875 C 5.632812 -3.128906 5.859375 -2.675781 5.859375 -2.0625 L 5.859375 -2.046875 C 5.859375 -1.710938 5.789062 -1.410156 5.65625 -1.140625 C 5.53125 -0.867188 5.351562 -0.640625 5.125 -0.453125 C 4.894531 -0.265625 4.613281 -0.125 4.28125 -0.03125 C 3.945312 0.0625 3.582031 0.109375 3.1875 0.109375 Z M 3.1875 0.109375 "/></g></g></g><g fill="#000000" fill-opacity="1"><g transform="translate(25.129068, 34.763609)"><g><path d="M 0.640625 0 L 0.640625 -6.609375 L 2.46875 -6.609375 L 2.46875 0 Z M 0.640625 0 "/></g></g></g><g fill="#000000" fill-opacity="1"><g transform="translate(28.220979, 34.763609)"><g><path d="M 0.59375 0 L 0.59375 -6.609375 L 2.296875 -6.609375 L 5.015625 -3.125 L 5.015625 -6.609375 L 6.828125 -6.609375 L 6.828125 0 L 5.234375 0 L 2.40625 -3.625 L 2.40625 0 Z M 0.59375 0 "/></g></g></g><g fill="#000000" fill-opacity="1"><g transform="translate(35.643457, 34.763609)"><g><path d="M 3.953125 0.125 C 3.441406 0.125 2.96875 0.0390625 2.53125 -0.125 C 2.09375 -0.289062 1.710938 -0.523438 1.390625 -0.828125 C 1.078125 -1.128906 0.828125 -1.488281 0.640625 -1.90625 C 0.460938 -2.332031 0.375 -2.796875 0.375 -3.296875 L 0.375 -3.3125 C 0.375 -3.789062 0.460938 -4.238281 0.640625 -4.65625 C 0.816406 -5.082031 1.0625 -5.445312 1.375 -5.75 C 1.695312 -6.050781 2.070312 -6.289062 2.5 -6.46875 C 2.9375 -6.65625 3.410156 -6.75 3.921875 -6.75 C 4.503906 -6.75 5.007812 -6.664062 5.4375 -6.5 C 5.875 -6.332031 6.265625 -6.097656 6.609375 -5.796875 L 5.53125 -4.484375 C 5.300781 -4.679688 5.054688 -4.832031 4.796875 -4.9375 C 4.546875 -5.050781 4.257812 -5.109375 3.9375 -5.109375 C 3.695312 -5.109375 3.472656 -5.0625 3.265625 -4.96875 C 3.054688 -4.875 2.875 -4.742188 2.71875 -4.578125 C 2.570312 -4.421875 2.453125 -4.234375 2.359375 -4.015625 C 2.273438 -3.796875 2.234375 -3.5625 2.234375 -3.3125 L 2.234375 -3.296875 C 2.234375 -2.753906 2.398438 -2.3125 2.734375 -1.96875 C 3.078125 -1.625 3.507812 -1.453125 4.03125 -1.453125 C 4.257812 -1.453125 4.457031 -1.472656 4.625 -1.515625 C 4.800781 -1.566406 4.957031 -1.632812 5.09375 -1.71875 L 5.09375 -2.53125 L 3.796875 -2.53125 L 3.796875 -3.859375 L 6.828125 -3.859375 L 6.828125 -0.890625 C 6.484375 -0.609375 6.070312 -0.367188 5.59375 -0.171875 C 5.113281 0.0234375 4.566406 0.125 3.953125 0.125 Z M 3.953125 0.125 "/></g></g></g><g fill="#000000" fill-opacity="1"><g transform="translate(42.914649, 34.763609)"><g><path d="M 0.59375 0 L 0.59375 -6.609375 L 2.421875 -6.609375 L 2.421875 -4.140625 L 4.78125 -4.140625 L 4.78125 -6.609375 L 6.609375 -6.609375 L 6.609375 0 L 4.78125 0 L 4.78125 -2.515625 L 2.421875 -2.515625 L 2.421875 0 Z M 0.59375 0 "/></g></g></g><g fill="#000000" fill-opacity="1"><g transform="translate(13.608946, 28.488845)"><g><path d="M -0.375 -0.25 L -0.6875 1.078125 L -0.984375 0.890625 L -0.78125 0.140625 L -1.390625 0.65625 L -1.640625 0.5 L -1.46875 -0.265625 L -2.046875 0.265625 L -2.359375 0.078125 L -1.328125 -0.8125 L -1.0625 -0.65625 L -1.234375 0.09375 L -0.625 -0.40625 Z M -0.375 -0.25 "/></g></g></g><g fill="#000000" fill-opacity="1"><g transform="translate(11.819995, 27.383464)"><g><path d="M -0.078125 -0.0625 L -0.875 0.921875 L -1.15625 0.703125 L -0.84375 0.328125 L -1.1875 0.046875 L -1.5 0.421875 L -1.765625 0.203125 L -0.96875 -0.78125 L -0.703125 -0.5625 L -1 -0.1875 L -0.65625 0.09375 L -0.359375 -0.28125 Z M -0.078125 -0.0625 "/></g></g></g><g fill="#000000" fill-opacity="1"><g transform="translate(10.674685, 26.443506)"><g><path d="M -0.078125 -0.078125 L -0.984375 0.8125 L -1.703125 0.09375 L -1.484375 -0.109375 L -1 0.359375 L -0.859375 0.21875 L -1.296875 -0.203125 L -1.109375 -0.390625 L -0.671875 0.03125 L -0.515625 -0.125 L -1 -0.59375 L -0.796875 -0.796875 Z M -0.078125 -0.078125 "/></g></g></g><g fill="#000000" fill-opacity="1"><g transform="translate(9.749516, 25.505584)"><g><path d="M -0.0625 -0.078125 L -1.046875 0.71875 L -1.421875 0.25 C -1.484375 0.175781 -1.523438 0.101562 -1.546875 0.03125 C -1.566406 -0.0390625 -1.570312 -0.101562 -1.5625 -0.15625 C -1.5625 -0.226562 -1.546875 -0.285156 -1.515625 -0.328125 C -1.492188 -0.367188 -1.457031 -0.410156 -1.40625 -0.453125 C -1.332031 -0.515625 -1.253906 -0.546875 -1.171875 -0.546875 C -1.085938 -0.546875 -1.015625 -0.523438 -0.953125 -0.484375 L -0.796875 -0.984375 L -0.546875 -0.6875 L -0.671875 -0.234375 L -0.578125 -0.125 L -0.28125 -0.359375 Z M -0.796875 0.046875 L -0.9375 -0.125 C -0.976562 -0.175781 -1.019531 -0.207031 -1.0625 -0.21875 C -1.101562 -0.226562 -1.140625 -0.21875 -1.171875 -0.1875 L -1.1875 -0.1875 C -1.21875 -0.15625 -1.234375 -0.117188 -1.234375 -0.078125 C -1.234375 -0.0351562 -1.210938 0.0078125 -1.171875 0.0625 L -1.03125 0.234375 Z M -0.796875 0.046875 "/></g></g></g><g fill="#000000" fill-opacity="1"><g transform="translate(8.87731, 24.399883)"><g><path d="M -0.0625 -0.09375 L -1.125 0.59375 L -1.671875 -0.265625 L -1.421875 -0.4375 L -1.0625 0.140625 L -0.890625 0.03125 L -1.21875 -0.484375 L -1 -0.625 L -0.671875 -0.109375 L -0.5 -0.21875 L -0.859375 -0.796875 L -0.609375 -0.953125 Z M -0.0625 -0.09375 "/></g></g></g><g fill="#000000" fill-opacity="1"><g transform="translate(8.17613, 23.265521)"><g/></g></g><g fill="#000000" fill-opacity="1"><g transform="translate(7.869969, 22.714336)"><g><path d="M -0.25 -0.671875 C -0.21875 -0.585938 -0.203125 -0.5 -0.203125 -0.40625 C -0.210938 -0.320312 -0.226562 -0.242188 -0.25 -0.171875 C -0.28125 -0.0976562 -0.320312 -0.03125 -0.375 0.03125 C -0.4375 0.09375 -0.515625 0.144531 -0.609375 0.1875 C -0.691406 0.21875 -0.773438 0.234375 -0.859375 0.234375 C -0.941406 0.234375 -1.023438 0.21875 -1.109375 0.1875 C -1.191406 0.164062 -1.257812 0.125 -1.3125 0.0625 C -1.375 0 -1.425781 -0.0703125 -1.46875 -0.15625 C -1.507812 -0.269531 -1.523438 -0.378906 -1.515625 -0.484375 C -1.515625 -0.585938 -1.488281 -0.675781 -1.4375 -0.75 L -1.140625 -0.59375 C -1.171875 -0.539062 -1.191406 -0.488281 -1.203125 -0.4375 C -1.210938 -0.382812 -1.207031 -0.332031 -1.1875 -0.28125 C -1.164062 -0.238281 -1.132812 -0.203125 -1.09375 -0.171875 C -1.0625 -0.148438 -1.03125 -0.132812 -1 -0.125 C -0.96875 -0.113281 -0.925781 -0.109375 -0.875 -0.109375 C -0.832031 -0.109375 -0.789062 -0.117188 -0.75 -0.140625 C -0.707031 -0.160156 -0.671875 -0.1875 -0.640625 -0.21875 C -0.609375 -0.25 -0.582031 -0.28125 -0.5625 -0.3125 C -0.539062 -0.34375 -0.53125 -0.378906 -0.53125 -0.421875 C -0.53125 -0.460938 -0.539062 -0.503906 -0.5625 -0.546875 C -0.582031 -0.609375 -0.613281 -0.648438 -0.65625 -0.671875 C -0.695312 -0.703125 -0.753906 -0.726562 -0.828125 -0.75 L -0.765625 -1.0625 C -0.648438 -1.039062 -0.546875 -1 -0.453125 -0.9375 C -0.367188 -0.882812 -0.300781 -0.796875 -0.25 -0.671875 Z M -0.25 -0.671875 "/></g></g></g><g fill="#000000" fill-opacity="1"><g transform="translate(7.309775, 21.401186)"><g><path d="M -0.03125 -0.109375 L -1.234375 0.265625 L -1.40625 -0.296875 C -1.4375 -0.390625 -1.453125 -0.472656 -1.453125 -0.546875 C -1.453125 -0.617188 -1.4375 -0.679688 -1.40625 -0.734375 C -1.375 -0.785156 -1.335938 -0.828125 -1.296875 -0.859375 C -1.253906 -0.898438 -1.207031 -0.925781 -1.15625 -0.9375 C -1.0625 -0.96875 -0.972656 -0.96875 -0.890625 -0.9375 C -0.816406 -0.90625 -0.753906 -0.859375 -0.703125 -0.796875 L -0.375 -1.203125 L -0.25 -0.84375 L -0.53125 -0.46875 L -0.484375 -0.328125 L -0.125 -0.4375 Z M -0.75 -0.25 L -0.828125 -0.46875 C -0.847656 -0.53125 -0.875 -0.570312 -0.90625 -0.59375 C -0.9375 -0.613281 -0.972656 -0.617188 -1.015625 -0.609375 L -1.03125 -0.609375 C -1.070312 -0.597656 -1.097656 -0.570312 -1.109375 -0.53125 C -1.128906 -0.488281 -1.128906 -0.4375 -1.109375 -0.375 L -1.03125 -0.15625 Z M -0.75 -0.25 "/></g></g></g><g fill="#000000" fill-opacity="1"><g transform="translate(6.906196, 20.051875)"><g><path d="M -0.015625 -0.109375 L -1.265625 0.125 L -1.46875 -0.875 L -1.171875 -0.921875 L -1.03125 -0.25 L -0.828125 -0.296875 L -0.953125 -0.90625 L -0.6875 -0.953125 L -0.5625 -0.34375 L -0.375 -0.375 L -0.515625 -1.046875 L -0.21875 -1.109375 Z M -0.015625 -0.109375 "/></g></g></g><g fill="#000000" fill-opacity="1"><g transform="translate(6.657708, 18.760604)"><g><path d="M 0 -0.015625 L -1.3125 -0.453125 L -1.328125 -0.78125 L -0.109375 -1.421875 L -0.078125 -1.046875 L -0.296875 -0.9375 L -0.25 -0.453125 L -0.03125 -0.375 Z M -0.546875 -0.53125 L -0.5625 -0.828125 L -0.921875 -0.65625 Z M -0.546875 -0.53125 "/></g></g></g><g fill="#000000" fill-opacity="1"><g transform="translate(6.551138, 17.222132)"><g><path d="M 0.015625 -0.421875 L -0.9375 -0.453125 L -0.953125 -0.078125 L -1.265625 -0.09375 L -1.234375 -1.1875 L -0.921875 -1.171875 L -0.921875 -0.796875 L 0.03125 -0.765625 Z M 0.015625 -0.421875 "/></g></g></g><g fill="#000000" fill-opacity="1"><g transform="translate(6.613807, 15.906679)"><g><path d="M 0.015625 -0.125 L -1.234375 -0.265625 L -1.203125 -0.609375 L 0.046875 -0.46875 Z M 0.015625 -0.125 "/></g></g></g><g fill="#000000" fill-opacity="1"><g transform="translate(6.684102, 15.192507)"><g><path d="M 0.125 -0.5 L -1.234375 -0.265625 L -1.15625 -0.640625 L -0.3125 -0.765625 L -1.046875 -1.203125 L -0.96875 -1.578125 L 0.1875 -0.828125 Z M 0.125 -0.5 "/></g></g></g><g fill="#000000" fill-opacity="1"><g transform="translate(7.004413, 13.734846)"><g><path d="M 0.03125 -0.125 L -1.1875 -0.484375 L -1.078125 -0.8125 L 0.140625 -0.453125 Z M 0.03125 -0.125 "/></g></g></g><g fill="#000000" fill-opacity="1"><g transform="translate(7.202505, 13.0416)"><g><path d="M 0.15625 -0.390625 L -0.734375 -0.734375 L -0.875 -0.390625 L -1.171875 -0.5 L -0.78125 -1.515625 L -0.484375 -1.40625 L -0.609375 -1.0625 L 0.28125 -0.71875 Z M 0.15625 -0.390625 "/></g></g></g><g fill="#000000" fill-opacity="1"><g transform="translate(7.674628, 11.827091)"><g><path d="M 0.21875 -0.421875 L -0.203125 -0.640625 L -1.125 -0.578125 L -0.953125 -0.921875 L -0.40625 -0.9375 L -0.703125 -1.390625 L -0.53125 -1.734375 L -0.046875 -0.953125 L 0.375 -0.734375 Z M 0.21875 -0.421875 "/></g></g></g><g fill="#000000" fill-opacity="1"><g transform="translate(8.347245, 10.56574)"><g/></g></g><g fill="#000000" fill-opacity="1"><g transform="translate(8.662102, 10.024397)"><g><path d="M 0.0625 -0.09375 L -0.953125 -0.859375 L -0.71875 -1.15625 L -0.140625 -1.09375 L -0.359375 -1.625 L -0.140625 -1.921875 L 0.875 -1.15625 L 0.65625 -0.875 L 0.078125 -1.3125 L 0.28125 -0.765625 L 0.28125 -0.75 L -0.3125 -0.796875 L 0.265625 -0.359375 Z M 0.0625 -0.09375 "/></g></g></g><g fill="#000000" fill-opacity="1"><g transform="translate(9.681791, 8.702055)"><g><path d="M 0.078125 -0.078125 L -0.828125 -0.953125 L -0.125 -1.6875 L 0.078125 -1.484375 L -0.390625 -1 L -0.234375 -0.859375 L 0.1875 -1.296875 L 0.375 -1.109375 L -0.046875 -0.671875 L 0.09375 -0.53125 L 0.5625 -1.015625 L 0.78125 -0.8125 Z M 0.078125 -0.078125 "/></g></g></g><g fill="#000000" fill-opacity="1"><g transform="translate(10.598569, 7.753769)"><g><path d="M 0.078125 -0.078125 L -0.734375 -1.046875 L 0.046875 -1.703125 L 0.234375 -1.46875 L -0.28125 -1.03125 L -0.15625 -0.875 L 0.3125 -1.265625 L 0.484375 -1.0625 L 0.015625 -0.671875 L 0.15625 -0.515625 L 0.671875 -0.953125 L 0.859375 -0.734375 Z M 0.078125 -0.078125 "/></g></g></g><g fill="#000000" fill-opacity="1"><g transform="translate(11.609169, 6.905738)"><g><path d="M 0.34375 -0.234375 L -0.1875 -1.015625 L -0.5 -0.8125 L -0.6875 -1.078125 L 0.21875 -1.6875 L 0.40625 -1.421875 L 0.09375 -1.21875 L 0.625 -0.4375 Z M 0.34375 -0.234375 "/></g></g></g><g fill="#000000" fill-opacity="1"><g transform="translate(12.690177, 6.173808)"><g><path d="M 0.53125 -0.28125 C 0.4375 -0.21875 0.335938 -0.175781 0.234375 -0.15625 C 0.140625 -0.132812 0.0351562 -0.140625 -0.078125 -0.171875 L -0.03125 -0.46875 C 0.0507812 -0.445312 0.128906 -0.441406 0.203125 -0.453125 C 0.285156 -0.472656 0.359375 -0.5 0.421875 -0.53125 C 0.460938 -0.550781 0.488281 -0.570312 0.5 -0.59375 C 0.507812 -0.625 0.507812 -0.648438 0.5 -0.671875 C 0.488281 -0.691406 0.460938 -0.703125 0.421875 -0.703125 C 0.390625 -0.710938 0.332031 -0.707031 0.25 -0.6875 C 0.1875 -0.664062 0.125 -0.648438 0.0625 -0.640625 C 0.0078125 -0.640625 -0.0390625 -0.640625 -0.09375 -0.640625 C -0.144531 -0.640625 -0.191406 -0.648438 -0.234375 -0.671875 C -0.285156 -0.703125 -0.328125 -0.742188 -0.359375 -0.796875 C -0.390625 -0.847656 -0.40625 -0.898438 -0.40625 -0.953125 C -0.40625 -1.003906 -0.394531 -1.054688 -0.375 -1.109375 C -0.351562 -1.171875 -0.320312 -1.222656 -0.28125 -1.265625 C -0.238281 -1.316406 -0.179688 -1.359375 -0.109375 -1.390625 C -0.0234375 -1.441406 0.0625 -1.472656 0.15625 -1.484375 C 0.25 -1.503906 0.335938 -1.503906 0.421875 -1.484375 L 0.390625 -1.1875 C 0.316406 -1.195312 0.25 -1.195312 0.1875 -1.1875 C 0.125 -1.175781 0.0664062 -1.15625 0.015625 -1.125 C -0.0234375 -1.101562 -0.0507812 -1.082031 -0.0625 -1.0625 C -0.0703125 -1.039062 -0.0703125 -1.019531 -0.0625 -1 C -0.0390625 -0.96875 -0.015625 -0.953125 0.015625 -0.953125 C 0.046875 -0.960938 0.101562 -0.976562 0.1875 -1 C 0.332031 -1.03125 0.453125 -1.039062 0.546875 -1.03125 C 0.648438 -1.03125 0.726562 -0.976562 0.78125 -0.875 C 0.8125 -0.820312 0.832031 -0.765625 0.84375 -0.703125 C 0.851562 -0.648438 0.84375 -0.597656 0.8125 -0.546875 C 0.789062 -0.492188 0.753906 -0.441406 0.703125 -0.390625 C 0.648438 -0.347656 0.59375 -0.3125 0.53125 -0.28125 Z M 0.53125 -0.28125 "/></g></g></g><g fill="#000000" fill-opacity="1"><g transform="translate(13.845018, 5.56617)"><g/></g></g><g fill="#000000" fill-opacity="1"><g transform="translate(14.415677, 5.297559)"><g><path d="M 0.6875 -0.203125 C 0.601562 -0.171875 0.515625 -0.160156 0.421875 -0.171875 C 0.335938 -0.179688 0.257812 -0.203125 0.1875 -0.234375 C 0.113281 -0.273438 0.0507812 -0.320312 0 -0.375 C -0.0625 -0.4375 -0.109375 -0.515625 -0.140625 -0.609375 C -0.171875 -0.691406 -0.179688 -0.773438 -0.171875 -0.859375 C -0.171875 -0.953125 -0.148438 -1.035156 -0.109375 -1.109375 C -0.078125 -1.191406 -0.03125 -1.257812 0.03125 -1.3125 C 0.101562 -1.375 0.179688 -1.421875 0.265625 -1.453125 C 0.390625 -1.492188 0.5 -1.503906 0.59375 -1.484375 C 0.695312 -1.472656 0.78125 -1.4375 0.84375 -1.375 L 0.671875 -1.09375 C 0.617188 -1.132812 0.566406 -1.15625 0.515625 -1.15625 C 0.460938 -1.164062 0.410156 -1.164062 0.359375 -1.15625 C 0.316406 -1.132812 0.28125 -1.109375 0.25 -1.078125 C 0.226562 -1.054688 0.207031 -1.023438 0.1875 -0.984375 C 0.164062 -0.953125 0.15625 -0.910156 0.15625 -0.859375 C 0.15625 -0.816406 0.164062 -0.773438 0.1875 -0.734375 C 0.195312 -0.691406 0.21875 -0.648438 0.25 -0.609375 C 0.28125 -0.578125 0.3125 -0.550781 0.34375 -0.53125 C 0.382812 -0.519531 0.425781 -0.507812 0.46875 -0.5 C 0.507812 -0.5 0.550781 -0.507812 0.59375 -0.53125 C 0.65625 -0.550781 0.695312 -0.578125 0.71875 -0.609375 C 0.75 -0.648438 0.773438 -0.703125 0.796875 -0.765625 L 1.109375 -0.671875 C 1.085938 -0.566406 1.046875 -0.472656 0.984375 -0.390625 C 0.921875 -0.316406 0.820312 -0.253906 0.6875 -0.203125 Z M 0.6875 -0.203125 "/></g></g></g><g fill="#000000" fill-opacity="1"><g transform="translate(15.768806, 4.830913)"><g><path d="M 0.109375 -0.03125 L -0.1875 -1.265625 L 0.140625 -1.34375 L 0.359375 -0.40625 L 0.953125 -0.546875 L 1.03125 -0.25 Z M 0.109375 -0.03125 "/></g></g></g><g fill="#000000" fill-opacity="1"><g transform="translate(16.959463, 4.542137)"><g><path d="M 0.015625 0 L 0.390625 -1.3125 L 0.71875 -1.359375 L 1.40625 -0.1875 L 1.03125 -0.125 L 0.921875 -0.34375 L 0.4375 -0.28125 L 0.375 -0.046875 Z M 0.5 -0.578125 L 0.796875 -0.609375 L 0.609375 -0.953125 Z M 0.5 -0.578125 "/></g></g></g><g fill="#000000" fill-opacity="1"><g transform="translate(18.488245, 4.356999)"><g><path d="M 0.109375 0 L 0.09375 -1.265625 L 0.6875 -1.28125 C 0.78125 -1.28125 0.859375 -1.265625 0.921875 -1.234375 C 0.992188 -1.210938 1.050781 -1.179688 1.09375 -1.140625 C 1.132812 -1.097656 1.164062 -1.050781 1.1875 -1 C 1.207031 -0.957031 1.21875 -0.90625 1.21875 -0.84375 C 1.21875 -0.75 1.191406 -0.664062 1.140625 -0.59375 C 1.097656 -0.53125 1.039062 -0.484375 0.96875 -0.453125 L 1.265625 -0.015625 L 0.875 -0.015625 L 0.609375 -0.375 L 0.453125 -0.375 L 0.453125 0 Z M 0.453125 -0.65625 L 0.6875 -0.671875 C 0.75 -0.671875 0.789062 -0.679688 0.8125 -0.703125 C 0.84375 -0.734375 0.859375 -0.769531 0.859375 -0.8125 L 0.859375 -0.828125 C 0.859375 -0.867188 0.84375 -0.898438 0.8125 -0.921875 C 0.78125 -0.953125 0.734375 -0.96875 0.671875 -0.96875 L 0.4375 -0.953125 Z M 0.453125 -0.65625 "/></g></g></g><g fill="#000000" fill-opacity="1"><g transform="translate(19.908822, 4.360913)"><g><path d="M 0.125 0.015625 L 0.21875 -1.25 L 0.5625 -1.234375 L 0.46875 0.03125 Z M 0.125 0.015625 "/></g></g></g><g fill="#000000" fill-opacity="1"><g transform="translate(20.628592, 4.407403)"><g><path d="M 0.421875 0.0625 L 0.5625 -0.875 L 0.1875 -0.9375 L 0.234375 -1.25 L 1.3125 -1.078125 L 1.265625 -0.765625 L 0.890625 -0.828125 L 0.75 0.109375 Z M 0.421875 0.0625 "/></g></g></g><g fill="#000000" fill-opacity="1"><g transform="translate(21.915751, 4.608282)"><g><path d="M 0.453125 0.125 L 0.578125 -0.328125 L 0.328125 -1.21875 L 0.703125 -1.125 L 0.84375 -0.59375 L 1.203125 -0.984375 L 1.578125 -0.890625 L 0.921875 -0.234375 L 0.796875 0.21875 Z M 0.453125 0.125 "/></g></g></g><g fill="#000000" fill-opacity="1"><g transform="translate(23.291807, 4.996579)"><g/></g></g><g fill="#000000" fill-opacity="1"><g transform="translate(23.887886, 5.188363)"><g><path d="M 0.09375 0.046875 L 0.625 -1.109375 L 0.96875 -0.953125 L 1.015625 -0.375 L 1.515625 -0.703125 L 1.84375 -0.546875 L 1.3125 0.609375 L 1 0.453125 L 1.296875 -0.203125 L 0.796875 0.109375 L 0.796875 0.09375 L 0.703125 -0.46875 L 0.40625 0.1875 Z M 0.09375 0.046875 "/></g></g></g><g fill="#000000" fill-opacity="1"><g transform="translate(25.397371, 5.901152)"><g><path d="M 0.09375 0.0625 L 0.75 -1.015625 L 1.609375 -0.484375 L 1.453125 -0.234375 L 0.890625 -0.59375 L 0.796875 -0.421875 L 1.3125 -0.109375 L 1.171875 0.125 L 0.65625 -0.1875 L 0.546875 -0.015625 L 1.109375 0.34375 L 0.953125 0.59375 Z M 0.09375 0.0625 "/></g></g></g><g fill="#000000" fill-opacity="1"><g transform="translate(26.519285, 6.587609)"><g><path d="M 0.015625 0.015625 L 1.21875 -0.671875 L 1.46875 -0.46875 L 1.125 0.875 L 0.828125 0.640625 L 0.890625 0.40625 L 0.515625 0.109375 L 0.296875 0.234375 Z M 0.75 -0.046875 L 0.984375 0.140625 L 1.09375 -0.234375 Z M 0.75 -0.046875 "/></g></g></g><g fill="#000000" fill-opacity="1"><g transform="translate(27.729043, 7.537702)"><g><path d="M 0.078125 0.078125 L 0.96875 -0.828125 L 1.203125 -0.59375 L 1.09375 0.25 L 1.5625 -0.234375 L 1.8125 0 L 0.921875 0.90625 L 0.703125 0.703125 L 0.8125 -0.171875 L 0.328125 0.3125 Z M 0.078125 0.078125 "/></g></g></g><g fill="#000000" fill-opacity="1"><g transform="translate(28.802829, 8.62001)"><g><path d="M 0.375 0.484375 C 0.300781 0.398438 0.242188 0.304688 0.203125 0.203125 C 0.171875 0.109375 0.15625 0.00390625 0.15625 -0.109375 L 0.453125 -0.109375 C 0.453125 -0.0234375 0.460938 0.0507812 0.484375 0.125 C 0.515625 0.195312 0.550781 0.257812 0.59375 0.3125 C 0.625 0.34375 0.65625 0.363281 0.6875 0.375 C 0.71875 0.382812 0.742188 0.382812 0.765625 0.375 C 0.773438 0.351562 0.78125 0.320312 0.78125 0.28125 C 0.78125 0.25 0.757812 0.195312 0.71875 0.125 C 0.6875 0.0703125 0.660156 0.015625 0.640625 -0.046875 C 0.617188 -0.109375 0.601562 -0.160156 0.59375 -0.203125 C 0.59375 -0.253906 0.601562 -0.300781 0.625 -0.34375 C 0.644531 -0.394531 0.679688 -0.441406 0.734375 -0.484375 C 0.773438 -0.523438 0.820312 -0.550781 0.875 -0.5625 C 0.925781 -0.582031 0.976562 -0.585938 1.03125 -0.578125 C 1.09375 -0.566406 1.148438 -0.539062 1.203125 -0.5 C 1.253906 -0.46875 1.304688 -0.425781 1.359375 -0.375 C 1.421875 -0.289062 1.46875 -0.203125 1.5 -0.109375 C 1.53125 -0.0234375 1.539062 0.0546875 1.53125 0.140625 L 1.234375 0.15625 C 1.234375 0.0820312 1.222656 0.0195312 1.203125 -0.03125 C 1.179688 -0.09375 1.148438 -0.148438 1.109375 -0.203125 C 1.078125 -0.234375 1.050781 -0.25 1.03125 -0.25 C 1.007812 -0.257812 0.988281 -0.253906 0.96875 -0.234375 C 0.945312 -0.222656 0.9375 -0.195312 0.9375 -0.15625 C 0.945312 -0.125 0.972656 -0.0664062 1.015625 0.015625 C 1.085938 0.140625 1.125 0.25 1.125 0.34375 C 1.132812 0.445312 1.09375 0.535156 1 0.609375 C 0.957031 0.648438 0.90625 0.675781 0.84375 0.6875 C 0.789062 0.707031 0.734375 0.710938 0.671875 0.703125 C 0.617188 0.691406 0.566406 0.664062 0.515625 0.625 C 0.460938 0.59375 0.414062 0.546875 0.375 0.484375 Z M 0.375 0.484375 "/></g></g></g></svg>