<svg xmlns="http://www.w3.org/2000/svg" xmlns:xlink="http://www.w3.org/1999/xlink" width="160" zoomAndPan="magnify" viewBox="0 0 120 119.999999" height="160" preserveAspectRatio="xMidYMid meet" version="1.0"><defs><g/><clipPath id="bf7341e273"><path d="M 1.574219 0 L 118.574219 0 L 118.574219 92 L 1.574219 92 Z M 1.574219 0 " clip-rule="nonzero"/></clipPath></defs><path stroke-linecap="round" transform="matrix(0.243527, 0, 0, 0.24321, -0.879927, -0.632345)" fill-opacity="1" fill="#e1aa80" fill-rule="nonzero" stroke-linejoin="round" d="M 121.63768 337.283246 L 121.63768 337.572347 C 121.63768 337.556286 121.63768 337.540225 121.63768 337.524164 C 121.605599 337.427796 121.605599 337.34749 121.573519 337.251123 C 121.605599 337.267184 121.62164 337.267184 121.63768 337.283246 Z M 121.63768 337.283246 " stroke="#000000" stroke-width="0.763" stroke-opacity="1" stroke-miterlimit="10"/><path stroke-linecap="round" transform="matrix(0.243527, 0, 0, 0.24321, -0.879927, -0.632345)" fill-opacity="1" fill="#e1aa80" fill-rule="nonzero" stroke-linejoin="round" d="M 379.389032 321.446904 C 379.372992 320.804456 379.340912 320.178069 379.308831 319.583805 C 379.292791 318.973479 379.26071 318.363154 379.22863 317.801012 C 379.212589 317.415543 379.196549 317.030074 379.180509 316.660667 C 379.164468 316.275198 379.132388 315.921852 379.132388 315.552444 C 379.100307 315.022425 379.084267 314.492405 379.052186 313.994508 C 379.036146 313.737529 379.020106 313.496611 379.004066 313.239631 C 378.988025 312.741734 378.955945 312.259898 378.923864 311.794124 C 378.907824 311.328349 378.875743 310.894696 378.843663 310.461044 C 378.827622 310.252249 378.827622 310.027392 378.811582 309.834657 C 378.779502 309.304638 378.747421 308.822802 378.71534 308.357027 C 378.6993 308.035803 378.68326 307.746702 378.66722 307.4576 C 378.635139 307.023948 378.603058 306.622418 378.587018 306.25301 C 378.587018 306.092398 378.570978 305.947847 378.554938 305.787235 C 378.522857 305.321461 378.506817 304.903869 378.474736 304.550523 C 378.458696 304.37385 378.442656 304.213238 378.426615 304.052626 C 378.410575 303.908075 378.410575 303.763524 378.394535 303.651096 C 378.378494 303.490484 378.378494 303.361994 378.362454 303.249566 C 378.362454 303.201382 378.362454 303.137138 378.362454 303.105015 C 378.346414 303.072893 378.346414 303.056832 378.346414 303.024709 C 378.346414 303.008648 378.330374 302.976526 378.346414 302.976526 C 378.346414 302.944403 378.346414 302.912281 378.346414 302.912281 C 378.346414 302.912281 378.346414 302.928342 378.330374 302.928342 C 377.416077 304.277483 376.517821 305.706929 375.635606 307.168498 C 374.849632 308.517639 374.079698 309.898902 373.325804 311.312288 C 372.828556 312.27596 372.347347 313.239631 371.866138 314.235426 C 371.625534 314.733323 371.38493 315.23122 371.144326 315.729117 C 370.679157 316.740973 370.213989 317.752828 369.764861 318.796806 C 369.331773 319.824723 368.882645 320.884762 368.449558 321.944801 C 368.160832 322.683616 367.872107 323.422431 367.583382 324.161246 C 364.455526 332.336396 361.937201 341.186117 360.124649 349.987654 C 359.803843 351.593773 359.499078 353.183832 359.226393 354.773891 C 358.953708 356.363949 358.697064 357.954008 358.4725 359.528005 C 358.247936 361.150187 357.862969 362.692062 357.36572 364.185753 C 357.285519 364.394549 357.205317 364.603344 357.125116 364.81214 C 357.044914 365.053058 356.948673 365.277915 356.852431 365.518833 C 356.547665 366.257648 356.22686 366.96434 355.857933 367.654972 C 355.537127 368.281359 355.168201 368.875623 354.799274 369.469887 C 354.54263 369.887479 354.253905 370.272947 353.965179 370.674477 C 353.211286 371.718455 352.361151 372.698188 351.446855 373.597615 C 344.742015 380.246952 334.428111 382.816743 324.932262 379.299341 C 324.402933 379.106606 323.905684 378.897811 323.376354 378.672954 C 322.606421 378.319608 321.836487 377.934139 321.066553 377.500487 C 282.313223 355.416339 251.082786 379.877544 250.74594 379.68481 C 250.425135 379.861483 219.178658 355.416339 180.425327 377.500487 C 169.999142 383.44313 157.696242 381.146379 150.045026 373.597615 C 149.820462 373.372759 149.595898 373.147902 149.387374 372.906984 C 148.938246 372.441209 148.521199 371.943312 148.120192 371.445415 C 147.671064 370.883273 147.237976 370.30507 146.836969 369.694744 C 146.435962 369.084419 146.067035 368.441971 145.714149 367.783462 C 145.473545 367.349809 145.265021 366.916157 145.056497 366.466443 C 144.912135 366.16128 144.767772 365.856118 144.65549 365.534894 C 144.382805 364.924568 144.174282 364.28212 143.965758 363.623611 C 143.853476 363.302387 143.757234 362.965102 143.677033 362.643878 C 143.468509 361.889002 143.292066 361.134125 143.163744 360.331065 C 143.115623 360.074086 143.083542 359.817107 143.035421 359.544067 C 142.137165 353.232016 140.805821 346.743292 139.121591 340.383057 C 137.437361 334.006761 135.384205 327.742894 133.010243 321.864495 C 132.593195 320.85264 132.176148 319.824723 131.74306 318.828929 C 131.085408 317.335237 130.411716 315.857607 129.721984 314.42816 C 129.49742 313.946324 129.256816 313.464488 129.016211 313.014775 C 128.551043 312.067164 128.069835 311.135614 127.572586 310.236187 C 127.299901 309.722229 127.027216 309.224332 126.738491 308.710373 C 126.177081 307.698518 125.58359 306.702724 125.00614 305.755113 C 124.396609 304.807502 123.803119 303.875953 123.193588 302.976526 C 123.193588 302.992587 123.177547 303.04077 123.177547 303.105015 C 123.177547 303.137138 123.177547 303.153199 123.161507 303.185321 C 123.145467 303.345933 123.129427 303.586851 123.113386 303.892014 C 123.097346 304.068687 123.081306 304.277483 123.065265 304.518401 C 123.065265 304.550523 123.065265 304.582645 123.049225 304.614768 C 123.033185 304.77538 123.033185 304.935992 123.017145 305.112665 C 123.001104 305.305399 122.985064 305.482073 122.969024 305.690868 C 122.952983 305.867541 122.952983 306.044215 122.936943 306.236949 C 122.920903 306.397561 122.904863 306.574234 122.888822 306.766968 C 122.872782 307.023948 122.856742 307.296988 122.840701 307.58609 C 122.824661 307.827008 122.808621 308.067926 122.792581 308.324905 C 122.7605 308.822802 122.712379 309.368883 122.696339 309.947086 C 122.664258 310.428922 122.632178 310.94288 122.600097 311.4729 C 122.584057 311.681695 122.584057 311.87443 122.568017 312.067164 C 122.535936 312.67749 122.503855 313.287815 122.455735 313.946324 C 122.407614 315.054547 122.343453 316.243076 122.279291 317.51191 C 122.231171 318.44346 122.18305 319.439254 122.134929 320.467171 C 122.134929 320.804456 122.118889 321.157802 122.102848 321.495087 L 122.102848 321.382659 C 121.316874 291.573075 122.7605 229.480481 145.649988 198.273573 C 166.277795 170.166475 249.895805 128.246747 249.895805 128.246747 C 249.895805 128.246747 250.18453 128.327053 250.74594 128.487665 C 251.29131 128.310992 251.580035 128.246747 251.580035 128.246747 C 251.580035 128.246747 335.214085 170.166475 355.825853 198.273573 C 378.763461 229.46442 380.175006 291.685503 379.389032 321.446904 Z M 379.389032 321.446904 " stroke="#000000" stroke-width="0.763" stroke-opacity="1" stroke-miterlimit="10"/><path fill="#000000" d="M 29.117188 73.039062 C 29.117188 73.039062 29.113281 73.050781 29.113281 73.074219 C 29.117188 73.058594 29.117188 73.046875 29.117188 73.039062 Z M 29.109375 73.09375 C 29.105469 73.132812 29.101562 73.1875 29.097656 73.265625 C 29.101562 73.1875 29.109375 73.132812 29.109375 73.09375 Z M 28.859375 77.515625 C 28.855469 77.527344 28.855469 77.535156 28.855469 77.542969 C 28.808594 78.667969 28.769531 79.96875 28.742188 81.394531 L 28.742188 81.453125 C 28.742188 81.457031 28.746094 81.460938 28.746094 81.464844 L 28.746094 81.394531 C 28.773438 79.96875 28.8125 78.667969 28.859375 77.542969 C 28.863281 77.457031 28.867188 77.375 28.871094 77.292969 C 28.863281 77.367188 28.863281 77.441406 28.859375 77.515625 Z M 66.941406 107.398438 L 53.660156 107.398438 C 54.664062 108.128906 55.769531 108.699219 56.945312 109.085938 C 58.066406 109.453125 59.25 109.652344 60.480469 109.652344 C 61.003906 109.652344 61.519531 109.617188 62.023438 109.542969 C 63.949219 109.277344 65.742188 108.53125 67.292969 107.402344 C 67.175781 107.398438 67.058594 107.398438 66.941406 107.398438 Z M 71.949219 96.253906 C 71.621094 96.019531 71.214844 95.878906 70.78125 95.878906 L 50.183594 95.878906 C 49.722656 95.878906 49.304688 96.03125 48.96875 96.289062 C 48.417969 96.710938 48.101562 97.402344 48.207031 98.136719 C 48.308594 98.8125 48.453125 99.472656 48.640625 100.113281 C 48.957031 99.515625 49.390625 98.96875 49.910156 98.484375 C 51.417969 97.066406 53.675781 96.175781 55.960938 96.175781 L 64.414062 96.175781 C 66.867188 96.175781 69.285156 97.207031 70.78125 98.804688 C 71.371094 99.425781 71.816406 100.140625 72.070312 100.90625 C 72.382812 100.023438 72.617188 99.097656 72.757812 98.136719 C 72.871094 97.378906 72.527344 96.667969 71.949219 96.253906 Z M 86.824219 84.484375 C 87.261719 82.347656 87.878906 80.191406 88.636719 78.203125 C 87.875 80.195312 87.261719 82.347656 86.824219 84.484375 Z M 86.824219 84.484375 C 86.742188 84.875 86.671875 85.261719 86.605469 85.648438 C 86.671875 85.261719 86.742188 84.875 86.824219 84.484375 Z M 86.148438 87.933594 C 86.269531 87.574219 86.363281 87.199219 86.417969 86.804688 C 86.476562 86.421875 86.535156 86.035156 86.601562 85.648438 C 86.535156 86.035156 86.472656 86.421875 86.417969 86.804688 C 86.363281 87.199219 86.269531 87.574219 86.148438 87.933594 Z M 86.148438 87.933594 " fill-opacity="1" fill-rule="nonzero"/><path fill="#000000" d="M 91.625 81.398438 C 91.621094 81.039062 91.613281 80.691406 91.605469 80.351562 C 91.59375 79.84375 91.578125 79.351562 91.5625 78.882812 C 91.546875 78.414062 91.527344 77.96875 91.511719 77.546875 C 91.503906 77.390625 91.5 77.238281 91.492188 77.09375 C 91.484375 76.945312 91.476562 76.796875 91.472656 76.660156 C 91.46875 76.566406 91.464844 76.472656 91.460938 76.382812 C 91.457031 76.289062 91.449219 76.203125 91.449219 76.113281 C 91.441406 75.984375 91.4375 75.855469 91.429688 75.734375 C 91.425781 75.671875 91.421875 75.613281 91.417969 75.550781 C 91.414062 75.429688 91.40625 75.3125 91.398438 75.199219 C 91.394531 75.085938 91.386719 74.980469 91.378906 74.875 C 91.375 74.824219 91.375 74.769531 91.371094 74.722656 C 91.363281 74.59375 91.355469 74.476562 91.347656 74.363281 C 91.34375 74.285156 91.339844 74.214844 91.335938 74.144531 C 91.328125 74.039062 91.320312 73.941406 91.316406 73.851562 C 91.316406 73.8125 91.3125 73.777344 91.308594 73.738281 C 91.300781 73.625 91.292969 73.523438 91.289062 73.4375 C 91.28125 73.394531 91.28125 73.355469 91.277344 73.316406 C 91.273438 73.28125 91.273438 73.246094 91.269531 73.21875 C 91.265625 73.179688 91.265625 73.148438 91.261719 73.121094 C 91.261719 73.109375 91.261719 73.09375 91.261719 73.085938 C 91.257812 73.078125 91.257812 73.074219 91.257812 73.066406 C 91.257812 73.0625 91.253906 73.054688 91.257812 73.054688 C 91.253906 73.046875 91.253906 73.046875 91.253906 73.042969 C 91.03125 73.371094 90.8125 73.71875 90.597656 74.074219 C 90.40625 74.402344 90.21875 74.738281 90.035156 75.082031 C 89.914062 75.316406 89.796875 75.550781 89.679688 75.792969 C 89.621094 75.914062 89.5625 76.035156 89.503906 76.15625 C 89.390625 76.402344 89.277344 76.648438 89.167969 76.902344 C 89.0625 77.152344 88.953125 77.410156 88.847656 77.667969 C 88.777344 77.847656 88.707031 78.027344 88.636719 78.207031 C 87.875 80.195312 87.261719 82.347656 86.820312 84.488281 C 86.742188 84.878906 86.667969 85.265625 86.601562 85.652344 C 86.535156 86.039062 86.472656 86.425781 86.417969 86.808594 C 86.363281 87.203125 86.269531 87.578125 86.148438 87.941406 C 86.128906 87.992188 86.109375 88.042969 86.089844 88.09375 C 86.070312 88.152344 86.046875 88.207031 86.023438 88.265625 C 85.949219 88.445312 85.871094 88.617188 85.78125 88.785156 C 85.703125 88.9375 85.617188 89.082031 85.523438 89.226562 C 85.460938 89.328125 85.390625 89.421875 85.320312 89.519531 C 85.136719 89.773438 84.929688 90.011719 84.707031 90.230469 C 83.074219 91.847656 80.558594 92.472656 78.25 91.617188 C 78.121094 91.570312 78 91.519531 77.871094 91.464844 C 77.683594 91.378906 77.496094 91.285156 77.308594 91.179688 C 67.871094 85.808594 60.265625 91.757812 60.183594 91.710938 C 60.105469 91.753906 52.496094 85.808594 43.058594 91.179688 C 40.519531 92.625 37.523438 92.066406 35.660156 90.230469 C 35.605469 90.175781 35.550781 90.121094 35.5 90.0625 C 35.390625 89.949219 35.289062 89.828125 35.191406 89.707031 C 35.082031 89.570312 34.976562 89.429688 34.878906 89.28125 C 34.78125 89.132812 34.691406 88.976562 34.605469 88.816406 C 34.546875 88.710938 34.496094 88.605469 34.445312 88.496094 C 34.410156 88.421875 34.375 88.347656 34.347656 88.269531 C 34.28125 88.121094 34.226562 87.964844 34.179688 87.804688 C 34.152344 87.726562 34.128906 87.644531 34.109375 87.566406 C 34.058594 87.382812 34.015625 87.199219 33.984375 87.003906 C 33.972656 86.941406 33.960938 86.878906 33.953125 86.8125 C 33.730469 85.277344 33.410156 83.699219 33 82.152344 C 32.589844 80.601562 32.089844 79.078125 31.511719 77.648438 C 31.410156 77.402344 31.308594 77.152344 31.203125 76.910156 C 31.042969 76.546875 30.878906 76.1875 30.710938 75.839844 C 30.65625 75.722656 30.597656 75.605469 30.539062 75.496094 C 30.425781 75.265625 30.308594 75.039062 30.1875 74.820312 C 30.121094 74.695312 30.054688 74.574219 29.984375 74.449219 C 29.847656 74.203125 29.703125 73.960938 29.5625 73.730469 C 29.414062 73.5 29.269531 73.273438 29.121094 73.054688 C 29.121094 73.058594 29.117188 73.070312 29.117188 73.085938 C 29.117188 73.09375 29.117188 73.097656 29.113281 73.105469 C 29.109375 73.144531 29.105469 73.203125 29.101562 73.277344 C 29.097656 73.320312 29.09375 73.371094 29.089844 73.429688 C 29.089844 73.4375 29.089844 73.445312 29.085938 73.453125 C 29.082031 73.492188 29.082031 73.53125 29.078125 73.574219 C 29.074219 73.621094 29.070312 73.664062 29.066406 73.714844 C 29.0625 73.757812 29.0625 73.800781 29.058594 73.847656 C 29.054688 73.886719 29.050781 73.929688 29.046875 73.976562 C 29.042969 74.039062 29.039062 74.105469 29.035156 74.175781 C 29.03125 74.234375 29.027344 74.292969 29.023438 74.355469 C 29.015625 74.476562 29.003906 74.609375 29 74.75 C 28.992188 74.867188 28.984375 74.992188 28.976562 75.121094 C 28.972656 75.171875 28.972656 75.21875 28.96875 75.265625 C 28.960938 75.414062 28.953125 75.5625 28.941406 75.722656 C 28.929688 75.992188 28.914062 76.28125 28.898438 76.589844 C 28.886719 76.816406 28.875 77.058594 28.863281 77.308594 C 28.863281 77.390625 28.859375 77.476562 28.855469 77.558594 C 28.804688 78.683594 28.765625 79.988281 28.742188 81.410156 L 28.742188 81.480469 C 28.742188 81.476562 28.738281 81.472656 28.738281 81.46875 L 28.738281 81.480469 C 28.667969 85.308594 28.71875 90.023438 29.109375 94.707031 C 29.910156 104.265625 36.210938 112.488281 45.25 115.730469 C 47.574219 116.566406 50.234375 117.320312 53.25 117.921875 C 53.25 117.921875 56.207031 119.9375 60.183594 120.007812 C 64.15625 119.9375 67.113281 117.921875 67.113281 117.921875 C 70.128906 117.320312 72.789062 116.566406 75.113281 115.730469 C 84.152344 112.484375 90.453125 104.265625 91.253906 94.707031 C 91.621094 90.285156 91.632812 81.644531 91.625 81.398438 Z M 72.753906 98.136719 C 72.613281 99.097656 72.378906 100.023438 72.066406 100.90625 C 71.324219 103.003906 70.128906 104.851562 68.617188 106.300781 C 68.199219 106.699219 67.753906 107.070312 67.292969 107.402344 C 65.742188 108.53125 63.953125 109.28125 62.023438 109.542969 C 61.519531 109.613281 61.003906 109.652344 60.480469 109.652344 C 59.25 109.652344 58.066406 109.453125 56.945312 109.085938 C 55.769531 108.699219 54.664062 108.128906 53.660156 107.398438 C 52.734375 106.726562 51.894531 105.921875 51.164062 105.007812 C 50.042969 103.601562 49.171875 101.941406 48.640625 100.113281 C 48.453125 99.476562 48.308594 98.816406 48.207031 98.140625 C 48.101562 97.402344 48.417969 96.710938 48.96875 96.292969 C 49.304688 96.035156 49.722656 95.878906 50.183594 95.878906 L 70.78125 95.878906 C 71.214844 95.878906 71.621094 96.023438 71.949219 96.253906 C 72.527344 96.667969 72.871094 97.378906 72.753906 98.136719 Z M 72.753906 98.136719 " fill-opacity="1" fill-rule="nonzero"/><path fill="#e1aa80" d="M 72.066406 100.90625 C 71.324219 103.003906 70.128906 104.851562 68.617188 106.300781 C 68.199219 106.699219 67.753906 107.070312 67.292969 107.402344 C 67.179688 107.398438 67.058594 107.398438 66.941406 107.398438 L 53.660156 107.398438 C 52.734375 106.726562 51.894531 105.921875 51.164062 105.007812 C 50.042969 103.601562 49.171875 101.941406 48.640625 100.113281 C 48.957031 99.519531 49.390625 98.972656 49.910156 98.484375 C 51.417969 97.070312 53.675781 96.179688 55.960938 96.179688 L 64.414062 96.179688 C 66.867188 96.179688 69.285156 97.207031 70.78125 98.808594 C 71.367188 99.425781 71.8125 100.140625 72.066406 100.90625 Z M 72.066406 100.90625 " fill-opacity="1" fill-rule="nonzero"/><path fill="#f7931e" d="M 91.628906 81.398438 C 91.621094 81.039062 91.613281 80.691406 91.605469 80.351562 C 91.59375 79.84375 91.578125 79.351562 91.5625 78.882812 C 91.546875 78.414062 91.527344 77.96875 91.515625 77.546875 C 91.703125 70.308594 91.359375 55.175781 85.78125 47.578125 C 80.753906 40.742188 60.390625 30.542969 60.390625 30.542969 C 60.390625 30.542969 60.320312 30.5625 60.1875 30.601562 C 60.054688 30.5625 59.984375 30.542969 59.984375 30.542969 C 59.984375 30.542969 39.617188 40.742188 34.59375 47.578125 C 29.019531 55.167969 28.667969 70.269531 28.859375 77.519531 L 28.859375 77.546875 C 28.8125 78.671875 28.773438 79.976562 28.746094 81.398438 L 28.742188 81.398438 L 28.742188 81.394531 C 28.738281 81.394531 28.734375 81.394531 28.730469 81.390625 C 25.679688 79.523438 2.039062 63.882812 15.054688 34.851562 C 23.832031 15.273438 41.507812 0.621094 60.1875 0.34375 C 78.867188 0.625 96.542969 15.273438 105.316406 34.851562 C 118.15625 63.488281 91.671875 81.371094 91.628906 81.398438 Z M 91.628906 81.398438 " fill-opacity="1" fill-rule="nonzero"/><g clip-path="url(#bf7341e273)"><path stroke-linecap="butt" transform="matrix(0.243527, 0, 0, 0.24321, -0.879927, -0.632345)" fill="none" stroke-linejoin="miter" d="M 379.870241 337.283246 C 379.83816 335.805615 379.80608 334.376169 379.773999 332.978844 C 379.725878 330.890889 379.661717 328.867178 379.597556 326.939834 C 379.533395 325.01249 379.453194 323.181513 379.405073 321.446904 C 380.175006 291.685503 378.763461 229.46442 355.857933 198.225389 C 335.214085 170.118292 251.596075 128.182503 251.596075 128.182503 C 251.596075 128.182503 251.30735 128.262809 250.761981 128.423421 C 250.216611 128.262809 249.927886 128.182503 249.927886 128.182503 C 249.927886 128.182503 166.293836 170.118292 145.666028 198.225389 C 122.77654 229.432298 121.332915 291.524891 122.118889 321.334476 L 122.118889 321.446904 C 121.926405 326.072529 121.766002 331.436969 121.65372 337.283246 L 121.63768 337.283246 L 121.63768 337.267184 C 121.62164 337.267184 121.605599 337.267184 121.589559 337.251123 C 109.062096 329.57387 11.986286 265.264832 65.432519 145.898004 C 101.475041 65.399278 174.057334 5.153722 250.761981 4.013377 C 327.466627 5.169783 400.048921 65.399278 436.075402 145.898004 C 488.799822 263.642651 380.046684 337.170817 379.870241 337.283246 Z M 379.870241 337.283246 " stroke="#000000" stroke-width="2.839" stroke-opacity="1" stroke-miterlimit="10"/></g><path fill="#000000" d="M 59.484375 72.203125 C 60.089844 74.78125 60.859375 77.378906 62.019531 79.757812 C 62.71875 81.160156 63.570312 82.613281 64.980469 83.355469 C 65.761719 83.792969 66.25 84.75 66.105469 85.628906 C 65.699219 88.214844 62.363281 90.148438 59.867188 89.816406 C 58.300781 89.664062 56.957031 88.703125 56.015625 87.480469 C 55.566406 86.902344 55.152344 86.234375 54.988281 85.433594 C 54.609375 83.816406 55.824219 82.390625 57.292969 81.964844 C 57.292969 81.964844 57.363281 82.113281 57.363281 82.113281 C 56.0625 83.109375 55.4375 84.476562 56.523438 85.847656 C 57.0625 86.542969 57.742188 87.167969 58.503906 87.609375 C 60.441406 88.726562 63.320312 88 64.5625 86.144531 C 65.039062 85.402344 64.996094 84.691406 64.222656 84.226562 C 61.785156 82.671875 60.734375 78.847656 60.058594 76.199219 C 59.742188 74.886719 59.492188 73.5625 59.320312 72.226562 Z M 59.484375 72.203125 " fill-opacity="1" fill-rule="nonzero"/><path stroke-linecap="butt" transform="matrix(0.243527, 0, 0, 0.24321, -0.879927, -0.632345)" fill-opacity="1" fill="#671716" fill-rule="nonzero" stroke-linejoin="miter" d="M 302.36358 406.105481 C 301.78613 410.056536 300.823713 413.86304 299.54049 417.492871 C 296.492835 426.117734 291.584508 433.714681 285.376917 439.673386 C 280.612952 430.903972 272.544689 425.138001 263.353605 425.138001 C 257.530981 425.138001 252.125405 427.466875 247.746407 431.433991 C 243.367409 427.466875 237.977873 425.138001 232.123169 425.138001 C 224.985241 425.138001 218.472885 428.639343 213.724961 434.357129 C 209.105358 428.575098 205.544415 421.749088 203.362936 414.232448 C 202.593002 411.614472 201.999512 408.90013 201.582464 406.121542 C 201.133336 403.085976 202.44864 400.243144 204.69428 398.524595 C 206.073744 397.464556 207.806095 396.822108 209.682809 396.822108 L 294.263236 396.822108 C 296.059748 396.822108 297.727937 397.416373 299.075321 398.363983 C 301.433243 400.06647 302.844789 402.989609 302.36358 406.105481 Z M 302.36358 406.105481 " stroke="#000000" stroke-width="1.373" stroke-opacity="1" stroke-miterlimit="10"/><path stroke-linecap="butt" transform="matrix(0.243527, 0, 0, 0.24321, -0.879927, -0.632345)" fill-opacity="1" fill="#ffffff" fill-rule="nonzero" stroke-linejoin="miter" d="M 299.059281 398.363983 L 296.316392 405.206054 C 295.787063 406.523072 295.097331 407.743723 294.263236 408.851946 C 291.247662 412.867246 286.483697 415.34067 281.286644 415.34067 L 222.402755 415.34067 C 216.676373 415.34067 211.44724 412.337226 208.543948 407.534928 C 208.110861 406.796113 207.709854 406.009114 207.373008 405.189993 L 204.67824 398.492473 C 206.057704 397.448495 207.774015 396.806047 209.666768 396.806047 L 294.247195 396.806047 C 296.043707 396.822108 297.711897 397.400312 299.059281 398.363983 Z M 299.059281 398.363983 " stroke="#000000" stroke-width="1.373" stroke-opacity="1" stroke-miterlimit="10"/><path stroke-linecap="butt" transform="matrix(0.243527, 0, 0, 0.24321, -0.879927, -0.632345)" fill-opacity="1" fill="#ff4bac" fill-rule="nonzero" stroke-linejoin="miter" d="M 285.360877 439.673386 C 283.644567 441.311628 281.832014 442.837442 279.92322 444.202644 C 273.555227 448.84433 266.208776 451.92808 258.284875 453.004181 C 256.215678 453.293282 254.1144 453.453894 251.965002 453.453894 C 246.912312 453.453894 242.036065 452.634773 237.432503 451.12502 C 232.604377 449.534962 228.064976 447.190027 223.942623 444.186583 C 220.141075 441.424057 216.692414 438.11545 213.69288 434.357129 C 218.456845 428.655404 224.953161 425.138001 232.107128 425.138001 C 237.945792 425.138001 243.351369 427.466875 247.730367 431.433991 C 252.093324 427.466875 257.498901 425.138001 263.337565 425.138001 C 272.528648 425.138001 280.612952 430.903972 285.360877 439.673386 Z M 285.360877 439.673386 " stroke="#000000" stroke-width="1.449" stroke-opacity="1" stroke-miterlimit="10"/><path stroke-linecap="round" transform="matrix(0.243527, 0, 0, 0.24321, -0.879927, -0.632345)" fill="none" stroke-linejoin="round" d="M 148.938246 265.730606 C 148.938246 265.730606 160.022084 196.153495 216.51597 225.384876 " stroke="#000000" stroke-width="10.595" stroke-opacity="1" stroke-miterlimit="10"/><path fill="#000000" d="M 50.046875 71.355469 C 50.039062 71.351562 50.035156 71.347656 50.03125 71.34375 C 50.027344 71.316406 50.023438 71.292969 50.019531 71.269531 C 50.03125 71.296875 50.039062 71.328125 50.046875 71.355469 Z M 50.046875 71.355469 " fill-opacity="1" fill-rule="nonzero"/><path fill="#000000" d="M 50.046875 71.675781 C 50.046875 73.523438 48.542969 75.027344 46.691406 75.027344 C 44.835938 75.027344 43.335938 73.523438 43.335938 71.675781 C 43.335938 70.300781 44.164062 69.117188 45.347656 68.601562 C 42.15625 67.941406 39.023438 69.863281 36.132812 71.351562 C 37.714844 68.449219 40.898438 66.222656 44.351562 66.421875 C 46.386719 66.558594 48.167969 67.808594 49.226562 69.476562 C 49.582031 70.03125 49.855469 70.636719 50.023438 71.265625 C 50.027344 71.289062 50.03125 71.3125 50.035156 71.339844 C 50.039062 71.449219 50.046875 71.5625 50.046875 71.675781 Z M 50.046875 71.675781 " fill-opacity="1" fill-rule="nonzero"/><path fill="#000000" d="M 50.019531 71.269531 C 49.847656 70.640625 49.578125 70.035156 49.222656 69.476562 C 49.652344 69.96875 49.9375 70.585938 50.019531 71.269531 Z M 50.019531 71.269531 " fill-opacity="1" fill-rule="nonzero"/><path stroke-linecap="round" transform="matrix(0.243527, 0, 0, 0.24321, -0.879927, -0.632345)" fill="none" stroke-linejoin="round" d="M 357.36572 265.730606 C 357.36572 265.730606 346.265842 196.153495 289.787996 225.384876 " stroke="#000000" stroke-width="10.595" stroke-opacity="1" stroke-miterlimit="10"/><path fill="#000000" d="M 84.34375 71.355469 C 84.335938 71.351562 84.335938 71.347656 84.328125 71.34375 C 84.324219 71.316406 84.320312 71.292969 84.316406 71.269531 C 84.332031 71.296875 84.339844 71.328125 84.34375 71.355469 Z M 84.34375 71.355469 " fill-opacity="1" fill-rule="nonzero"/><path fill="#000000" d="M 84.34375 71.675781 C 84.34375 73.523438 82.84375 75.027344 80.988281 75.027344 C 79.136719 75.027344 77.632812 73.523438 77.632812 71.675781 C 77.632812 70.300781 78.460938 69.117188 79.648438 68.601562 C 76.453125 67.941406 73.320312 69.863281 70.433594 71.351562 C 72.011719 68.449219 75.199219 66.222656 78.648438 66.421875 C 80.683594 66.558594 82.46875 67.808594 83.527344 69.476562 C 83.878906 70.03125 84.152344 70.636719 84.324219 71.265625 C 84.324219 71.289062 84.332031 71.3125 84.332031 71.339844 C 84.339844 71.449219 84.34375 71.5625 84.34375 71.675781 Z M 84.34375 71.675781 " fill-opacity="1" fill-rule="nonzero"/><path fill="#000000" d="M 84.320312 71.269531 C 84.148438 70.640625 83.878906 70.035156 83.523438 69.476562 C 83.949219 69.96875 84.238281 70.585938 84.320312 71.269531 Z M 84.320312 71.269531 " fill-opacity="1" fill-rule="nonzero"/><g fill="#000000" fill-opacity="1"><g transform="translate(103.996452, 119.451171)"><g><path d="M 1.125 -0.84375 L 1.125 -1.421875 L 1.296875 -1.421875 L 1.296875 0 L 1.125 0 L 1.125 -0.703125 L 0.390625 -0.703125 L 0.390625 0 L 0.21875 0 L 0.21875 -1.421875 L 0.390625 -1.421875 L 0.390625 -0.84375 Z M 1.125 -0.84375 "/></g></g><g transform="translate(105.502998, 119.451171)"><g><path d="M 0.4375 0.015625 C 0.332031 0.015625 0.25 -0.0078125 0.1875 -0.0625 C 0.132812 -0.113281 0.109375 -0.191406 0.109375 -0.296875 C 0.109375 -0.359375 0.117188 -0.410156 0.140625 -0.453125 C 0.171875 -0.503906 0.210938 -0.539062 0.265625 -0.5625 C 0.328125 -0.59375 0.398438 -0.617188 0.484375 -0.640625 C 0.566406 -0.648438 0.625 -0.660156 0.65625 -0.671875 C 0.695312 -0.691406 0.722656 -0.710938 0.734375 -0.734375 C 0.753906 -0.753906 0.765625 -0.78125 0.765625 -0.8125 C 0.765625 -0.851562 0.75 -0.882812 0.71875 -0.90625 C 0.6875 -0.9375 0.632812 -0.953125 0.5625 -0.953125 C 0.488281 -0.953125 0.425781 -0.9375 0.375 -0.90625 C 0.320312 -0.882812 0.273438 -0.847656 0.234375 -0.796875 L 0.21875 -0.796875 L 0.140625 -0.90625 C 0.179688 -0.96875 0.238281 -1.015625 0.3125 -1.046875 C 0.382812 -1.078125 0.46875 -1.09375 0.5625 -1.09375 C 0.6875 -1.09375 0.773438 -1.066406 0.828125 -1.015625 C 0.890625 -0.960938 0.921875 -0.882812 0.921875 -0.78125 L 0.921875 -0.21875 C 0.921875 -0.15625 0.945312 -0.125 1 -0.125 C 1.019531 -0.125 1.035156 -0.125 1.046875 -0.125 L 1.0625 -0.125 L 1.078125 -0.015625 C 1.066406 -0.00390625 1.050781 0 1.03125 0 C 1.019531 0.0078125 1.003906 0.015625 0.984375 0.015625 C 0.921875 0.015625 0.875 0 0.84375 -0.03125 C 0.8125 -0.0625 0.789062 -0.0976562 0.78125 -0.140625 L 0.765625 -0.15625 C 0.734375 -0.09375 0.691406 -0.046875 0.640625 -0.015625 C 0.585938 0.00390625 0.519531 0.015625 0.4375 0.015625 Z M 0.484375 -0.109375 C 0.535156 -0.109375 0.582031 -0.117188 0.625 -0.140625 C 0.675781 -0.171875 0.710938 -0.210938 0.734375 -0.265625 C 0.753906 -0.316406 0.765625 -0.375 0.765625 -0.4375 L 0.765625 -0.578125 L 0.75 -0.578125 C 0.726562 -0.554688 0.695312 -0.539062 0.65625 -0.53125 C 0.625 -0.519531 0.578125 -0.507812 0.515625 -0.5 C 0.453125 -0.5 0.398438 -0.488281 0.359375 -0.46875 C 0.328125 -0.445312 0.300781 -0.421875 0.28125 -0.390625 C 0.269531 -0.367188 0.265625 -0.335938 0.265625 -0.296875 C 0.265625 -0.234375 0.28125 -0.1875 0.3125 -0.15625 C 0.351562 -0.125 0.410156 -0.109375 0.484375 -0.109375 Z M 0.484375 -0.109375 "/></g></g><g transform="translate(106.614879, 119.451171)"><g><path d="M 0.1875 0 L 0.1875 -1.078125 L 0.34375 -1.078125 L 0.34375 -0.90625 L 0.359375 -0.90625 C 0.410156 -1.03125 0.503906 -1.09375 0.640625 -1.09375 C 0.710938 -1.09375 0.769531 -1.078125 0.8125 -1.046875 L 0.765625 -0.90625 L 0.75 -0.90625 C 0.707031 -0.925781 0.660156 -0.9375 0.609375 -0.9375 C 0.523438 -0.9375 0.457031 -0.90625 0.40625 -0.84375 C 0.363281 -0.78125 0.34375 -0.675781 0.34375 -0.53125 L 0.34375 0 Z M 0.1875 0 "/></g></g><g transform="translate(107.445136, 119.451171)"><g><path d="M 0.484375 0.015625 C 0.421875 0.015625 0.359375 0.0078125 0.296875 0 C 0.242188 -0.0195312 0.195312 -0.046875 0.15625 -0.078125 C 0.113281 -0.109375 0.0859375 -0.144531 0.078125 -0.1875 L 0.171875 -0.28125 L 0.1875 -0.28125 C 0.21875 -0.226562 0.257812 -0.1875 0.3125 -0.15625 C 0.363281 -0.132812 0.421875 -0.125 0.484375 -0.125 C 0.566406 -0.125 0.628906 -0.140625 0.671875 -0.171875 C 0.710938 -0.203125 0.734375 -0.242188 0.734375 -0.296875 C 0.734375 -0.335938 0.71875 -0.367188 0.6875 -0.390625 C 0.664062 -0.421875 0.628906 -0.445312 0.578125 -0.46875 L 0.390625 -0.515625 C 0.296875 -0.535156 0.222656 -0.570312 0.171875 -0.625 C 0.128906 -0.675781 0.109375 -0.738281 0.109375 -0.8125 C 0.109375 -0.863281 0.125 -0.910156 0.15625 -0.953125 C 0.1875 -1.003906 0.226562 -1.039062 0.28125 -1.0625 C 0.34375 -1.082031 0.410156 -1.09375 0.484375 -1.09375 C 0.585938 -1.09375 0.664062 -1.078125 0.71875 -1.046875 C 0.78125 -1.023438 0.828125 -0.988281 0.859375 -0.9375 L 0.765625 -0.859375 L 0.75 -0.859375 C 0.71875 -0.890625 0.679688 -0.914062 0.640625 -0.9375 C 0.597656 -0.957031 0.546875 -0.96875 0.484375 -0.96875 C 0.421875 -0.96875 0.367188 -0.953125 0.328125 -0.921875 C 0.285156 -0.898438 0.265625 -0.863281 0.265625 -0.8125 C 0.265625 -0.769531 0.273438 -0.734375 0.296875 -0.703125 C 0.328125 -0.679688 0.378906 -0.660156 0.453125 -0.640625 L 0.625 -0.609375 C 0.71875 -0.585938 0.785156 -0.550781 0.828125 -0.5 C 0.867188 -0.445312 0.890625 -0.378906 0.890625 -0.296875 C 0.890625 -0.234375 0.875 -0.175781 0.84375 -0.125 C 0.8125 -0.0820312 0.765625 -0.046875 0.703125 -0.015625 C 0.648438 0.00390625 0.578125 0.015625 0.484375 0.015625 Z M 0.484375 0.015625 "/></g></g><g transform="translate(108.439105, 119.451171)"><g><path d="M 0.4375 0.015625 C 0.332031 0.015625 0.25 -0.0078125 0.1875 -0.0625 C 0.132812 -0.113281 0.109375 -0.191406 0.109375 -0.296875 C 0.109375 -0.359375 0.117188 -0.410156 0.140625 -0.453125 C 0.171875 -0.503906 0.210938 -0.539062 0.265625 -0.5625 C 0.328125 -0.59375 0.398438 -0.617188 0.484375 -0.640625 C 0.566406 -0.648438 0.625 -0.660156 0.65625 -0.671875 C 0.695312 -0.691406 0.722656 -0.710938 0.734375 -0.734375 C 0.753906 -0.753906 0.765625 -0.78125 0.765625 -0.8125 C 0.765625 -0.851562 0.75 -0.882812 0.71875 -0.90625 C 0.6875 -0.9375 0.632812 -0.953125 0.5625 -0.953125 C 0.488281 -0.953125 0.425781 -0.9375 0.375 -0.90625 C 0.320312 -0.882812 0.273438 -0.847656 0.234375 -0.796875 L 0.21875 -0.796875 L 0.140625 -0.90625 C 0.179688 -0.96875 0.238281 -1.015625 0.3125 -1.046875 C 0.382812 -1.078125 0.46875 -1.09375 0.5625 -1.09375 C 0.6875 -1.09375 0.773438 -1.066406 0.828125 -1.015625 C 0.890625 -0.960938 0.921875 -0.882812 0.921875 -0.78125 L 0.921875 -0.21875 C 0.921875 -0.15625 0.945312 -0.125 1 -0.125 C 1.019531 -0.125 1.035156 -0.125 1.046875 -0.125 L 1.0625 -0.125 L 1.078125 -0.015625 C 1.066406 -0.00390625 1.050781 0 1.03125 0 C 1.019531 0.0078125 1.003906 0.015625 0.984375 0.015625 C 0.921875 0.015625 0.875 0 0.84375 -0.03125 C 0.8125 -0.0625 0.789062 -0.0976562 0.78125 -0.140625 L 0.765625 -0.15625 C 0.734375 -0.09375 0.691406 -0.046875 0.640625 -0.015625 C 0.585938 0.00390625 0.519531 0.015625 0.4375 0.015625 Z M 0.484375 -0.109375 C 0.535156 -0.109375 0.582031 -0.117188 0.625 -0.140625 C 0.675781 -0.171875 0.710938 -0.210938 0.734375 -0.265625 C 0.753906 -0.316406 0.765625 -0.375 0.765625 -0.4375 L 0.765625 -0.578125 L 0.75 -0.578125 C 0.726562 -0.554688 0.695312 -0.539062 0.65625 -0.53125 C 0.625 -0.519531 0.578125 -0.507812 0.515625 -0.5 C 0.453125 -0.5 0.398438 -0.488281 0.359375 -0.46875 C 0.328125 -0.445312 0.300781 -0.421875 0.28125 -0.390625 C 0.269531 -0.367188 0.265625 -0.335938 0.265625 -0.296875 C 0.265625 -0.234375 0.28125 -0.1875 0.3125 -0.15625 C 0.351562 -0.125 0.410156 -0.109375 0.484375 -0.109375 Z M 0.484375 -0.109375 "/></g></g><g transform="translate(109.550987, 119.451171)"><g><path d="M 0.1875 0 L 0.1875 -1.515625 L 0.34375 -1.515625 L 0.34375 -0.921875 L 0.375 -0.921875 C 0.445312 -1.035156 0.554688 -1.09375 0.703125 -1.09375 C 0.828125 -1.09375 0.914062 -1.0625 0.96875 -1 C 1.03125 -0.9375 1.0625 -0.832031 1.0625 -0.6875 L 1.0625 0 L 0.90625 0 L 0.90625 -0.6875 C 0.90625 -0.75 0.894531 -0.800781 0.875 -0.84375 C 0.863281 -0.882812 0.835938 -0.910156 0.796875 -0.921875 C 0.765625 -0.941406 0.722656 -0.953125 0.671875 -0.953125 C 0.578125 -0.953125 0.5 -0.921875 0.4375 -0.859375 C 0.375 -0.796875 0.34375 -0.691406 0.34375 -0.546875 L 0.34375 0 Z M 0.1875 0 "/></g></g><g transform="translate(110.788576, 119.451171)"><g><path d="M 0.265625 -1.28125 C 0.234375 -1.28125 0.207031 -1.289062 0.1875 -1.3125 C 0.164062 -1.332031 0.15625 -1.359375 0.15625 -1.390625 C 0.15625 -1.429688 0.164062 -1.460938 0.1875 -1.484375 C 0.207031 -1.503906 0.234375 -1.515625 0.265625 -1.515625 C 0.296875 -1.515625 0.320312 -1.503906 0.34375 -1.484375 C 0.363281 -1.460938 0.375 -1.429688 0.375 -1.390625 C 0.375 -1.359375 0.363281 -1.332031 0.34375 -1.3125 C 0.320312 -1.289062 0.296875 -1.28125 0.265625 -1.28125 Z M 0.1875 0 L 0.1875 -1.078125 L 0.34375 -1.078125 L 0.34375 0 Z M 0.1875 0 "/></g></g><g transform="translate(111.321616, 119.451171)"><g><path d="M 0.71875 0.015625 C 0.632812 0.015625 0.5625 0 0.5 -0.03125 C 0.445312 -0.0625 0.40625 -0.101562 0.375 -0.15625 L 0.34375 -0.140625 L 0.34375 0 L 0.1875 0 L 0.1875 -1.515625 L 0.34375 -1.515625 L 0.34375 -0.921875 L 0.375 -0.90625 C 0.445312 -1.03125 0.5625 -1.09375 0.71875 -1.09375 C 0.8125 -1.09375 0.890625 -1.070312 0.953125 -1.03125 C 1.023438 -0.988281 1.078125 -0.925781 1.109375 -0.84375 C 1.148438 -0.757812 1.171875 -0.65625 1.171875 -0.53125 C 1.171875 -0.414062 1.148438 -0.316406 1.109375 -0.234375 C 1.066406 -0.148438 1.007812 -0.0859375 0.9375 -0.046875 C 0.875 -0.00390625 0.800781 0.015625 0.71875 0.015625 Z M 0.671875 -0.125 C 0.890625 -0.125 1 -0.257812 1 -0.53125 C 1 -0.675781 0.96875 -0.78125 0.90625 -0.84375 C 0.851562 -0.914062 0.773438 -0.953125 0.671875 -0.953125 C 0.578125 -0.953125 0.5 -0.914062 0.4375 -0.84375 C 0.375 -0.78125 0.34375 -0.675781 0.34375 -0.53125 C 0.34375 -0.394531 0.375 -0.289062 0.4375 -0.21875 C 0.5 -0.15625 0.578125 -0.125 0.671875 -0.125 Z M 0.671875 -0.125 "/></g></g><g transform="translate(112.604032, 119.451171)"><g/></g><g transform="translate(113.093221, 119.451171)"><g><path d="M 0.625 0.015625 C 0.53125 0.015625 0.445312 0.00390625 0.375 -0.015625 C 0.3125 -0.0351562 0.253906 -0.0664062 0.203125 -0.109375 C 0.160156 -0.148438 0.125 -0.195312 0.09375 -0.25 L 0.1875 -0.359375 L 0.21875 -0.359375 C 0.300781 -0.203125 0.4375 -0.125 0.625 -0.125 C 0.726562 -0.125 0.804688 -0.144531 0.859375 -0.1875 C 0.910156 -0.238281 0.9375 -0.304688 0.9375 -0.390625 C 0.9375 -0.429688 0.925781 -0.46875 0.90625 -0.5 C 0.894531 -0.53125 0.867188 -0.554688 0.828125 -0.578125 C 0.785156 -0.609375 0.734375 -0.632812 0.671875 -0.65625 L 0.5 -0.6875 C 0.375 -0.71875 0.28125 -0.765625 0.21875 -0.828125 C 0.164062 -0.898438 0.140625 -0.984375 0.140625 -1.078125 C 0.140625 -1.148438 0.15625 -1.210938 0.1875 -1.265625 C 0.226562 -1.328125 0.28125 -1.375 0.34375 -1.40625 C 0.414062 -1.4375 0.503906 -1.453125 0.609375 -1.453125 C 0.710938 -1.453125 0.800781 -1.4375 0.875 -1.40625 C 0.945312 -1.375 1.007812 -1.328125 1.0625 -1.265625 L 0.96875 -1.15625 L 0.953125 -1.15625 C 0.910156 -1.207031 0.859375 -1.242188 0.796875 -1.265625 C 0.742188 -1.285156 0.679688 -1.296875 0.609375 -1.296875 C 0.503906 -1.296875 0.425781 -1.273438 0.375 -1.234375 C 0.332031 -1.203125 0.3125 -1.148438 0.3125 -1.078125 C 0.3125 -1.015625 0.328125 -0.960938 0.359375 -0.921875 C 0.398438 -0.890625 0.460938 -0.863281 0.546875 -0.84375 L 0.71875 -0.796875 C 0.851562 -0.765625 0.953125 -0.710938 1.015625 -0.640625 C 1.078125 -0.578125 1.109375 -0.492188 1.109375 -0.390625 C 1.109375 -0.304688 1.085938 -0.234375 1.046875 -0.171875 C 1.015625 -0.117188 0.960938 -0.0703125 0.890625 -0.03125 C 0.816406 0 0.726562 0.015625 0.625 0.015625 Z M 0.625 0.015625 "/></g></g><g transform="translate(114.314244, 119.451171)"><g><path d="M 0.265625 -1.28125 C 0.234375 -1.28125 0.207031 -1.289062 0.1875 -1.3125 C 0.164062 -1.332031 0.15625 -1.359375 0.15625 -1.390625 C 0.15625 -1.429688 0.164062 -1.460938 0.1875 -1.484375 C 0.207031 -1.503906 0.234375 -1.515625 0.265625 -1.515625 C 0.296875 -1.515625 0.320312 -1.503906 0.34375 -1.484375 C 0.363281 -1.460938 0.375 -1.429688 0.375 -1.390625 C 0.375 -1.359375 0.363281 -1.332031 0.34375 -1.3125 C 0.320312 -1.289062 0.296875 -1.28125 0.265625 -1.28125 Z M 0.1875 0 L 0.1875 -1.078125 L 0.34375 -1.078125 L 0.34375 0 Z M 0.1875 0 "/></g></g><g transform="translate(114.847284, 119.451171)"><g><path d="M 0.1875 0 L 0.1875 -1.078125 L 0.34375 -1.078125 L 0.34375 -0.90625 L 0.359375 -0.90625 C 0.390625 -0.96875 0.429688 -1.015625 0.484375 -1.046875 C 0.546875 -1.078125 0.617188 -1.09375 0.703125 -1.09375 C 0.828125 -1.09375 0.914062 -1.0625 0.96875 -1 C 1.03125 -0.9375 1.0625 -0.832031 1.0625 -0.6875 L 1.0625 0 L 0.90625 0 L 0.90625 -0.6875 C 0.90625 -0.75 0.894531 -0.800781 0.875 -0.84375 C 0.863281 -0.882812 0.835938 -0.910156 0.796875 -0.921875 C 0.765625 -0.941406 0.722656 -0.953125 0.671875 -0.953125 C 0.578125 -0.953125 0.5 -0.921875 0.4375 -0.859375 C 0.375 -0.796875 0.34375 -0.691406 0.34375 -0.546875 L 0.34375 0 Z M 0.1875 0 "/></g></g><g transform="translate(116.084874, 119.451171)"><g><path d="M 0.5625 0.453125 C 0.382812 0.453125 0.253906 0.421875 0.171875 0.359375 C 0.0976562 0.304688 0.0625 0.234375 0.0625 0.140625 C 0.0625 0.0859375 0.078125 0.0390625 0.109375 0 C 0.148438 -0.03125 0.207031 -0.0546875 0.28125 -0.078125 L 0.28125 -0.09375 C 0.25 -0.113281 0.222656 -0.132812 0.203125 -0.15625 C 0.191406 -0.1875 0.1875 -0.21875 0.1875 -0.25 C 0.1875 -0.289062 0.195312 -0.320312 0.21875 -0.34375 C 0.25 -0.375 0.289062 -0.398438 0.34375 -0.421875 L 0.34375 -0.4375 C 0.21875 -0.5 0.15625 -0.597656 0.15625 -0.734375 C 0.15625 -0.804688 0.171875 -0.867188 0.203125 -0.921875 C 0.234375 -0.972656 0.28125 -1.015625 0.34375 -1.046875 C 0.40625 -1.078125 0.472656 -1.09375 0.546875 -1.09375 C 0.640625 -1.09375 0.71875 -1.070312 0.78125 -1.03125 C 0.800781 -1.0625 0.816406 -1.085938 0.828125 -1.109375 C 0.835938 -1.140625 0.847656 -1.175781 0.859375 -1.21875 L 0.875 -1.234375 L 1 -1.203125 C 1 -1.148438 0.984375 -1.101562 0.953125 -1.0625 C 0.929688 -1.019531 0.894531 -0.988281 0.84375 -0.96875 L 0.84375 -0.953125 C 0.875 -0.921875 0.894531 -0.882812 0.90625 -0.84375 C 0.925781 -0.8125 0.9375 -0.769531 0.9375 -0.71875 C 0.9375 -0.65625 0.921875 -0.59375 0.890625 -0.53125 C 0.859375 -0.476562 0.8125 -0.4375 0.75 -0.40625 C 0.695312 -0.375 0.628906 -0.359375 0.546875 -0.359375 C 0.546875 -0.359375 0.53125 -0.363281 0.5 -0.375 C 0.476562 -0.375 0.460938 -0.375 0.453125 -0.375 C 0.410156 -0.375 0.378906 -0.363281 0.359375 -0.34375 C 0.335938 -0.320312 0.328125 -0.300781 0.328125 -0.28125 C 0.328125 -0.238281 0.335938 -0.207031 0.359375 -0.1875 C 0.390625 -0.175781 0.425781 -0.171875 0.46875 -0.171875 L 0.734375 -0.171875 C 0.835938 -0.160156 0.914062 -0.128906 0.96875 -0.078125 C 1.03125 -0.0351562 1.0625 0.0234375 1.0625 0.109375 C 1.0625 0.171875 1.039062 0.226562 1 0.28125 C 0.96875 0.332031 0.914062 0.375 0.84375 0.40625 C 0.769531 0.4375 0.675781 0.453125 0.5625 0.453125 Z M 0.546875 -0.5 C 0.628906 -0.5 0.691406 -0.519531 0.734375 -0.5625 C 0.773438 -0.601562 0.796875 -0.660156 0.796875 -0.734375 C 0.796875 -0.804688 0.773438 -0.863281 0.734375 -0.90625 C 0.691406 -0.945312 0.628906 -0.96875 0.546875 -0.96875 C 0.472656 -0.96875 0.414062 -0.945312 0.375 -0.90625 C 0.332031 -0.863281 0.3125 -0.804688 0.3125 -0.734375 C 0.3125 -0.660156 0.332031 -0.601562 0.375 -0.5625 C 0.414062 -0.519531 0.472656 -0.5 0.546875 -0.5 Z M 0.5625 0.328125 C 0.632812 0.328125 0.695312 0.316406 0.75 0.296875 C 0.800781 0.273438 0.835938 0.25 0.859375 0.21875 C 0.878906 0.195312 0.890625 0.164062 0.890625 0.125 C 0.890625 0.09375 0.882812 0.0664062 0.875 0.046875 C 0.863281 0.0234375 0.84375 0.0078125 0.8125 0 C 0.789062 -0.0078125 0.753906 -0.015625 0.703125 -0.015625 L 0.46875 -0.03125 L 0.4375 -0.03125 C 0.300781 -0.0195312 0.234375 0.0351562 0.234375 0.140625 C 0.234375 0.265625 0.34375 0.328125 0.5625 0.328125 Z M 0.5625 0.328125 "/></g></g><g transform="translate(117.186036, 119.451171)"><g><path d="M 0.1875 0 L 0.1875 -1.515625 L 0.34375 -1.515625 L 0.34375 -0.921875 L 0.375 -0.921875 C 0.445312 -1.035156 0.554688 -1.09375 0.703125 -1.09375 C 0.828125 -1.09375 0.914062 -1.0625 0.96875 -1 C 1.03125 -0.9375 1.0625 -0.832031 1.0625 -0.6875 L 1.0625 0 L 0.90625 0 L 0.90625 -0.6875 C 0.90625 -0.75 0.894531 -0.800781 0.875 -0.84375 C 0.863281 -0.882812 0.835938 -0.910156 0.796875 -0.921875 C 0.765625 -0.941406 0.722656 -0.953125 0.671875 -0.953125 C 0.578125 -0.953125 0.5 -0.921875 0.4375 -0.859375 C 0.375 -0.796875 0.34375 -0.691406 0.34375 -0.546875 L 0.34375 0 Z M 0.1875 0 "/></g></g></g></svg>