<svg xmlns="http://www.w3.org/2000/svg" xmlns:xlink="http://www.w3.org/1999/xlink" width="2100" zoomAndPan="magnify" viewBox="0 0 1574.88 254.250006" height="339" preserveAspectRatio="xMidYMid meet" version="1.0"><defs><g/></defs><g fill="#000000" fill-opacity="1"><g transform="translate(-0.961976, 201.233522)"><g><path d="M 144.484375 -151.375 L 144.484375 0 L 107.609375 0 L 107.609375 -62.3125 L 50.25 -62.3125 L 50.25 0 L 13.375 0 L 13.375 -151.375 L 50.25 -151.375 L 50.25 -92.078125 L 107.609375 -92.078125 L 107.609375 -151.375 Z M 144.484375 -151.375 "/></g></g></g><g fill="#000000" fill-opacity="1"><g transform="translate(136.182573, 201.233522)"><g><path d="M 107.609375 -26.734375 L 51.109375 -26.734375 L 42.046875 0 L 3.453125 0 L 58.21875 -151.375 L 100.921875 -151.375 L 155.6875 0 L 116.65625 0 Z M 98.109375 -55.203125 L 79.359375 -110.625 L 60.8125 -55.203125 Z M 98.109375 -55.203125 "/></g></g></g><g fill="#000000" fill-opacity="1"><g transform="translate(274.620955, 201.233522)"><g><path d="M 90.5625 0 L 59.078125 -57.140625 L 50.25 -57.140625 L 50.25 0 L 13.375 0 L 13.375 -151.375 L 75.265625 -151.375 C 87.191406 -151.375 97.359375 -149.289062 105.765625 -145.125 C 114.179688 -140.957031 120.472656 -135.242188 124.640625 -127.984375 C 128.804688 -120.722656 130.890625 -112.632812 130.890625 -103.71875 C 130.890625 -93.65625 128.050781 -84.671875 122.375 -76.765625 C 116.695312 -68.859375 108.320312 -63.253906 97.25 -59.953125 L 132.1875 0 Z M 50.25 -83.234375 L 73.109375 -83.234375 C 79.859375 -83.234375 84.921875 -84.882812 88.296875 -88.1875 C 91.679688 -91.5 93.375 -96.175781 93.375 -102.21875 C 93.375 -107.96875 91.679688 -112.492188 88.296875 -115.796875 C 84.921875 -119.109375 79.859375 -120.765625 73.109375 -120.765625 L 50.25 -120.765625 Z M 50.25 -83.234375 "/></g></g></g><g fill="#000000" fill-opacity="1"><g transform="translate(394.730246, 201.233522)"><g><path d="M 68.140625 1.515625 C 57.066406 1.515625 47.144531 -0.28125 38.375 -3.875 C 29.613281 -7.46875 22.609375 -12.785156 17.359375 -19.828125 C 12.109375 -26.878906 9.34375 -35.363281 9.0625 -45.28125 L 48.296875 -45.28125 C 48.878906 -39.675781 50.820312 -35.398438 54.125 -32.453125 C 57.425781 -29.503906 61.738281 -28.03125 67.0625 -28.03125 C 72.53125 -28.03125 76.84375 -29.285156 80 -31.796875 C 83.164062 -34.316406 84.75 -37.804688 84.75 -42.265625 C 84.75 -46.003906 83.488281 -49.09375 80.96875 -51.53125 C 78.457031 -53.976562 75.367188 -55.992188 71.703125 -57.578125 C 68.035156 -59.160156 62.820312 -60.957031 56.0625 -62.96875 C 46.289062 -65.988281 38.3125 -69.003906 32.125 -72.015625 C 25.945312 -75.035156 20.628906 -79.492188 16.171875 -85.390625 C 11.710938 -91.285156 9.484375 -98.976562 9.484375 -108.46875 C 9.484375 -122.550781 14.585938 -133.582031 24.796875 -141.5625 C 35.003906 -149.539062 48.300781 -153.53125 64.6875 -153.53125 C 81.363281 -153.53125 94.804688 -149.539062 105.015625 -141.5625 C 115.222656 -133.582031 120.6875 -122.476562 121.40625 -108.25 L 81.515625 -108.25 C 81.222656 -113.132812 79.421875 -116.976562 76.109375 -119.78125 C 72.804688 -122.59375 68.566406 -124 63.390625 -124 C 58.941406 -124 55.347656 -122.8125 52.609375 -120.4375 C 49.878906 -118.0625 48.515625 -114.644531 48.515625 -110.1875 C 48.515625 -105.300781 50.8125 -101.492188 55.40625 -98.765625 C 60.007812 -96.035156 67.203125 -93.085938 76.984375 -89.921875 C 86.753906 -86.617188 94.695312 -83.457031 100.8125 -80.4375 C 106.925781 -77.414062 112.207031 -73.03125 116.65625 -67.28125 C 121.113281 -61.53125 123.34375 -54.125 123.34375 -45.0625 C 123.34375 -36.4375 121.148438 -28.601562 116.765625 -21.5625 C 112.378906 -14.519531 106.015625 -8.910156 97.671875 -4.734375 C 89.335938 -0.566406 79.492188 1.515625 68.140625 1.515625 Z M 68.140625 1.515625 "/></g></g></g><g fill="#000000" fill-opacity="1"><g transform="translate(506.861, 201.233522)"><g><path d="M 107.609375 -26.734375 L 51.109375 -26.734375 L 42.046875 0 L 3.453125 0 L 58.21875 -151.375 L 100.921875 -151.375 L 155.6875 0 L 116.65625 0 Z M 98.109375 -55.203125 L 79.359375 -110.625 L 60.8125 -55.203125 Z M 98.109375 -55.203125 "/></g></g></g><g fill="#000000" fill-opacity="1"><g transform="translate(645.299382, 201.233522)"><g><path d="M 144.484375 -151.375 L 144.484375 0 L 107.609375 0 L 107.609375 -62.3125 L 50.25 -62.3125 L 50.25 0 L 13.375 0 L 13.375 -151.375 L 50.25 -151.375 L 50.25 -92.078125 L 107.609375 -92.078125 L 107.609375 -151.375 Z M 144.484375 -151.375 "/></g></g></g><g fill="#000000" fill-opacity="1"><g transform="translate(782.443931, 201.233522)"><g><path d="M 50.25 -151.375 L 50.25 0 L 13.375 0 L 13.375 -151.375 Z M 50.25 -151.375 "/></g></g></g><g fill="#000000" fill-opacity="1"><g transform="translate(825.571067, 201.233522)"><g><path d="M 105.015625 -77.625 C 113.785156 -75.757812 120.828125 -71.410156 126.140625 -64.578125 C 131.460938 -57.753906 134.125 -49.957031 134.125 -41.1875 C 134.125 -28.539062 129.703125 -18.515625 120.859375 -11.109375 C 112.023438 -3.703125 99.703125 0 83.890625 0 L 13.375 0 L 13.375 -151.375 L 81.515625 -151.375 C 96.890625 -151.375 108.925781 -147.851562 117.625 -140.8125 C 126.320312 -133.769531 130.671875 -124.210938 130.671875 -112.140625 C 130.671875 -103.222656 128.332031 -95.816406 123.65625 -89.921875 C 118.988281 -84.023438 112.773438 -79.925781 105.015625 -77.625 Z M 50.25 -90.140625 L 74.390625 -90.140625 C 80.429688 -90.140625 85.066406 -91.46875 88.296875 -94.125 C 91.535156 -96.78125 93.15625 -100.695312 93.15625 -105.875 C 93.15625 -111.050781 91.535156 -115.003906 88.296875 -117.734375 C 85.066406 -120.472656 80.429688 -121.84375 74.390625 -121.84375 L 50.25 -121.84375 Z M 77.421875 -29.765625 C 83.597656 -29.765625 88.375 -31.164062 91.75 -33.96875 C 95.132812 -36.769531 96.828125 -40.828125 96.828125 -46.140625 C 96.828125 -51.460938 95.0625 -55.632812 91.53125 -58.65625 C 88.007812 -61.675781 83.160156 -63.1875 76.984375 -63.1875 L 50.25 -63.1875 L 50.25 -29.765625 Z M 77.421875 -29.765625 "/></g></g></g><g fill="#000000" fill-opacity="1"><g transform="translate(947.189837, 201.233522)"><g/></g></g><g fill="#000000" fill-opacity="1"><g transform="translate(972.419178, 201.233522)"><g><path d="M 68.140625 1.515625 C 57.066406 1.515625 47.144531 -0.28125 38.375 -3.875 C 29.613281 -7.46875 22.609375 -12.785156 17.359375 -19.828125 C 12.109375 -26.878906 9.34375 -35.363281 9.0625 -45.28125 L 48.296875 -45.28125 C 48.878906 -39.675781 50.820312 -35.398438 54.125 -32.453125 C 57.425781 -29.503906 61.738281 -28.03125 67.0625 -28.03125 C 72.53125 -28.03125 76.84375 -29.285156 80 -31.796875 C 83.164062 -34.316406 84.75 -37.804688 84.75 -42.265625 C 84.75 -46.003906 83.488281 -49.09375 80.96875 -51.53125 C 78.457031 -53.976562 75.367188 -55.992188 71.703125 -57.578125 C 68.035156 -59.160156 62.820312 -60.957031 56.0625 -62.96875 C 46.289062 -65.988281 38.3125 -69.003906 32.125 -72.015625 C 25.945312 -75.035156 20.628906 -79.492188 16.171875 -85.390625 C 11.710938 -91.285156 9.484375 -98.976562 9.484375 -108.46875 C 9.484375 -122.550781 14.585938 -133.582031 24.796875 -141.5625 C 35.003906 -149.539062 48.300781 -153.53125 64.6875 -153.53125 C 81.363281 -153.53125 94.804688 -149.539062 105.015625 -141.5625 C 115.222656 -133.582031 120.6875 -122.476562 121.40625 -108.25 L 81.515625 -108.25 C 81.222656 -113.132812 79.421875 -116.976562 76.109375 -119.78125 C 72.804688 -122.59375 68.566406 -124 63.390625 -124 C 58.941406 -124 55.347656 -122.8125 52.609375 -120.4375 C 49.878906 -118.0625 48.515625 -114.644531 48.515625 -110.1875 C 48.515625 -105.300781 50.8125 -101.492188 55.40625 -98.765625 C 60.007812 -96.035156 67.203125 -93.085938 76.984375 -89.921875 C 86.753906 -86.617188 94.695312 -83.457031 100.8125 -80.4375 C 106.925781 -77.414062 112.207031 -73.03125 116.65625 -67.28125 C 121.113281 -61.53125 123.34375 -54.125 123.34375 -45.0625 C 123.34375 -36.4375 121.148438 -28.601562 116.765625 -21.5625 C 112.378906 -14.519531 106.015625 -8.910156 97.671875 -4.734375 C 89.335938 -0.566406 79.492188 1.515625 68.140625 1.515625 Z M 68.140625 1.515625 "/></g></g></g><g fill="#000000" fill-opacity="1"><g transform="translate(1084.549983, 201.233522)"><g><path d="M 50.25 -151.375 L 50.25 0 L 13.375 0 L 13.375 -151.375 Z M 50.25 -151.375 "/></g></g></g><g fill="#000000" fill-opacity="1"><g transform="translate(1127.67717, 201.233522)"><g><path d="M 148.796875 0 L 111.921875 0 L 50.25 -93.375 L 50.25 0 L 13.375 0 L 13.375 -151.375 L 50.25 -151.375 L 111.921875 -57.578125 L 111.921875 -151.375 L 148.796875 -151.375 Z M 148.796875 0 "/></g></g></g><g fill="#000000" fill-opacity="1"><g transform="translate(1269.350052, 201.233522)"><g><path d="M 113.859375 -103.5 C 111.128906 -108.539062 107.210938 -112.390625 102.109375 -115.046875 C 97.003906 -117.703125 91 -119.03125 84.09375 -119.03125 C 72.164062 -119.03125 62.609375 -115.113281 55.421875 -107.28125 C 48.234375 -99.445312 44.640625 -88.988281 44.640625 -75.90625 C 44.640625 -61.957031 48.410156 -51.066406 55.953125 -43.234375 C 63.503906 -35.398438 73.894531 -31.484375 87.125 -31.484375 C 96.175781 -31.484375 103.828125 -33.78125 110.078125 -38.375 C 116.335938 -42.976562 120.90625 -49.59375 123.78125 -58.21875 L 76.984375 -58.21875 L 76.984375 -85.390625 L 157.203125 -85.390625 L 157.203125 -51.109375 C 154.472656 -41.910156 149.835938 -33.351562 143.296875 -25.4375 C 136.753906 -17.53125 128.453125 -11.132812 118.390625 -6.25 C 108.328125 -1.363281 96.96875 1.078125 84.3125 1.078125 C 69.363281 1.078125 56.03125 -2.191406 44.3125 -8.734375 C 32.59375 -15.273438 23.460938 -24.367188 16.921875 -36.015625 C 10.378906 -47.660156 7.109375 -60.957031 7.109375 -75.90625 C 7.109375 -90.851562 10.378906 -104.1875 16.921875 -115.90625 C 23.460938 -127.625 32.554688 -136.753906 44.203125 -143.296875 C 55.847656 -149.835938 69.144531 -153.109375 84.09375 -153.109375 C 102.207031 -153.109375 117.484375 -148.722656 129.921875 -139.953125 C 142.359375 -131.179688 150.585938 -119.03125 154.609375 -103.5 Z M 113.859375 -103.5 "/></g></g></g><g fill="#000000" fill-opacity="1"><g transform="translate(1413.179309, 201.233522)"><g><path d="M 144.484375 -151.375 L 144.484375 0 L 107.609375 0 L 107.609375 -62.3125 L 50.25 -62.3125 L 50.25 0 L 13.375 0 L 13.375 -151.375 L 50.25 -151.375 L 50.25 -92.078125 L 107.609375 -92.078125 L 107.609375 -151.375 Z M 144.484375 -151.375 "/></g></g></g></svg>